<svg width="222" height="1436" viewBox="0 0 222 1436" fill="none" xmlns="http://www.w3.org/2000/svg">
<path fill-rule="evenodd" clip-rule="evenodd" d="M23.8051 166.745C24.6306 168.904 24.0006 171.133 22.398 171.723C20.7954 172.314 18.827 171.043 18.0016 168.884C17.1761 166.725 17.806 164.496 19.4086 163.906C21.0112 163.315 22.9796 164.586 23.8051 166.745ZM25.7166 170.062C25.6336 171.964 26.8345 173.56 28.3988 173.626C29.9632 173.692 31.2986 172.203 31.3816 170.301C31.4646 168.399 30.2637 166.803 28.6993 166.737C27.135 166.671 25.7996 168.16 25.7166 170.062ZM23.9866 173.427C22.3675 172.961 20.9481 173.519 20.4407 173.856C18.7658 174.969 18.8384 176.464 18.9248 178.242C18.9864 179.509 19.0549 180.919 18.503 182.437C17.4418 185.355 19.2985 186.686 20.3595 186.987C21.1725 187.341 23.1404 187.603 24.5079 185.823C24.8781 185.34 25.1551 184.932 25.3932 184.581C26.2541 183.312 26.6084 182.789 29.0308 182.23C32.0643 181.529 32.4716 180.235 32.7393 179.385L32.7549 179.336C33.0232 178.487 32.724 175.081 29.5672 175.083C27.5068 175.085 26.6208 174.627 25.6912 174.147C25.1965 173.892 24.6895 173.63 23.9866 173.427ZM17.3301 181.01C17.8489 179.559 16.7863 177.872 14.9567 177.241C13.1271 176.61 11.2234 177.274 10.7046 178.724C10.1858 180.175 11.2484 181.862 13.0779 182.494C14.9075 183.125 16.8113 182.46 17.3301 181.01ZM17.6742 174.874C16.5202 176.115 14.1786 175.861 12.444 174.307C10.7094 172.752 10.2387 170.486 11.3927 169.244C12.5466 168.003 14.8882 168.257 16.6228 169.811C18.3574 171.366 18.8281 173.633 17.6742 174.874Z" fill="url(#paint0_linear_344_458)"/>
<path fill-rule="evenodd" clip-rule="evenodd" d="M41.8866 402.39C43.4892 401.799 44.1192 399.571 43.2937 397.412C42.4682 395.253 40.4998 393.982 38.8972 394.572C37.2946 395.163 36.6646 397.392 37.4901 399.551C38.3156 401.71 40.284 402.981 41.8866 402.39ZM47.8874 404.293C46.3231 404.227 45.1222 402.631 45.2051 400.729C45.2881 398.826 46.6235 397.338 48.1879 397.404C49.7522 397.47 50.9531 399.065 50.8701 400.968C50.7872 402.87 49.4517 404.358 47.8874 404.293ZM39.9293 404.523C40.4366 404.185 41.8561 403.628 43.4751 404.094C44.178 404.296 44.6851 404.558 45.1797 404.814C46.1094 405.294 46.9953 405.752 49.0557 405.75C52.2125 405.748 52.5118 409.153 52.2434 410.002L52.2279 410.052C51.9602 410.902 51.5529 412.196 48.5194 412.896C46.097 413.456 45.7432 413.978 44.8824 415.247C44.6442 415.598 44.3667 416.007 43.9965 416.489C42.629 418.27 40.6611 418.008 39.8481 417.654C38.7871 417.353 36.9304 416.022 37.9915 413.104C38.5435 411.586 38.4749 410.175 38.4134 408.909C38.327 407.131 38.2543 405.636 39.9293 404.523ZM34.4453 407.907C36.2749 408.539 37.3374 410.226 36.8186 411.677C36.2998 413.127 34.3961 413.791 32.5665 413.16C30.7369 412.529 29.6743 410.842 30.1931 409.391C30.7119 407.94 32.6157 407.276 34.4453 407.907ZM31.9326 404.974C33.6672 406.528 36.0088 406.782 37.1627 405.541C38.3167 404.299 37.846 402.033 36.1114 400.478C34.3768 398.923 32.0352 398.67 30.8812 399.911C29.7273 401.152 30.198 403.419 31.9326 404.974Z" fill="url(#paint1_linear_344_458)"/>
<path fill-rule="evenodd" clip-rule="evenodd" d="M65.9819 620.227C71.3307 628.819 83.9429 645.685 91.6013 644.409C101.174 642.813 115.596 647 113.695 657.692C113.609 658.176 113.526 658.654 113.445 659.125L113.443 659.133L113.443 659.137L113.442 659.14C111.725 669.046 101.279 673.38 91.7286 671.02C82.1787 668.66 80.9895 673.967 79.6728 679.844C78.2662 686.121 70.3587 692.48 64.6681 691.971C51.4212 690.787 50.2453 678.462 52.9946 669.747C53.7737 667.277 54.4725 665.062 54.5694 663.406C55.0079 655.911 54.4379 652.582 49.2982 644.345C48.816 643.573 48.3699 642.823 47.9408 642.102C41.2345 630.838 38.1995 631.325 27.4578 633.052C26.1062 633.269 24.6323 633.506 23.0139 633.741C13.0649 635.189 -1.80939 616.871 12.0344 603.644C15.7674 600.078 21.2648 599.394 25.407 600.584C29.6475 601.804 34.1431 603.096 38.9771 599.508C43.1364 596.421 44.1248 591.608 45.036 587.171C45.9473 582.734 49.9479 576.667 55.6 576.667C64.6683 576.667 69.5828 579.378 72.7678 585.057L72.7738 585.068C72.9048 585.301 73.0385 585.54 73.1759 585.783C77.4323 597.572 71.4444 601.558 66.8807 604.596C64.5298 606.161 62.5569 607.474 62.5569 609.473C62.5569 610.121 62.5171 610.669 62.4806 611.172C62.318 613.412 62.2195 614.769 65.9819 620.227ZM62.7822 628.078C63.6077 630.237 62.9777 632.466 61.3751 633.057C59.7725 633.647 57.8042 632.376 56.9787 630.217C56.1532 628.059 56.7831 625.83 58.3857 625.239C59.9883 624.648 61.9567 625.92 62.7822 628.078ZM64.6937 631.395C64.6108 633.298 65.8116 634.893 67.376 634.959C68.9403 635.025 70.2757 633.537 70.3587 631.634C70.4417 629.732 69.2408 628.136 67.6765 628.07C66.1121 628.004 64.7767 629.493 64.6937 631.395ZM62.9637 634.761C61.3446 634.294 59.9251 634.852 59.4178 635.189C57.7429 636.303 57.8155 637.798 57.9019 639.575C57.9635 640.842 58.032 642.252 57.4801 643.77C56.4189 646.688 58.2756 648.02 59.3366 648.32C60.1496 648.674 62.1176 648.937 63.485 647.156C63.8553 646.674 64.1323 646.265 64.3704 645.914C65.2313 644.645 65.5856 644.123 68.008 643.563C71.0415 642.862 71.4487 641.569 71.7164 640.718L71.732 640.669C72.0004 639.82 71.7011 636.414 68.5443 636.417C66.4839 636.418 65.5979 635.961 64.6683 635.48C64.1736 635.225 63.6666 634.963 62.9637 634.761ZM56.3072 642.343C56.826 640.893 55.7634 639.205 53.9338 638.574C52.1042 637.943 50.2005 638.607 49.6817 640.058C49.1629 641.508 50.2255 643.196 52.0551 643.827C53.8846 644.458 55.7884 643.794 56.3072 642.343ZM56.6513 636.207C55.4974 637.449 53.1557 637.195 51.4211 635.64C49.6866 634.086 49.2158 631.819 50.3698 630.578C51.5237 629.336 53.8654 629.59 55.6 631.145C57.3346 632.699 57.8052 634.966 56.6513 636.207Z" fill="url(#paint2_linear_344_458)"/>
<path fill-rule="evenodd" clip-rule="evenodd" d="M88.7043 67.7421C81.046 69.0183 68.4337 52.1525 63.0849 43.5601C59.3225 38.1029 59.421 36.7455 59.5836 34.5052C59.6201 34.0022 59.6599 33.4547 59.6599 32.8063C59.6599 30.8076 61.6329 29.4942 63.9838 27.9291C68.5475 24.8911 74.5354 20.905 70.2789 9.11661C70.2112 8.99672 70.1444 8.87796 70.0783 8.76041L69.8768 8.40124L69.8708 8.39051C66.6858 2.71127 61.7713 4.92672e-10 52.703 4.92672e-10C47.0509 -6.3133e-05 43.0503 6.06757 42.139 10.5045C41.2279 14.9413 40.2394 19.7542 36.0801 22.8414C31.2461 26.4293 26.7505 25.1369 22.5101 23.9178C18.3678 22.7269 12.8705 23.4109 9.13748 26.9775C-4.7063 40.204 10.1679 58.5226 20.117 57.0748C21.7232 56.841 23.187 56.606 24.5304 56.3901L24.5382 56.3889L24.5476 56.3874L24.5574 56.3857L24.5609 56.3852C35.3025 54.6588 38.3375 54.1709 45.0438 65.4358C45.4729 66.1565 45.919 66.9058 46.4012 67.6787C51.541 75.9157 52.111 79.2446 51.6725 86.7397C51.5756 88.3948 50.8768 90.6101 50.0976 93.08C47.3483 101.795 48.5242 114.12 61.7712 115.305C67.4618 115.813 75.3692 109.454 76.7758 103.177C78.0926 97.3004 79.2817 91.9931 88.8317 94.3533C98.3816 96.7135 108.828 92.3789 110.545 82.4729L110.546 82.4705L110.546 82.4665L110.548 82.4592C110.629 81.9881 110.712 81.5098 110.798 81.0249C112.699 70.3335 98.2772 66.1468 88.7043 67.7421ZM58.4782 56.3901C60.0808 55.7995 60.7108 53.5706 59.8853 51.4118C59.0598 49.2531 57.0914 47.9818 55.4888 48.5725C53.8862 49.1631 53.2562 51.392 54.0817 53.5508C54.9072 55.7096 56.8756 56.9808 58.4782 56.3901ZM64.479 58.2925C62.9146 58.2265 61.7138 56.6309 61.7968 54.7286C61.8797 52.8263 63.2151 51.3377 64.7795 51.4037C66.3438 51.4697 67.5447 53.0653 67.4617 54.9676C67.3787 56.8699 66.0433 58.3585 64.479 58.2925ZM56.5209 58.5227C57.0282 58.1855 58.4477 57.6277 60.0668 58.094C60.7696 58.2965 61.2767 58.5583 61.7714 58.8138C62.701 59.2939 63.5869 59.7515 65.6473 59.7499C68.8042 59.7475 69.1034 63.1532 68.835 64.0022L68.8195 64.0516C68.5518 64.902 68.1445 66.1958 65.111 66.8965C62.6886 67.456 62.3348 67.9776 61.4739 69.247C61.2358 69.5981 60.9583 70.0072 60.5881 70.4893C59.2206 72.27 57.2527 72.0075 56.4396 71.6537C55.3786 71.3529 53.522 70.0218 54.5832 67.1035C55.1351 65.5856 55.0666 64.1754 55.005 62.9086C54.9186 61.131 54.846 59.6359 56.5209 58.5227ZM51.0369 61.9074C52.8665 62.5386 53.9291 64.226 53.4102 65.6766C52.8914 67.1271 50.9877 67.7914 49.1581 67.1602C47.3285 66.5291 46.2659 64.8415 46.7847 63.391C47.3035 61.9405 49.2073 61.2763 51.0369 61.9074ZM48.5242 58.9736C50.2588 60.5282 52.6004 60.7821 53.7543 59.5406C54.9083 58.2992 54.4376 56.0326 52.703 54.478C50.9684 52.9234 48.6268 52.6696 47.4728 53.911C46.3189 55.1524 46.7896 57.419 48.5242 58.9736Z" fill="url(#paint3_linear_344_458)"/>
<path fill-rule="evenodd" clip-rule="evenodd" d="M82.5734 274.227C87.9223 282.819 100.535 299.685 108.193 298.409C117.766 296.813 132.187 301 130.287 311.692C130.201 312.176 130.118 312.653 130.037 313.123L130.035 313.133L130.034 313.137L130.034 313.14C128.317 323.046 117.87 327.38 108.32 325.02C98.7703 322.66 97.5811 327.967 96.2644 333.844C94.8578 340.121 86.9503 346.48 81.2597 345.971C68.0128 344.787 66.8369 332.462 69.5862 323.747C70.3654 321.277 71.0642 319.061 71.161 317.406C71.5995 309.911 71.0296 306.582 65.8898 298.345C65.4076 297.572 64.9615 296.823 64.5324 296.102C57.8261 284.838 54.7911 285.325 44.0494 287.052L44.0459 287.052L44.0361 287.054L44.0268 287.056L44.0189 287.057C42.6755 287.273 41.2118 287.508 39.6056 287.741C29.6565 289.189 14.7822 270.871 28.626 257.644C32.359 254.078 37.8564 253.394 41.9987 254.584C46.2391 255.804 50.7348 257.096 55.5687 253.508C59.728 250.421 60.7164 245.608 61.6276 241.171C62.5388 236.734 66.5395 230.667 72.1916 230.667C81.2599 230.667 86.1743 233.378 89.3593 239.057L89.3654 239.068C89.4964 239.302 89.6301 239.54 89.7675 239.783C94.0239 251.572 88.036 255.558 83.4723 258.596C81.1214 260.161 79.1484 261.474 79.1484 263.473C79.1484 264.121 79.1087 264.669 79.0722 265.172C78.9096 267.412 78.8111 268.77 82.5734 274.227ZM79.3738 282.078C80.1993 284.237 79.5693 286.466 77.9667 287.057C76.3641 287.647 74.3958 286.376 73.5703 284.217C72.7448 282.059 73.3748 279.83 74.9774 279.239C76.58 278.648 78.5483 279.92 79.3738 282.078ZM81.2853 285.395C81.2023 287.298 82.4032 288.893 83.9676 288.959C85.5319 289.025 86.8673 287.537 86.9503 285.634C87.0333 283.732 85.8324 282.136 84.2681 282.07C82.7037 282.004 81.3683 283.493 81.2853 285.395ZM79.5553 288.761C77.9362 288.294 76.5168 288.852 76.0094 289.189C74.3345 290.302 74.4071 291.798 74.4935 293.575C74.5551 294.842 74.6237 296.252 74.0717 297.77C73.0106 300.688 74.8672 302.02 75.9282 302.32C76.7412 302.674 78.7092 302.937 80.0767 301.156C80.4469 300.674 80.7238 300.265 80.962 299.914C81.8228 298.645 82.1772 298.123 84.5996 297.563C87.6331 296.862 88.0403 295.569 88.308 294.718L88.3235 294.669C88.5919 293.82 88.2927 290.414 85.1359 290.417C83.0754 290.418 82.1895 289.961 81.2599 289.48C80.7652 289.225 80.2582 288.963 79.5553 288.761ZM72.8988 296.343C73.4176 294.893 72.355 293.205 70.5254 292.574C68.6958 291.943 66.7921 292.607 66.2733 294.058C65.7545 295.508 66.8171 297.196 68.6467 297.827C70.4763 298.458 72.38 297.794 72.8988 296.343ZM73.2429 290.207C72.089 291.449 69.7474 291.195 68.0128 289.64C66.2782 288.086 65.8075 285.819 66.9614 284.578C68.1154 283.336 70.457 283.59 72.1916 285.145C73.9262 286.699 74.3969 288.966 73.2429 290.207Z" fill="url(#paint4_linear_344_458)"/>
<path fill-rule="evenodd" clip-rule="evenodd" d="M127.681 529.075C120.023 530.352 107.411 513.486 102.062 504.893C98.2997 499.436 98.3981 498.079 98.5607 495.839C98.5972 495.336 98.637 494.788 98.637 494.14C98.637 492.141 100.61 490.827 102.961 489.262C107.525 486.224 113.513 482.238 109.256 470.45C109.119 470.207 108.985 469.968 108.854 469.735L108.848 469.724C105.663 464.045 100.748 461.333 91.6801 461.333C86.028 461.333 82.0274 467.401 81.1161 471.838C80.205 476.275 79.2166 481.088 75.0573 484.175C70.2233 487.763 65.7276 486.47 61.4872 485.251C57.3449 484.06 51.8476 484.744 48.1146 488.311C34.2708 501.537 49.145 519.856 59.0941 518.408C60.7125 518.173 62.1863 517.936 63.538 517.719C74.2796 515.992 77.3147 515.504 84.021 526.769C84.4501 527.49 84.8961 528.239 85.3784 529.012C90.5181 537.249 91.0881 540.578 90.6495 548.073C90.5527 549.728 89.8539 551.943 89.0747 554.413C86.3254 563.128 87.5013 575.454 100.748 576.638C106.439 577.147 114.346 570.788 115.753 564.51C117.07 558.634 118.259 553.326 127.809 555.687C137.359 558.047 147.806 553.712 149.522 543.806L149.523 543.804L149.523 543.8L149.525 543.79C149.607 543.32 149.689 542.842 149.776 542.358C151.676 531.667 137.254 527.48 127.681 529.075ZM97.4553 517.723C99.0579 517.133 99.6879 514.904 98.8624 512.745C98.0369 510.586 96.0686 509.315 94.4659 509.906C92.8633 510.496 92.2333 512.725 93.0588 514.884C93.8843 517.043 95.8527 518.314 97.4553 517.723ZM103.456 519.626C101.892 519.56 100.691 517.964 100.774 516.062C100.857 514.16 102.192 512.671 103.757 512.737C105.321 512.803 106.522 514.399 106.439 516.301C106.356 518.203 105.021 519.692 103.456 519.626ZM95.498 519.856C96.0053 519.519 97.4248 518.961 99.0439 519.427C99.7467 519.63 100.254 519.892 100.748 520.147C101.678 520.627 102.564 521.085 104.624 521.083C107.781 521.081 108.08 524.487 107.812 525.336L107.797 525.385C107.529 526.235 107.122 527.529 104.088 528.23C101.666 528.789 101.312 529.311 100.451 530.58C100.213 530.931 99.9354 531.34 99.5652 531.823C98.1977 533.603 96.2298 533.341 95.4168 532.987C94.3558 532.686 92.4991 531.355 93.5602 528.437C94.1122 526.919 94.0437 525.509 93.9821 524.242C93.8957 522.464 93.8231 520.969 95.498 519.856ZM90.014 523.241C91.8436 523.872 92.9061 525.559 92.3873 527.01C91.8685 528.46 89.9648 529.125 88.1352 528.494C86.3056 527.862 85.2431 526.175 85.7619 524.724C86.2807 523.274 88.1844 522.61 90.014 523.241ZM87.5013 520.307C89.2359 521.861 91.5776 522.115 92.7315 520.874C93.8855 519.632 93.4146 517.366 91.6801 515.811C89.9455 514.257 87.6039 514.003 86.45 515.244C85.296 516.486 85.7667 518.752 87.5013 520.307Z" fill="url(#paint5_linear_344_458)"/>
<path fill-rule="evenodd" clip-rule="evenodd" d="M134.455 158.893C139.804 167.486 152.416 184.352 160.075 183.075C169.647 181.48 184.069 185.667 182.169 196.358C182.128 196.589 182.087 196.818 182.048 197.045C182.004 197.295 181.961 197.543 181.919 197.789L181.917 197.8L181.916 197.804L181.916 197.806C180.199 207.712 169.752 212.047 160.202 209.687C150.652 207.326 149.463 212.634 148.146 218.51C146.739 224.788 138.832 231.147 133.141 230.638C119.894 229.454 118.719 217.129 121.468 208.413C122.247 205.943 122.946 203.728 123.043 202.073C123.481 194.578 122.911 191.249 117.771 183.012C117.289 182.239 116.843 181.49 116.414 180.769C109.708 169.504 106.673 169.992 95.9312 171.719L95.9277 171.719L95.9186 171.721C94.5704 171.937 93.1007 172.173 91.4873 172.408C81.5382 173.856 66.6639 155.537 80.5077 142.311C84.2407 138.744 89.738 138.06 93.8803 139.251C98.1208 140.47 102.616 141.763 107.45 138.175C111.61 135.088 112.598 130.275 113.509 125.838C114.42 121.401 118.421 115.333 124.073 115.333C133.142 115.333 138.056 118.045 141.241 123.724L141.247 123.735C141.378 123.968 141.512 124.207 141.649 124.45C145.906 136.238 139.918 140.224 135.354 143.262C133.003 144.827 131.03 146.141 131.03 148.14C131.03 148.788 130.99 149.336 130.954 149.839C130.791 152.079 130.693 153.436 134.455 158.893ZM131.255 166.745C132.081 168.904 131.451 171.133 129.848 171.723C128.246 172.314 126.277 171.043 125.452 168.884C124.626 166.725 125.256 164.496 126.859 163.906C128.462 163.315 130.43 164.586 131.255 166.745ZM133.167 170.062C133.084 171.964 134.285 173.56 135.849 173.626C137.414 173.692 138.749 172.203 138.832 170.301C138.915 168.399 137.714 166.803 136.15 166.737C134.585 166.671 133.25 168.16 133.167 170.062ZM131.437 173.427C129.818 172.961 128.398 173.519 127.891 173.856C126.216 174.969 126.289 176.464 126.375 178.242C126.437 179.509 126.505 180.919 125.953 182.437C124.892 185.355 126.749 186.686 127.81 186.987C128.623 187.341 130.591 187.603 131.958 185.823C132.329 185.34 132.606 184.932 132.844 184.581C133.705 183.312 134.059 182.789 136.481 182.23C139.515 181.529 139.922 180.235 140.19 179.385L140.205 179.336C140.474 178.487 140.174 175.081 137.018 175.083C134.957 175.085 134.071 174.627 133.142 174.147C132.647 173.892 132.14 173.63 131.437 173.427ZM124.781 181.01C125.299 179.559 124.237 177.872 122.407 177.241C120.578 176.61 118.674 177.274 118.155 178.724C117.636 180.175 118.699 181.862 120.528 182.494C122.358 183.125 124.262 182.46 124.781 181.01ZM125.125 174.874C123.971 176.115 121.629 175.861 119.894 174.307C118.16 172.752 117.689 170.486 118.843 169.244C119.997 168.003 122.339 168.257 124.073 169.811C125.808 171.366 126.279 173.633 125.125 174.874Z" fill="url(#paint6_linear_344_458)"/>
<path fill-rule="evenodd" clip-rule="evenodd" d="M179.563 413.742C171.905 415.018 159.293 398.153 153.944 389.56C150.181 384.103 150.28 382.746 150.442 380.505C150.479 380.002 150.519 379.455 150.519 378.806C150.519 376.808 152.492 375.494 154.843 373.929C159.406 370.891 165.394 366.905 161.138 355.117C161 354.873 160.867 354.635 160.736 354.401L160.73 354.391C157.545 348.711 152.63 346 143.562 346C137.91 346 133.909 352.068 132.998 356.504C132.087 360.941 131.098 365.754 126.939 368.841C122.105 372.429 117.609 371.137 113.369 369.918C109.227 368.727 103.729 369.411 99.9963 372.977C86.1525 386.204 101.027 404.523 110.976 403.075C112.594 402.839 114.068 402.602 115.42 402.385C126.161 400.659 129.196 400.171 135.903 411.436C136.332 412.157 136.778 412.906 137.26 413.679C142.4 421.916 142.97 425.245 142.531 432.74C142.434 434.395 141.736 436.61 140.956 439.08C138.207 447.795 139.383 460.12 152.63 461.305C158.321 461.813 166.228 455.454 167.635 449.177C168.951 443.3 170.141 437.993 179.69 440.353C189.24 442.714 199.687 438.379 201.404 428.473L201.404 428.47L201.405 428.466L201.407 428.454C201.489 427.985 201.571 427.508 201.657 427.025C203.558 416.334 189.136 412.147 179.563 413.742ZM149.337 402.39C150.94 401.799 151.57 399.571 150.744 397.412C149.919 395.253 147.95 393.982 146.348 394.572C144.745 395.163 144.115 397.392 144.94 399.551C145.766 401.71 147.734 402.981 149.337 402.39ZM155.338 404.293C153.773 404.227 152.573 402.631 152.656 400.729C152.739 398.826 154.074 397.338 155.638 397.404C157.203 397.47 158.404 399.065 158.321 400.968C158.238 402.87 156.902 404.358 155.338 404.293ZM147.38 404.523C147.887 404.185 149.306 403.628 150.926 404.094C151.628 404.296 152.135 404.558 152.63 404.814C153.56 405.294 154.446 405.752 156.506 405.75C159.663 405.748 159.962 409.153 159.694 410.002L159.678 410.052C159.411 410.902 159.003 412.196 155.97 412.896C153.547 413.456 153.194 413.978 152.333 415.247C152.095 415.598 151.817 416.007 151.447 416.489C150.079 418.27 148.112 418.008 147.299 417.654C146.238 417.353 144.381 416.022 145.442 413.104C145.994 411.586 145.925 410.175 145.864 408.909C145.777 407.131 145.705 405.636 147.38 404.523ZM141.896 407.907C143.725 408.539 144.788 410.226 144.269 411.677C143.75 413.127 141.846 413.791 140.017 413.16C138.187 412.529 137.125 410.842 137.644 409.391C138.162 407.94 140.066 407.276 141.896 407.907ZM139.383 404.974C141.118 406.528 143.459 406.782 144.613 405.541C145.767 404.299 145.296 402.033 143.562 400.478C141.827 398.923 139.486 398.67 138.332 399.911C137.178 401.152 137.648 403.419 139.383 404.974Z" fill="url(#paint7_linear_344_458)"/>
<path fill-rule="evenodd" clip-rule="evenodd" d="M173.432 620.227C178.781 628.819 191.393 645.685 199.052 644.409C208.625 642.813 223.046 647 221.146 657.692C221.06 658.175 220.977 658.652 220.896 659.122L220.894 659.133L220.893 659.137L220.893 659.14C219.176 669.046 208.729 673.38 199.179 671.02C189.629 668.66 188.44 673.967 187.123 679.844C185.717 686.121 177.809 692.48 172.119 691.971C158.872 690.787 157.696 678.462 160.445 669.747C161.224 667.277 161.923 665.062 162.02 663.406C162.458 655.911 161.888 652.582 156.749 644.345C156.266 643.573 155.82 642.823 155.391 642.102C148.685 630.838 145.65 631.325 134.908 633.052C133.557 633.269 132.083 633.506 130.464 633.741C120.515 635.189 105.641 616.871 119.485 603.644C123.218 600.078 128.715 599.394 132.857 600.584C137.098 601.804 141.594 603.096 146.427 599.508C150.587 596.421 151.575 591.608 152.486 587.171C153.398 582.734 157.398 576.667 163.05 576.667C172.119 576.667 177.033 579.378 180.218 585.057L180.224 585.068C180.355 585.301 180.489 585.54 180.626 585.783C184.883 597.572 178.895 601.558 174.331 604.596C171.98 606.161 170.007 607.474 170.007 609.473C170.007 610.121 169.967 610.669 169.931 611.172C169.768 613.412 169.67 614.769 173.432 620.227ZM170.233 628.078C171.058 630.237 170.428 632.466 168.826 633.057C167.223 633.647 165.255 632.376 164.429 630.217C163.604 628.059 164.234 625.83 165.836 625.239C167.439 624.648 169.407 625.92 170.233 628.078ZM172.144 631.395C172.061 633.298 173.262 634.893 174.826 634.959C176.391 635.025 177.726 633.537 177.809 631.634C177.892 629.732 176.691 628.136 175.127 628.07C173.563 628.004 172.227 629.493 172.144 631.395ZM170.414 634.761C168.795 634.294 167.376 634.852 166.868 635.189C165.193 636.303 165.266 637.798 165.352 639.575C165.414 640.842 165.482 642.252 164.931 643.77C163.869 646.688 165.726 648.02 166.787 648.32C167.6 648.674 169.568 648.937 170.935 647.156C171.306 646.674 171.583 646.265 171.821 645.914C172.682 644.645 173.036 644.123 175.458 643.563C178.492 642.862 178.899 641.569 179.167 640.718L179.182 640.669C179.451 639.82 179.151 636.414 175.995 636.417C173.934 636.418 173.048 635.961 172.119 635.48C171.624 635.225 171.117 634.963 170.414 634.761ZM163.758 642.343C164.276 640.893 163.214 639.205 161.384 638.574C159.555 637.943 157.651 638.607 157.132 640.058C156.613 641.508 157.676 643.196 159.505 643.827C161.335 644.458 163.239 643.794 163.758 642.343ZM164.102 636.207C162.948 637.449 160.606 637.195 158.872 635.64C157.137 634.086 156.666 631.819 157.82 630.578C158.974 629.336 161.316 629.59 163.05 631.145C164.785 632.699 165.256 634.966 164.102 636.207Z" fill="url(#paint8_linear_344_458)"/>
<path fill-rule="evenodd" clip-rule="evenodd" d="M23.8051 910.745C24.6306 912.904 24.0006 915.133 22.398 915.723C20.7954 916.314 18.827 915.043 18.0016 912.884C17.1761 910.725 17.806 908.496 19.4086 907.906C21.0112 907.315 22.9796 908.586 23.8051 910.745ZM25.7166 914.062C25.6336 915.964 26.8345 917.56 28.3988 917.626C29.9632 917.692 31.2986 916.203 31.3816 914.301C31.4646 912.399 30.2637 910.803 28.6993 910.737C27.135 910.671 25.7996 912.16 25.7166 914.062ZM23.9866 917.427C22.3675 916.961 20.9481 917.519 20.4407 917.856C18.7658 918.969 18.8384 920.464 18.9248 922.242C18.9864 923.509 19.0549 924.919 18.503 926.437C17.4418 929.355 19.2985 930.686 20.3595 930.987C21.1725 931.341 23.1404 931.603 24.5079 929.823C24.8781 929.34 25.1551 928.932 25.3932 928.581C26.2541 927.312 26.6084 926.789 29.0308 926.23C32.0643 925.529 32.4716 924.235 32.7393 923.385L32.7549 923.336C33.0232 922.487 32.724 919.081 29.5672 919.083C27.5068 919.085 26.6208 918.627 25.6912 918.147C25.1965 917.892 24.6895 917.63 23.9866 917.427ZM17.3301 925.01C17.8489 923.559 16.7863 921.872 14.9567 921.241C13.1271 920.61 11.2234 921.274 10.7046 922.724C10.1858 924.175 11.2484 925.862 13.0779 926.494C14.9075 927.125 16.8113 926.46 17.3301 925.01ZM17.6742 918.874C16.5202 920.115 14.1786 919.861 12.444 918.307C10.7094 916.752 10.2387 914.486 11.3927 913.244C12.5466 912.003 14.8882 912.257 16.6228 913.811C18.3574 915.366 18.8281 917.633 17.6742 918.874Z" fill="url(#paint9_linear_344_458)"/>
<path fill-rule="evenodd" clip-rule="evenodd" d="M41.8866 1146.39C43.4892 1145.8 44.1192 1143.57 43.2937 1141.41C42.4682 1139.25 40.4998 1137.98 38.8972 1138.57C37.2946 1139.16 36.6646 1141.39 37.4901 1143.55C38.3156 1145.71 40.284 1146.98 41.8866 1146.39ZM47.8874 1148.29C46.3231 1148.23 45.1222 1146.63 45.2051 1144.73C45.2881 1142.83 46.6235 1141.34 48.1879 1141.4C49.7522 1141.47 50.9531 1143.07 50.8701 1144.97C50.7872 1146.87 49.4517 1148.36 47.8874 1148.29ZM39.9293 1148.52C40.4366 1148.19 41.8561 1147.63 43.4751 1148.09C44.178 1148.3 44.6851 1148.56 45.1797 1148.81C46.1094 1149.29 46.9953 1149.75 49.0557 1149.75C52.2125 1149.75 52.5118 1153.15 52.2434 1154L52.2279 1154.05C51.9602 1154.9 51.5529 1156.2 48.5194 1156.9C46.097 1157.46 45.7432 1157.98 44.8824 1159.25C44.6442 1159.6 44.3667 1160.01 43.9965 1160.49C42.629 1162.27 40.6611 1162.01 39.8481 1161.65C38.7871 1161.35 36.9304 1160.02 37.9915 1157.1C38.5435 1155.59 38.4749 1154.18 38.4134 1152.91C38.327 1151.13 38.2543 1149.64 39.9293 1148.52ZM34.4453 1151.91C36.2749 1152.54 37.3374 1154.23 36.8186 1155.68C36.2998 1157.13 34.3961 1157.79 32.5665 1157.16C30.7369 1156.53 29.6743 1154.84 30.1931 1153.39C30.7119 1151.94 32.6157 1151.28 34.4453 1151.91ZM31.9326 1148.97C33.6672 1150.53 36.0088 1150.78 37.1627 1149.54C38.3167 1148.3 37.846 1146.03 36.1114 1144.48C34.3768 1142.92 32.0352 1142.67 30.8812 1143.91C29.7273 1145.15 30.198 1147.42 31.9326 1148.97Z" fill="url(#paint10_linear_344_458)"/>
<path fill-rule="evenodd" clip-rule="evenodd" d="M65.9819 1364.23C71.3307 1372.82 83.9429 1389.68 91.6013 1388.41C101.174 1386.81 115.596 1391 113.695 1401.69C113.609 1402.18 113.526 1402.65 113.445 1403.12L113.443 1403.13L113.443 1403.14L113.442 1403.14C111.725 1413.05 101.279 1417.38 91.7286 1415.02C82.1787 1412.66 80.9895 1417.97 79.6728 1423.84C78.2662 1430.12 70.3587 1436.48 64.6681 1435.97C51.4212 1434.79 50.2453 1422.46 52.9946 1413.75C53.7737 1411.28 54.4725 1409.06 54.5694 1407.41C55.0079 1399.91 54.4379 1396.58 49.2982 1388.35C48.816 1387.57 48.3699 1386.82 47.9408 1386.1C41.2345 1374.84 38.1995 1375.33 27.4578 1377.05C26.1062 1377.27 24.6323 1377.51 23.0139 1377.74C13.0649 1379.19 -1.80939 1360.87 12.0344 1347.64C15.7674 1344.08 21.2648 1343.39 25.407 1344.58C29.6475 1345.8 34.1431 1347.1 38.9771 1343.51C43.1364 1340.42 44.1248 1335.61 45.036 1331.17C45.9473 1326.73 49.9479 1320.67 55.6 1320.67C64.6683 1320.67 69.5828 1323.38 72.7678 1329.06L72.7738 1329.07C72.9048 1329.3 73.0385 1329.54 73.1759 1329.78C77.4323 1341.57 71.4444 1345.56 66.8807 1348.6C64.5298 1350.16 62.5569 1351.47 62.5569 1353.47C62.5569 1354.12 62.5171 1354.67 62.4806 1355.17C62.318 1357.41 62.2195 1358.77 65.9819 1364.23ZM62.7822 1372.08C63.6077 1374.24 62.9777 1376.47 61.3751 1377.06C59.7725 1377.65 57.8042 1376.38 56.9787 1374.22C56.1532 1372.06 56.7831 1369.83 58.3857 1369.24C59.9883 1368.65 61.9567 1369.92 62.7822 1372.08ZM64.6937 1375.4C64.6108 1377.3 65.8116 1378.89 67.376 1378.96C68.9403 1379.03 70.2757 1377.54 70.3587 1375.63C70.4417 1373.73 69.2408 1372.14 67.6765 1372.07C66.1121 1372 64.7767 1373.49 64.6937 1375.4ZM62.9637 1378.76C61.3446 1378.29 59.9251 1378.85 59.4178 1379.19C57.7429 1380.3 57.8155 1381.8 57.9019 1383.58C57.9635 1384.84 58.032 1386.25 57.4801 1387.77C56.4189 1390.69 58.2756 1392.02 59.3366 1392.32C60.1496 1392.67 62.1176 1392.94 63.485 1391.16C63.8553 1390.67 64.1323 1390.27 64.3704 1389.91C65.2313 1388.64 65.5856 1388.12 68.008 1387.56C71.0415 1386.86 71.4487 1385.57 71.7164 1384.72L71.732 1384.67C72.0004 1383.82 71.7011 1380.41 68.5443 1380.42C66.4839 1380.42 65.5979 1379.96 64.6683 1379.48C64.1736 1379.22 63.6666 1378.96 62.9637 1378.76ZM56.3072 1386.34C56.826 1384.89 55.7634 1383.21 53.9338 1382.57C52.1042 1381.94 50.2005 1382.61 49.6817 1384.06C49.1629 1385.51 50.2255 1387.2 52.0551 1387.83C53.8846 1388.46 55.7884 1387.79 56.3072 1386.34ZM56.6513 1380.21C55.4974 1381.45 53.1557 1381.19 51.4211 1379.64C49.6866 1378.09 49.2158 1375.82 50.3698 1374.58C51.5237 1373.34 53.8654 1373.59 55.6 1375.14C57.3346 1376.7 57.8052 1378.97 56.6513 1380.21Z" fill="url(#paint11_linear_344_458)"/>
<path fill-rule="evenodd" clip-rule="evenodd" d="M88.7043 811.742C81.046 813.018 68.4337 796.153 63.0849 787.56C59.3225 782.103 59.421 780.746 59.5836 778.505C59.6201 778.002 59.6599 777.455 59.6599 776.806C59.6599 774.808 61.6329 773.494 63.9838 771.929C68.5475 768.891 74.5354 764.905 70.2789 753.117C70.2112 752.997 70.1444 752.878 70.0783 752.76L69.8768 752.401L69.8708 752.391C66.6858 746.711 61.7713 744 52.703 744C47.0509 744 43.0503 750.068 42.139 754.504C41.2279 758.941 40.2394 763.754 36.0801 766.841C31.2461 770.429 26.7505 769.137 22.5101 767.918C18.3678 766.727 12.8705 767.411 9.13748 770.977C-4.7063 784.204 10.1679 802.523 20.117 801.075C21.7232 800.841 23.187 800.606 24.5304 800.39L24.5382 800.389L24.5476 800.387L24.5574 800.386L24.5609 800.385C35.3025 798.659 38.3375 798.171 45.0438 809.436C45.4729 810.157 45.919 810.906 46.4012 811.679C51.541 819.916 52.111 823.245 51.6725 830.74C51.5756 832.395 50.8768 834.61 50.0976 837.08C47.3483 845.795 48.5242 858.12 61.7712 859.305C67.4618 859.813 75.3692 853.454 76.7758 847.177C78.0926 841.3 79.2817 835.993 88.8317 838.353C98.3816 840.714 108.828 836.379 110.545 826.473L110.546 826.47L110.546 826.466L110.548 826.459C110.629 825.988 110.712 825.51 110.798 825.025C112.699 814.334 98.2772 810.147 88.7043 811.742ZM58.4782 800.39C60.0808 799.799 60.7108 797.571 59.8853 795.412C59.0598 793.253 57.0914 791.982 55.4888 792.572C53.8862 793.163 53.2562 795.392 54.0817 797.551C54.9072 799.71 56.8756 800.981 58.4782 800.39ZM64.479 802.293C62.9146 802.227 61.7138 800.631 61.7968 798.729C61.8797 796.826 63.2151 795.338 64.7795 795.404C66.3438 795.47 67.5447 797.065 67.4617 798.968C67.3787 800.87 66.0433 802.359 64.479 802.293ZM56.5209 802.523C57.0282 802.185 58.4477 801.628 60.0668 802.094C60.7696 802.296 61.2767 802.558 61.7714 802.814C62.701 803.294 63.5869 803.752 65.6473 803.75C68.8042 803.748 69.1034 807.153 68.835 808.002L68.8195 808.052C68.5518 808.902 68.1445 810.196 65.111 810.896C62.6886 811.456 62.3348 811.978 61.4739 813.247C61.2358 813.598 60.9583 814.007 60.5881 814.489C59.2206 816.27 57.2527 816.007 56.4396 815.654C55.3786 815.353 53.522 814.022 54.5832 811.104C55.1351 809.586 55.0666 808.175 55.005 806.909C54.9186 805.131 54.846 803.636 56.5209 802.523ZM51.0369 805.907C52.8665 806.539 53.9291 808.226 53.4102 809.677C52.8914 811.127 50.9877 811.791 49.1581 811.16C47.3285 810.529 46.2659 808.842 46.7847 807.391C47.3035 805.94 49.2073 805.276 51.0369 805.907ZM48.5242 802.974C50.2588 804.528 52.6004 804.782 53.7543 803.541C54.9083 802.299 54.4376 800.033 52.703 798.478C50.9684 796.923 48.6268 796.67 47.4728 797.911C46.3189 799.152 46.7896 801.419 48.5242 802.974Z" fill="url(#paint12_linear_344_458)"/>
<path fill-rule="evenodd" clip-rule="evenodd" d="M82.5734 1018.23C87.9223 1026.82 100.535 1043.68 108.193 1042.41C117.766 1040.81 132.187 1045 130.287 1055.69C130.201 1056.18 130.118 1056.65 130.037 1057.12L130.035 1057.13L130.034 1057.14L130.034 1057.14C128.317 1067.05 117.87 1071.38 108.32 1069.02C98.7703 1066.66 97.5811 1071.97 96.2644 1077.84C94.8578 1084.12 86.9503 1090.48 81.2597 1089.97C68.0128 1088.79 66.8369 1076.46 69.5862 1067.75C70.3654 1065.28 71.0642 1063.06 71.161 1061.41C71.5995 1053.91 71.0296 1050.58 65.8898 1042.35C65.4076 1041.57 64.9615 1040.82 64.5324 1040.1C57.8261 1028.84 54.7911 1029.33 44.0494 1031.05L44.0459 1031.05L44.0361 1031.05L44.0268 1031.06L44.0189 1031.06C42.6755 1031.27 41.2118 1031.51 39.6056 1031.74C29.6565 1033.19 14.7822 1014.87 28.626 1001.64C32.359 998.078 37.8564 997.394 41.9987 998.584C46.2391 999.804 50.7348 1001.1 55.5687 997.508C59.728 994.421 60.7164 989.608 61.6276 985.171C62.5388 980.734 66.5395 974.667 72.1916 974.667C81.2599 974.667 86.1743 977.378 89.3593 983.057L89.3654 983.068C89.4964 983.302 89.6301 983.54 89.7675 983.783C94.0239 995.572 88.036 999.558 83.4723 1002.6C81.1214 1004.16 79.1484 1005.47 79.1484 1007.47C79.1484 1008.12 79.1087 1008.67 79.0722 1009.17C78.9096 1011.41 78.8111 1012.77 82.5734 1018.23ZM79.3738 1026.08C80.1993 1028.24 79.5693 1030.47 77.9667 1031.06C76.3641 1031.65 74.3958 1030.38 73.5703 1028.22C72.7448 1026.06 73.3748 1023.83 74.9774 1023.24C76.58 1022.65 78.5483 1023.92 79.3738 1026.08ZM81.2853 1029.4C81.2023 1031.3 82.4032 1032.89 83.9676 1032.96C85.5319 1033.03 86.8673 1031.54 86.9503 1029.63C87.0333 1027.73 85.8324 1026.14 84.2681 1026.07C82.7037 1026 81.3683 1027.49 81.2853 1029.4ZM79.5553 1032.76C77.9362 1032.29 76.5168 1032.85 76.0094 1033.19C74.3345 1034.3 74.4071 1035.8 74.4935 1037.58C74.5551 1038.84 74.6237 1040.25 74.0717 1041.77C73.0106 1044.69 74.8672 1046.02 75.9282 1046.32C76.7412 1046.67 78.7092 1046.94 80.0767 1045.16C80.4469 1044.67 80.7238 1044.27 80.962 1043.91C81.8228 1042.65 82.1772 1042.12 84.5996 1041.56C87.6331 1040.86 88.0403 1039.57 88.308 1038.72L88.3235 1038.67C88.5919 1037.82 88.2927 1034.41 85.1359 1034.42C83.0754 1034.42 82.1895 1033.96 81.2599 1033.48C80.7652 1033.23 80.2582 1032.96 79.5553 1032.76ZM72.8988 1040.34C73.4176 1038.89 72.355 1037.21 70.5254 1036.57C68.6958 1035.94 66.7921 1036.61 66.2733 1038.06C65.7545 1039.51 66.8171 1041.2 68.6467 1041.83C70.4763 1042.46 72.38 1041.79 72.8988 1040.34ZM73.2429 1034.21C72.089 1035.45 69.7474 1035.19 68.0128 1033.64C66.2782 1032.09 65.8075 1029.82 66.9614 1028.58C68.1154 1027.34 70.457 1027.59 72.1916 1029.14C73.9262 1030.7 74.3969 1032.97 73.2429 1034.21Z" fill="url(#paint13_linear_344_458)"/>
<path fill-rule="evenodd" clip-rule="evenodd" d="M127.681 1273.08C120.023 1274.35 107.411 1257.49 102.062 1248.89C98.2997 1243.44 98.3981 1242.08 98.5607 1239.84C98.5972 1239.34 98.637 1238.79 98.637 1238.14C98.637 1236.14 100.61 1234.83 102.961 1233.26C107.525 1230.22 113.513 1226.24 109.256 1214.45C109.119 1214.21 108.985 1213.97 108.854 1213.73L108.848 1213.72C105.663 1208.04 100.748 1205.33 91.6801 1205.33C86.028 1205.33 82.0274 1211.4 81.1161 1215.84C80.205 1220.27 79.2166 1225.09 75.0573 1228.17C70.2233 1231.76 65.7276 1230.47 61.4872 1229.25C57.3449 1228.06 51.8476 1228.74 48.1146 1232.31C34.2708 1245.54 49.145 1263.86 59.0941 1262.41C60.7125 1262.17 62.1863 1261.94 63.538 1261.72C74.2796 1259.99 77.3147 1259.5 84.021 1270.77C84.4501 1271.49 84.8961 1272.24 85.3784 1273.01C90.5181 1281.25 91.0881 1284.58 90.6495 1292.07C90.5527 1293.73 89.8539 1295.94 89.0747 1298.41C86.3254 1307.13 87.5013 1319.45 100.748 1320.64C106.439 1321.15 114.346 1314.79 115.753 1308.51C117.07 1302.63 118.259 1297.33 127.809 1299.69C137.359 1302.05 147.806 1297.71 149.522 1287.81L149.523 1287.8L149.523 1287.8L149.525 1287.79C149.607 1287.32 149.689 1286.84 149.776 1286.36C151.676 1275.67 137.254 1271.48 127.681 1273.08ZM97.4553 1261.72C99.0579 1261.13 99.6879 1258.9 98.8624 1256.75C98.0369 1254.59 96.0686 1253.32 94.4659 1253.91C92.8633 1254.5 92.2333 1256.73 93.0588 1258.88C93.8843 1261.04 95.8527 1262.31 97.4553 1261.72ZM103.456 1263.63C101.892 1263.56 100.691 1261.96 100.774 1260.06C100.857 1258.16 102.192 1256.67 103.757 1256.74C105.321 1256.8 106.522 1258.4 106.439 1260.3C106.356 1262.2 105.021 1263.69 103.456 1263.63ZM95.498 1263.86C96.0053 1263.52 97.4248 1262.96 99.0439 1263.43C99.7467 1263.63 100.254 1263.89 100.748 1264.15C101.678 1264.63 102.564 1265.08 104.624 1265.08C107.781 1265.08 108.08 1268.49 107.812 1269.34L107.797 1269.38C107.529 1270.24 107.122 1271.53 104.088 1272.23C101.666 1272.79 101.312 1273.31 100.451 1274.58C100.213 1274.93 99.9354 1275.34 99.5652 1275.82C98.1977 1277.6 96.2298 1277.34 95.4168 1276.99C94.3558 1276.69 92.4991 1275.36 93.5602 1272.44C94.1122 1270.92 94.0437 1269.51 93.9821 1268.24C93.8957 1266.46 93.8231 1264.97 95.498 1263.86ZM90.014 1267.24C91.8436 1267.87 92.9061 1269.56 92.3873 1271.01C91.8685 1272.46 89.9648 1273.12 88.1352 1272.49C86.3056 1271.86 85.2431 1270.17 85.7619 1268.72C86.2807 1267.27 88.1844 1266.61 90.014 1267.24ZM87.5013 1264.31C89.2359 1265.86 91.5776 1266.12 92.7315 1264.87C93.8855 1263.63 93.4146 1261.37 91.6801 1259.81C89.9455 1258.26 87.6039 1258 86.45 1259.24C85.296 1260.49 85.7667 1262.75 87.5013 1264.31Z" fill="url(#paint14_linear_344_458)"/>
<path fill-rule="evenodd" clip-rule="evenodd" d="M134.455 902.893C139.804 911.486 152.416 928.352 160.075 927.075C169.647 925.48 184.069 929.667 182.169 940.358C182.128 940.589 182.087 940.818 182.048 941.045C182.004 941.295 181.961 941.543 181.919 941.789L181.917 941.8L181.916 941.804L181.916 941.806C180.199 951.712 169.752 956.047 160.202 953.687C150.652 951.326 149.463 956.634 148.146 962.51C146.739 968.788 138.832 975.147 133.141 974.638C119.894 973.454 118.719 961.129 121.468 952.413C122.247 949.943 122.946 947.728 123.043 946.073C123.481 938.578 122.911 935.249 117.771 927.012C117.289 926.239 116.843 925.49 116.414 924.769C109.708 913.504 106.673 913.992 95.9312 915.719L95.9277 915.719L95.9186 915.721C94.5704 915.937 93.1007 916.173 91.4873 916.408C81.5382 917.856 66.6639 899.537 80.5077 886.311C84.2407 882.744 89.738 882.06 93.8803 883.251C98.1208 884.47 102.616 885.763 107.45 882.175C111.61 879.088 112.598 874.275 113.509 869.838C114.42 865.401 118.421 859.333 124.073 859.333C133.142 859.333 138.056 862.045 141.241 867.724L141.247 867.735C141.378 867.968 141.512 868.207 141.649 868.45C145.906 880.238 139.918 884.224 135.354 887.262C133.003 888.827 131.03 890.141 131.03 892.14C131.03 892.788 130.99 893.336 130.954 893.839C130.791 896.079 130.693 897.436 134.455 902.893ZM131.255 910.745C132.081 912.904 131.451 915.133 129.848 915.723C128.246 916.314 126.277 915.043 125.452 912.884C124.626 910.725 125.256 908.496 126.859 907.906C128.462 907.315 130.43 908.586 131.255 910.745ZM133.167 914.062C133.084 915.964 134.285 917.56 135.849 917.626C137.414 917.692 138.749 916.203 138.832 914.301C138.915 912.399 137.714 910.803 136.15 910.737C134.585 910.671 133.25 912.16 133.167 914.062ZM131.437 917.427C129.818 916.961 128.398 917.519 127.891 917.856C126.216 918.969 126.289 920.464 126.375 922.242C126.437 923.509 126.505 924.919 125.953 926.437C124.892 929.355 126.749 930.686 127.81 930.987C128.623 931.341 130.591 931.603 131.958 929.823C132.329 929.34 132.606 928.932 132.844 928.581C133.705 927.312 134.059 926.789 136.481 926.23C139.515 925.529 139.922 924.235 140.19 923.385L140.205 923.336C140.474 922.487 140.174 919.081 137.018 919.083C134.957 919.085 134.071 918.627 133.142 918.147C132.647 917.892 132.14 917.63 131.437 917.427ZM124.781 925.01C125.299 923.559 124.237 921.872 122.407 921.241C120.578 920.61 118.674 921.274 118.155 922.724C117.636 924.175 118.699 925.862 120.528 926.494C122.358 927.125 124.262 926.46 124.781 925.01ZM125.125 918.874C123.971 920.115 121.629 919.861 119.894 918.307C118.16 916.752 117.689 914.486 118.843 913.244C119.997 912.003 122.339 912.257 124.073 913.811C125.808 915.366 126.279 917.633 125.125 918.874Z" fill="url(#paint15_linear_344_458)"/>
<path fill-rule="evenodd" clip-rule="evenodd" d="M179.563 1157.74C171.905 1159.02 159.293 1142.15 153.944 1133.56C150.181 1128.1 150.28 1126.75 150.442 1124.51C150.479 1124 150.519 1123.45 150.519 1122.81C150.519 1120.81 152.492 1119.49 154.843 1117.93C159.406 1114.89 165.394 1110.9 161.138 1099.12C161 1098.87 160.867 1098.63 160.736 1098.4L160.73 1098.39C157.545 1092.71 152.63 1090 143.562 1090C137.91 1090 133.909 1096.07 132.998 1100.5C132.087 1104.94 131.098 1109.75 126.939 1112.84C122.105 1116.43 117.609 1115.14 113.369 1113.92C109.227 1112.73 103.729 1113.41 99.9963 1116.98C86.1525 1130.2 101.027 1148.52 110.976 1147.07C112.594 1146.84 114.068 1146.6 115.42 1146.39C126.161 1144.66 129.196 1144.17 135.903 1155.44C136.332 1156.16 136.778 1156.91 137.26 1157.68C142.4 1165.92 142.97 1169.24 142.531 1176.74C142.434 1178.39 141.736 1180.61 140.956 1183.08C138.207 1191.8 139.383 1204.12 152.63 1205.3C158.321 1205.81 166.228 1199.45 167.635 1193.18C168.951 1187.3 170.141 1181.99 179.69 1184.35C189.24 1186.71 199.687 1182.38 201.404 1172.47L201.404 1172.47L201.405 1172.47L201.407 1172.45C201.489 1171.98 201.571 1171.51 201.657 1171.02C203.558 1160.33 189.136 1156.15 179.563 1157.74ZM149.337 1146.39C150.94 1145.8 151.57 1143.57 150.744 1141.41C149.919 1139.25 147.95 1137.98 146.348 1138.57C144.745 1139.16 144.115 1141.39 144.94 1143.55C145.766 1145.71 147.734 1146.98 149.337 1146.39ZM155.338 1148.29C153.773 1148.23 152.573 1146.63 152.656 1144.73C152.739 1142.83 154.074 1141.34 155.638 1141.4C157.203 1141.47 158.404 1143.07 158.321 1144.97C158.238 1146.87 156.902 1148.36 155.338 1148.29ZM147.38 1148.52C147.887 1148.19 149.306 1147.63 150.926 1148.09C151.628 1148.3 152.135 1148.56 152.63 1148.81C153.56 1149.29 154.446 1149.75 156.506 1149.75C159.663 1149.75 159.962 1153.15 159.694 1154L159.678 1154.05C159.411 1154.9 159.003 1156.2 155.97 1156.9C153.547 1157.46 153.194 1157.98 152.333 1159.25C152.095 1159.6 151.817 1160.01 151.447 1160.49C150.079 1162.27 148.112 1162.01 147.299 1161.65C146.238 1161.35 144.381 1160.02 145.442 1157.1C145.994 1155.59 145.925 1154.18 145.864 1152.91C145.777 1151.13 145.705 1149.64 147.38 1148.52ZM141.896 1151.91C143.725 1152.54 144.788 1154.23 144.269 1155.68C143.75 1157.13 141.846 1157.79 140.017 1157.16C138.187 1156.53 137.125 1154.84 137.644 1153.39C138.162 1151.94 140.066 1151.28 141.896 1151.91ZM139.383 1148.97C141.118 1150.53 143.459 1150.78 144.613 1149.54C145.767 1148.3 145.296 1146.03 143.562 1144.48C141.827 1142.92 139.486 1142.67 138.332 1143.91C137.178 1145.15 137.648 1147.42 139.383 1148.97Z" fill="url(#paint16_linear_344_458)"/>
<path fill-rule="evenodd" clip-rule="evenodd" d="M173.432 1364.23C178.781 1372.82 191.393 1389.68 199.052 1388.41C208.625 1386.81 223.046 1391 221.146 1401.69C221.06 1402.18 220.977 1402.65 220.896 1403.12L220.894 1403.13L220.893 1403.14L220.893 1403.14C219.176 1413.05 208.729 1417.38 199.179 1415.02C189.629 1412.66 188.44 1417.97 187.123 1423.84C185.717 1430.12 177.809 1436.48 172.119 1435.97C158.872 1434.79 157.696 1422.46 160.445 1413.75C161.224 1411.28 161.923 1409.06 162.02 1407.41C162.458 1399.91 161.888 1396.58 156.749 1388.35C156.266 1387.57 155.82 1386.82 155.391 1386.1C148.685 1374.84 145.65 1375.33 134.908 1377.05C133.557 1377.27 132.083 1377.51 130.464 1377.74C120.515 1379.19 105.641 1360.87 119.485 1347.64C123.218 1344.08 128.715 1343.39 132.857 1344.58C137.098 1345.8 141.594 1347.1 146.427 1343.51C150.587 1340.42 151.575 1335.61 152.486 1331.17C153.398 1326.73 157.398 1320.67 163.05 1320.67C172.119 1320.67 177.033 1323.38 180.218 1329.06L180.224 1329.07C180.355 1329.3 180.489 1329.54 180.626 1329.78C184.883 1341.57 178.895 1345.56 174.331 1348.6C171.98 1350.16 170.007 1351.47 170.007 1353.47C170.007 1354.12 169.967 1354.67 169.931 1355.17C169.768 1357.41 169.67 1358.77 173.432 1364.23ZM170.233 1372.08C171.058 1374.24 170.428 1376.47 168.826 1377.06C167.223 1377.65 165.255 1376.38 164.429 1374.22C163.604 1372.06 164.234 1369.83 165.836 1369.24C167.439 1368.65 169.407 1369.92 170.233 1372.08ZM172.144 1375.4C172.061 1377.3 173.262 1378.89 174.826 1378.96C176.391 1379.03 177.726 1377.54 177.809 1375.63C177.892 1373.73 176.691 1372.14 175.127 1372.07C173.563 1372 172.227 1373.49 172.144 1375.4ZM170.414 1378.76C168.795 1378.29 167.376 1378.85 166.868 1379.19C165.193 1380.3 165.266 1381.8 165.352 1383.58C165.414 1384.84 165.482 1386.25 164.931 1387.77C163.869 1390.69 165.726 1392.02 166.787 1392.32C167.6 1392.67 169.568 1392.94 170.935 1391.16C171.306 1390.67 171.583 1390.27 171.821 1389.91C172.682 1388.64 173.036 1388.12 175.458 1387.56C178.492 1386.86 178.899 1385.57 179.167 1384.72L179.182 1384.67C179.451 1383.82 179.151 1380.41 175.995 1380.42C173.934 1380.42 173.048 1379.96 172.119 1379.48C171.624 1379.22 171.117 1378.96 170.414 1378.76ZM163.758 1386.34C164.276 1384.89 163.214 1383.21 161.384 1382.57C159.555 1381.94 157.651 1382.61 157.132 1384.06C156.613 1385.51 157.676 1387.2 159.505 1387.83C161.335 1388.46 163.239 1387.79 163.758 1386.34ZM164.102 1380.21C162.948 1381.45 160.606 1381.19 158.872 1379.64C157.137 1378.09 156.666 1375.82 157.82 1374.58C158.974 1373.34 161.316 1373.59 163.05 1375.14C164.785 1376.7 165.256 1378.97 164.102 1380.21Z" fill="url(#paint17_linear_344_458)"/>
<defs>
<linearGradient id="paint0_linear_344_458" x1="-311.59" y1="346" x2="221.316" y2="346" gradientUnits="userSpaceOnUse">
<stop offset="0.545" stop-color="#80BFBB" stop-opacity="0.15"/>
<stop offset="1" stop-color="#80BFBB" stop-opacity="0"/>
</linearGradient>
<linearGradient id="paint1_linear_344_458" x1="-311.59" y1="346" x2="221.316" y2="346" gradientUnits="userSpaceOnUse">
<stop offset="0.545" stop-color="#80BFBB" stop-opacity="0.15"/>
<stop offset="1" stop-color="#80BFBB" stop-opacity="0"/>
</linearGradient>
<linearGradient id="paint2_linear_344_458" x1="-311.59" y1="346" x2="221.316" y2="346" gradientUnits="userSpaceOnUse">
<stop offset="0.545" stop-color="#80BFBB" stop-opacity="0.15"/>
<stop offset="1" stop-color="#80BFBB" stop-opacity="0"/>
</linearGradient>
<linearGradient id="paint3_linear_344_458" x1="-311.59" y1="346" x2="221.316" y2="346" gradientUnits="userSpaceOnUse">
<stop offset="0.545" stop-color="#80BFBB" stop-opacity="0.15"/>
<stop offset="1" stop-color="#80BFBB" stop-opacity="0"/>
</linearGradient>
<linearGradient id="paint4_linear_344_458" x1="-311.59" y1="346" x2="221.316" y2="346" gradientUnits="userSpaceOnUse">
<stop offset="0.545" stop-color="#80BFBB" stop-opacity="0.15"/>
<stop offset="1" stop-color="#80BFBB" stop-opacity="0"/>
</linearGradient>
<linearGradient id="paint5_linear_344_458" x1="-311.59" y1="346" x2="221.316" y2="346" gradientUnits="userSpaceOnUse">
<stop offset="0.545" stop-color="#80BFBB" stop-opacity="0.15"/>
<stop offset="1" stop-color="#80BFBB" stop-opacity="0"/>
</linearGradient>
<linearGradient id="paint6_linear_344_458" x1="-311.59" y1="346" x2="221.316" y2="346" gradientUnits="userSpaceOnUse">
<stop offset="0.545" stop-color="#80BFBB" stop-opacity="0.15"/>
<stop offset="1" stop-color="#80BFBB" stop-opacity="0"/>
</linearGradient>
<linearGradient id="paint7_linear_344_458" x1="-311.59" y1="346" x2="221.316" y2="346" gradientUnits="userSpaceOnUse">
<stop offset="0.545" stop-color="#80BFBB" stop-opacity="0.15"/>
<stop offset="1" stop-color="#80BFBB" stop-opacity="0"/>
</linearGradient>
<linearGradient id="paint8_linear_344_458" x1="-311.59" y1="346" x2="221.316" y2="346" gradientUnits="userSpaceOnUse">
<stop offset="0.545" stop-color="#80BFBB" stop-opacity="0.15"/>
<stop offset="1" stop-color="#80BFBB" stop-opacity="0"/>
</linearGradient>
<linearGradient id="paint9_linear_344_458" x1="-311.59" y1="1090" x2="221.316" y2="1090" gradientUnits="userSpaceOnUse">
<stop offset="0.545" stop-color="#80BFBB" stop-opacity="0.15"/>
<stop offset="1" stop-color="#80BFBB" stop-opacity="0"/>
</linearGradient>
<linearGradient id="paint10_linear_344_458" x1="-311.59" y1="1090" x2="221.316" y2="1090" gradientUnits="userSpaceOnUse">
<stop offset="0.545" stop-color="#80BFBB" stop-opacity="0.15"/>
<stop offset="1" stop-color="#80BFBB" stop-opacity="0"/>
</linearGradient>
<linearGradient id="paint11_linear_344_458" x1="-311.59" y1="1090" x2="221.316" y2="1090" gradientUnits="userSpaceOnUse">
<stop offset="0.545" stop-color="#80BFBB" stop-opacity="0.15"/>
<stop offset="1" stop-color="#80BFBB" stop-opacity="0"/>
</linearGradient>
<linearGradient id="paint12_linear_344_458" x1="-311.59" y1="1090" x2="221.316" y2="1090" gradientUnits="userSpaceOnUse">
<stop offset="0.545" stop-color="#80BFBB" stop-opacity="0.15"/>
<stop offset="1" stop-color="#80BFBB" stop-opacity="0"/>
</linearGradient>
<linearGradient id="paint13_linear_344_458" x1="-311.59" y1="1090" x2="221.316" y2="1090" gradientUnits="userSpaceOnUse">
<stop offset="0.545" stop-color="#80BFBB" stop-opacity="0.15"/>
<stop offset="1" stop-color="#80BFBB" stop-opacity="0"/>
</linearGradient>
<linearGradient id="paint14_linear_344_458" x1="-311.59" y1="1090" x2="221.316" y2="1090" gradientUnits="userSpaceOnUse">
<stop offset="0.545" stop-color="#80BFBB" stop-opacity="0.15"/>
<stop offset="1" stop-color="#80BFBB" stop-opacity="0"/>
</linearGradient>
<linearGradient id="paint15_linear_344_458" x1="-311.59" y1="1090" x2="221.316" y2="1090" gradientUnits="userSpaceOnUse">
<stop offset="0.545" stop-color="#80BFBB" stop-opacity="0.15"/>
<stop offset="1" stop-color="#80BFBB" stop-opacity="0"/>
</linearGradient>
<linearGradient id="paint16_linear_344_458" x1="-311.59" y1="1090" x2="221.316" y2="1090" gradientUnits="userSpaceOnUse">
<stop offset="0.545" stop-color="#80BFBB" stop-opacity="0.15"/>
<stop offset="1" stop-color="#80BFBB" stop-opacity="0"/>
</linearGradient>
<linearGradient id="paint17_linear_344_458" x1="-311.59" y1="1090" x2="221.316" y2="1090" gradientUnits="userSpaceOnUse">
<stop offset="0.545" stop-color="#80BFBB" stop-opacity="0.15"/>
<stop offset="1" stop-color="#80BFBB" stop-opacity="0"/>
</linearGradient>
</defs>
</svg>
