<svg width="297" height="352" viewBox="0 0 297 352" fill="none" xmlns="http://www.w3.org/2000/svg">
<g filter="url(#filter0_f_120_249)">
<ellipse cx="159" cy="192.25" rx="128.306" ry="129.749" fill="#CF8C3D"/>
</g>
<path d="M99.8105 294.137C48.5843 292.94 45.8701 248.06 48.5843 230.179C48.7502 229.085 52.0101 217.643 52.2505 216.705C45.7575 215.513 39.6231 202.594 35.9156 187.89C31.2813 169.509 38.675 89.8302 82.1221 97.8146C88.5219 99.3476 92.4616 93.5689 96.169 101.943C116.24 89.2575 140.365 83.7517 155.919 82.5515C178.76 80.4223 193.601 87.2089 196.635 91.2843C200.883 84.3257 212.359 74.8998 236.524 89.5378C266.73 107.835 298.343 125.717 290.895 165.223C283.447 204.729 274.757 232.508 262.178 230.179C271.364 253.716 246.703 294.137 210.538 294.137C207.05 294.137 203.623 293.972 200.277 293.671C197.231 300.285 189.972 302.116 186.724 302.204C188.441 310.114 184.166 314.639 180.829 316.177C172.326 318.153 164.932 316.51 158.733 313.032C148.719 313.615 125.299 310.413 111.727 292.94C108.102 293.407 104.149 294.238 99.8105 294.137Z" fill="#F5EDF0"/>
<path d="M155.919 82.5515C178.76 80.4223 193.601 87.2089 196.635 91.2843C200.883 84.3257 212.359 74.8998 236.524 89.5378C266.73 107.835 298.343 125.717 290.895 165.223C283.447 204.729 274.757 232.508 262.178 230.179M155.919 82.5515C140.365 83.7517 116.24 89.2575 96.169 101.943M155.919 82.5515C185.546 132.87 163.202 209.719 118.513 230.179C82.7625 246.547 59.7959 226.575 52.7814 214.543M262.178 230.179C271.364 253.716 246.703 294.137 210.538 294.137C207.05 294.137 203.623 293.972 200.277 293.671M262.178 230.179C252.386 226.88 232.419 213.096 230.896 184.352C228.993 148.422 222.29 96.6073 207.559 103.427M137.382 286.884C140.323 294.633 147.604 306.789 158.733 313.032M137.382 286.884C131.778 289.223 123.544 291.417 111.727 292.94M137.382 286.884C143.248 284.436 146.233 281.828 147.428 279.665M180.829 290.357C165.514 286.529 153.596 280.675 148.057 277.087C148.082 277.312 148.083 277.549 148.057 277.799M180.829 290.357C184.208 294.928 185.999 298.868 186.724 302.205M180.829 290.357C186.847 291.861 193.39 293.053 200.277 293.671M186.724 302.205C188.441 310.114 184.166 314.639 180.829 316.177C172.326 318.153 164.932 316.51 158.733 313.032M186.724 302.205C189.972 302.116 197.231 300.285 200.277 293.671M158.733 313.032C148.719 313.615 125.299 310.413 111.727 292.94M111.727 292.94C108.102 293.407 104.149 294.238 99.8105 294.137C48.5843 292.94 45.8701 248.06 48.5843 230.179C48.7502 229.085 52.0101 217.643 52.2505 216.705M147.428 279.665C153.459 282.743 165.684 290.228 166.347 295.551M147.428 279.665C147.799 278.994 147.998 278.366 148.057 277.799M52.2505 216.705C45.7575 215.513 39.6231 202.594 35.9156 187.89C31.2813 169.509 38.675 89.8302 82.1221 97.8146C88.5219 99.3476 92.4616 93.5689 96.169 101.943M52.2505 216.705C53.0567 213.56 51.2166 221.167 52.7814 214.543M96.169 101.943C78.2229 113.285 63.5182 130.367 61.0805 155.242C57.7568 189.16 54.9377 205.414 52.7814 214.543M148.057 277.799C139.699 270.683 130.099 260.037 130.099 253.716C130.237 249.863 130.546 243.02 144.913 243.819C162.871 244.817 165.941 246.217 166.347 252.385C167.008 262.449 151.202 265.859 148.057 277.799Z" stroke="#252525" stroke-width="3.5408" stroke-linecap="round"/>
<path d="M148.06 277.087C153.598 280.675 165.516 286.529 180.831 290.357C186.849 291.861 193.392 293.053 200.279 293.671C197.233 300.285 189.975 302.116 186.726 302.204C188.443 310.113 184.168 314.639 180.831 316.177C172.328 318.153 164.935 316.51 158.735 313.032C148.722 313.615 125.302 310.413 111.729 292.94C123.546 291.417 131.78 289.223 137.384 286.884C143.25 284.436 146.235 281.828 147.431 279.665C147.802 278.994 148 278.366 148.06 277.799C148.086 277.549 148.085 277.311 148.06 277.087Z" fill="#F5EDF0"/>
<path d="M137.384 286.884C140.325 294.633 147.606 306.789 158.735 313.032M137.384 286.884C131.78 289.223 123.546 291.417 111.729 292.94C125.302 310.413 148.722 313.615 158.735 313.032M137.384 286.884C143.25 284.436 146.235 281.828 147.431 279.665M180.831 290.357C165.516 286.529 153.598 280.675 148.06 277.087C148.085 277.311 148.086 277.549 148.06 277.799C148 278.366 147.802 278.994 147.431 279.665M180.831 290.357C184.21 294.928 186.001 298.867 186.726 302.204M180.831 290.357C186.849 291.861 193.392 293.053 200.279 293.671C197.233 300.285 189.975 302.116 186.726 302.204M186.726 302.204C188.443 310.113 184.168 314.639 180.831 316.177C172.328 318.153 164.935 316.51 158.735 313.032M147.431 279.665C153.461 282.743 165.687 290.228 166.349 295.551" stroke="#252525" stroke-width="3.5408" stroke-linecap="round"/>
<path d="M180.83 290.357C165.515 286.529 153.597 280.675 148.058 277.087C148.084 277.311 148.084 277.549 148.058 277.799C147.999 278.366 147.8 278.994 147.429 279.665C146.234 281.828 143.249 284.436 137.383 286.884C140.324 294.633 147.605 306.789 158.734 313.032C164.933 316.51 172.974 319.799 180.83 316.177C184.935 314.284 188.442 310.113 186.725 302.204C186 298.867 184.209 294.928 180.83 290.357Z" fill="#C54432"/>
<path d="M147.429 279.665C146.234 281.828 143.249 284.436 137.383 286.884C140.324 294.633 147.605 306.789 158.734 313.032C164.933 316.51 172.974 319.799 180.83 316.177C184.935 314.284 188.442 310.113 186.725 302.204C186 298.867 184.209 294.928 180.83 290.357C165.515 286.529 153.597 280.675 148.058 277.087C148.084 277.311 148.084 277.549 148.058 277.799C147.999 278.366 147.8 278.994 147.429 279.665ZM147.429 279.665C153.46 282.743 165.686 290.228 166.348 295.551" stroke="#252525" stroke-width="3.5408" stroke-linecap="round"/>
<path d="M130.101 253.716C130.101 260.037 139.701 270.683 148.059 277.799C151.204 265.859 167.01 262.449 166.348 252.386C165.943 246.217 162.873 244.817 144.914 243.819C130.548 243.021 130.239 249.863 130.101 253.716Z" fill="#252525"/>
<path d="M148.059 277.087C148.084 277.312 148.085 277.549 148.059 277.799M148.059 277.799C139.701 270.683 130.101 260.037 130.101 253.716C130.239 249.863 130.548 243.021 144.914 243.819C162.873 244.817 165.943 246.217 166.348 252.386C167.01 262.449 151.204 265.859 148.059 277.799Z" stroke="#252525" stroke-width="3.5408" stroke-linecap="round"/>
<path d="M262.18 230.179C252.388 226.88 232.421 213.096 230.899 184.352C228.995 148.422 222.292 96.6071 207.561 103.427C201.52 106.224 195.065 97.1893 196.058 90.8684C193.024 86.793 178.762 80.4221 155.921 82.5513C185.548 132.869 163.204 209.719 118.515 230.179C82.7645 246.547 59.7979 226.575 52.7834 214.543C51.2186 221.167 51.9583 217.552 51.152 220.697C44.659 219.505 30.7462 213.445 27.0387 198.74C22.4044 180.36 32.473 105.839 73.6033 93.8625C83.3898 91.0128 92.4635 93.5687 96.171 101.942C116.242 89.2573 140.367 83.7515 155.921 82.5513C178.762 80.4221 193.024 86.793 196.058 90.8684C200.306 83.9098 212.361 74.8996 236.526 89.5376C266.732 107.835 298.345 125.717 290.897 165.223C283.449 204.729 274.759 232.508 262.18 230.179Z" fill="#73482F"/>
<path d="M155.921 82.5513C178.762 80.4221 193.024 86.793 196.058 90.8684M155.921 82.5513C140.367 83.7515 116.242 89.2573 96.171 101.942M155.921 82.5513C185.548 132.869 163.204 209.719 118.515 230.179C82.7645 246.547 59.7979 226.575 52.7834 214.543M48.5862 230.179C48.7522 229.085 50.9116 221.635 51.152 220.697M196.058 90.8684C200.306 83.9098 212.361 74.8996 236.526 89.5376C266.732 107.835 298.345 125.717 290.897 165.223C283.449 204.729 274.759 232.508 262.18 230.179C252.388 226.88 232.421 213.096 230.899 184.352C228.995 148.422 222.292 96.6071 207.561 103.427C201.52 106.224 195.065 97.1893 196.058 90.8684ZM51.152 220.697C44.659 219.505 30.7462 213.445 27.0387 198.74C22.4044 180.36 32.473 105.839 73.6033 93.8625C83.3898 91.0128 92.4635 93.5687 96.171 101.942M51.152 220.697C51.9583 217.552 51.2186 221.167 52.7834 214.543M96.171 101.942C78.2248 113.285 63.5201 130.366 61.0824 155.242C57.7587 189.16 54.9397 205.414 52.7834 214.543" stroke="#252525" stroke-width="3.5408" stroke-linecap="round"/>
<ellipse cx="105.274" cy="192.502" rx="17.1306" ry="22.0402" fill="#252525"/>
<ellipse cx="194.984" cy="189.01" rx="17.1306" ry="22.0402" fill="#252525"/>
<path d="M149.032 62.56L160.514 24.1851L177.591 36.1303L194.822 17.5344L204.608 42.5735L218.624 37.5239L209.206 74.1077C181.659 77.3329 157.612 67.7531 149.032 62.56Z" fill="#CF8C3D"/>
<path d="M149.032 62.56L160.514 24.1851L177.591 36.1303L194.822 17.5344L204.608 42.5735L218.624 37.5239L209.206 74.1077M149.032 62.56C155.318 58.2604 202.243 63.1475 209.206 74.1077M149.032 62.56C157.612 67.7531 181.659 77.3329 209.206 74.1077" stroke="#252525" stroke-width="3.5408" stroke-linecap="round"/>
<defs>
<filter id="filter0_f_120_249" x="0.694336" y="32.501" width="316.612" height="319.499" filterUnits="userSpaceOnUse" color-interpolation-filters="sRGB">
<feFlood flood-opacity="0" result="BackgroundImageFix"/>
<feBlend mode="normal" in="SourceGraphic" in2="BackgroundImageFix" result="shape"/>
<feGaussianBlur stdDeviation="15" result="effect1_foregroundBlur_120_249"/>
</filter>
</defs>
</svg>
