<svg width="25" height="30" viewBox="0 0 25 30" fill="none" xmlns="http://www.w3.org/2000/svg">
<path d="M18.421 13.6365C19.3421 13.6365 20.2236 13.7729 21.0526 14.032V12.2729C21.0526 10.7729 19.8684 9.54558 18.421 9.54558H17.1052V6.81827C17.1052 3.05459 14.1579 0 10.5263 0C6.89472 0 3.94736 3.05459 3.94736 6.81827V9.54558H2.63157C1.18421 9.54558 0 10.7729 0 12.2729V25.9094C0 27.4095 1.18421 28.6367 2.63157 28.6367H10.8684C9.82893 27.0958 9.21051 25.214 9.21051 23.1821C9.21051 17.9048 13.3289 13.6365 18.421 13.6365ZM6.44735 6.81827C6.44735 4.48642 8.2763 2.59094 10.5263 2.59094C12.7763 2.59094 14.6052 4.48642 14.6052 6.81827V9.54558H6.44735V6.81827Z" fill="#F5EDF0"/>
<path d="M18.4207 16.3643C14.7892 16.3643 11.8418 19.4188 11.8418 23.1825C11.8418 26.9462 14.7892 30.0008 18.4207 30.0008C22.0523 30.0008 24.9997 26.9462 24.9997 23.1825C24.9997 19.4188 22.0523 16.3643 18.4207 16.3643ZM18.4207 19.0916C19.5128 19.0916 20.3944 20.0052 20.3944 21.137C20.3944 22.2689 19.5128 23.1825 18.4207 23.1825C17.3286 23.1825 16.4471 22.2689 16.4471 21.137C16.4471 20.0052 17.3286 19.0916 18.4207 19.0916ZM18.4207 27.2735C17.0655 27.2735 15.8681 26.5644 15.1576 25.4735C16.1181 24.9007 17.2234 24.5462 18.4207 24.5462C19.6181 24.5462 20.7234 24.9007 21.6839 25.4735C20.9734 26.5644 19.776 27.2735 18.4207 27.2735Z" fill="#F5EDF0"/>
</svg>
