<svg width="84" height="44" viewBox="0 0 84 44" fill="none" xmlns="http://www.w3.org/2000/svg">
<path fill-rule="evenodd" clip-rule="evenodd" d="M0.426297 7.25055C0.161886 8.71792 0.0296812 10.3363 0.0296812 12.1058C0.0296812 12.2351 0.0271975 12.6415 0.0236671 13.2193C0.00892804 15.6313 -0.0240551 21.029 0.0292737 21.7079C0.0953764 22.5279 0.216565 23.3803 0.392838 24.265C0.569112 25.1282 0.811489 25.9806 1.11997 26.8221C1.42845 27.6421 1.81405 28.3758 2.27677 29.0232C2.76152 29.649 3.33441 30.1669 3.99544 30.5769C4.6785 30.9653 5.47173 31.1595 6.37513 31.1595C6.90395 31.1595 7.41074 31.084 7.89549 30.9329C8.38025 30.7819 8.80991 30.5121 9.1845 30.1237C9.40484 29.8863 9.55908 29.649 9.64722 29.4116C9.75739 29.1742 9.83451 28.9477 9.87857 28.7319C9.94468 28.4945 9.99976 28.2571 10.0438 28.0198C10.0603 27.9308 10.0955 26.8107 10.1387 25.4309C10.211 23.1277 10.3059 20.1009 10.3748 19.939C10.4188 19.8311 10.54 19.7664 10.7383 19.7448C10.9366 19.7232 11.0909 19.7016 11.201 19.6801C11.9943 19.5937 12.7765 19.4966 13.5477 19.3887C14.3189 19.2593 15.0901 19.0651 15.8613 18.8061C16.8969 18.4393 17.7782 17.9429 18.5054 17.3172C19.2545 16.6698 19.8605 15.9361 20.3232 15.1161C20.7859 14.2961 21.1275 13.4006 21.3478 12.4295C21.5681 11.4585 21.6783 10.4658 21.6783 9.4516C21.6783 7.85476 21.3478 6.4737 20.6868 5.30844C20.0257 4.12159 19.1444 3.13975 18.0427 2.3629C16.963 1.56448 15.718 0.971055 14.3079 0.582633C12.9197 0.194211 11.4985 0 10.0442 0C7.99506 0 6.32045 0.302106 5.02043 0.906318C3.72041 1.51053 2.69582 2.35211 1.94666 3.43106C1.21953 4.48843 0.712742 5.76159 0.426297 7.25055ZM10.3748 12.7532C10.3087 12.5374 10.2756 12.3324 10.2756 12.1382C10.2756 11.7282 10.2976 11.3074 10.3417 10.8758C10.4078 10.4442 10.518 10.0558 10.6722 9.71055C10.8485 9.36529 11.1019 9.08476 11.4324 8.86897C11.7629 8.6316 12.1926 8.51292 12.7214 8.51292C13.0078 8.51292 13.2392 8.58844 13.4155 8.7395C13.6138 8.86897 13.768 9.0416 13.8782 9.25739C14.0104 9.47318 14.0985 9.71055 14.1426 9.9695C14.1867 10.2069 14.2087 10.4442 14.2087 10.6816C14.2087 11.0053 14.1756 11.3613 14.1095 11.7498C14.0434 12.1166 13.9333 12.4619 13.779 12.7856C13.6248 13.1092 13.4155 13.379 13.1511 13.5948C12.8866 13.8106 12.5451 13.9185 12.1265 13.9185C11.818 13.9185 11.5426 13.8645 11.3002 13.7566C11.0799 13.6271 10.8926 13.4761 10.7383 13.3035C10.5841 13.1308 10.4629 12.9474 10.3748 12.7532ZM82.004 10.4807C79.8553 11.5746 79.5151 13.4082 79.6135 14.1883C79.7762 15.3626 80.2065 16.649 80.6707 18.0371L80.6707 18.0372C82.0464 22.1505 83.7206 27.156 79.6135 32.7788C74.6446 39.5818 66.4793 37.88 66.4793 33.6203C66.4793 32.2439 67.8052 31.148 69.205 29.9913C70.5868 28.8493 72.0405 27.6478 72.3615 26.0583C73.2187 21.8132 72.3802 19.4044 71.6295 17.2475C71.3452 16.4307 71.0734 15.65 70.9111 14.8194C70.3202 11.7954 70.5078 6.69423 74.6445 4.38028C78.3851 2.28796 82.004 3.04989 83.4544 5.35319C84.4478 6.93077 84.1528 9.38683 82.004 10.4807ZM62.4224 29.6771L62.4239 29.6779L62.4254 29.6786C63.2161 30.0869 64.0626 30.2918 64.9575 30.2918C65.8539 30.2918 66.6946 30.0382 67.4696 29.5435C68.2287 29.0589 68.8814 28.41 69.4306 27.6077C69.99 26.8059 70.4211 25.8861 70.7284 24.854C71.0477 23.8019 71.2065 22.7058 71.2065 21.5676C71.2065 20.2926 71.0608 19.1321 70.7624 18.091C70.4763 17.0568 70.0644 16.1584 69.5177 15.4067C68.9693 14.6526 68.2986 14.065 67.5054 13.6555C66.7088 13.2442 65.8297 13.0423 64.8789 13.0423C63.9198 13.0423 63.0337 13.2901 62.2333 13.7855C61.4562 14.2583 60.7992 14.9127 60.2586 15.7345C59.7192 16.54 59.3053 17.4839 59.0102 18.5583L59.0095 18.5607L59.0089 18.5631C58.7236 19.6416 58.5826 20.7912 58.5826 22.0096C58.5826 23.218 58.7406 24.3323 59.0632 25.3478C59.3827 26.3534 59.8229 27.228 60.3911 27.9621L60.3926 27.9641L60.3942 27.9661C60.9709 28.6966 61.6466 29.2705 62.4224 29.6771ZM65.3946 23.9032C65.2895 24.0736 65.1696 24.2078 65.037 24.3123C64.9422 24.3815 64.8667 24.4006 64.8002 24.4006C64.6567 24.4006 64.5001 24.3438 64.3239 24.0897C64.154 23.8156 64.0471 23.4222 64.0471 22.8714C64.0471 22.3243 64.1679 21.9508 64.3539 21.6995C64.5447 21.4418 64.7298 21.3643 64.9261 21.3643C64.9592 21.3643 65.024 21.3744 65.1283 21.4385L65.1435 21.4479L65.1594 21.4562C65.2586 21.5084 65.358 21.5872 65.4556 21.7031L65.4636 21.7127L65.4721 21.7219C65.5549 21.8113 65.6326 21.9347 65.6971 22.1044L65.6993 22.1101L65.7015 22.1158C65.7573 22.2527 65.7893 22.4139 65.7893 22.6062C65.7893 22.8165 65.7561 23.0391 65.6852 23.2757C65.6144 23.5117 65.5197 23.7145 65.4042 23.8883L65.3993 23.8957L65.3946 23.9032ZM57.1355 20.8623C56.7838 21.2677 56.2607 21.6216 55.5729 21.6216C55.0167 21.6216 54.5532 21.3893 54.2014 21.1016L54.1713 21.077L54.143 21.0505C53.9467 20.8671 53.7444 20.6833 53.5358 20.4992L53.51 20.4764L53.4856 20.4522C53.3152 20.283 53.1389 20.1361 52.9569 20.0096L52.9138 19.9796L52.8735 19.946C52.872 19.9447 52.8705 19.9434 52.869 19.9423C52.8674 19.9409 52.8658 19.9396 52.8643 19.9385C52.8067 19.9455 52.7208 19.9741 52.5931 20.0828C52.4026 20.2448 52.195 20.5033 51.993 20.9045C51.8071 21.2737 51.6428 21.748 51.5136 22.3436C51.3984 22.9297 51.3385 23.5693 51.3385 24.2655C51.3385 24.7841 51.3766 25.2587 51.4492 25.6914C51.5204 26.1153 51.6169 26.4646 51.7302 26.7484C51.8392 26.9751 51.9527 27.1435 52.0626 27.2678C52.233 27.266 52.3579 27.217 52.4976 27.0709C52.819 26.72 53.1112 26.3367 53.3739 25.9196C53.7029 25.392 54.0322 24.9162 54.3624 24.4961C54.832 23.8887 55.5096 23.4312 56.3854 23.4312C57.4996 23.4312 58.1895 24.201 58.5689 24.9814C58.9613 25.7649 59.1198 26.6951 59.1198 27.7077C59.1198 28.6096 58.9825 29.4673 58.6948 30.2705C58.4398 31.0148 58.1124 31.6973 57.7065 32.3104C57.3302 32.8964 56.9108 33.4186 56.4444 33.8688C56.035 34.2749 55.639 34.6239 55.2575 34.9048C54.0669 35.7941 52.7629 36.287 51.3663 36.287C50.2043 36.287 49.1265 35.902 48.1552 35.2005C47.2026 34.5126 46.4025 33.5789 45.7371 32.4424L45.7317 32.4332L45.7265 32.4238C45.0726 31.2578 44.5699 29.8857 44.2026 28.3262L44.2022 28.3242L44.2017 28.3223C43.8301 26.7191 43.6488 24.9704 43.6488 23.0822C43.6488 21.8034 43.7499 20.5678 43.954 19.3768C44.1559 18.1989 44.435 17.0872 44.7939 16.0437C45.1508 15.0057 45.5762 14.0544 46.074 13.1947C46.566 12.3214 47.1091 11.554 47.7091 10.904L47.7136 10.8992L47.718 10.8944C48.3285 10.2479 48.986 9.72088 49.6959 9.33904L49.7004 9.33662L49.7049 9.33425C50.4432 8.94524 51.2238 8.72992 52.0343 8.72992C52.7212 8.72992 53.4239 8.91985 54.1189 9.22312C54.894 9.55585 55.5946 10.0574 56.225 10.6973C56.8874 11.3697 57.4116 12.2027 57.8167 13.1649C58.2657 14.1771 58.4699 15.3299 58.4699 16.5921C58.4699 17.1168 58.4212 17.6401 58.3245 18.1614C58.2277 18.683 58.087 19.1772 57.8977 19.6398L57.8927 19.6521L57.8874 19.6642C57.6938 20.1079 57.4477 20.5148 57.1355 20.8623ZM38.6759 35.0763C36.4647 34.0945 36.2097 27.5949 36.3586 24.4678C36.3586 22.4192 36.6265 22.0866 37.0686 21.5377C37.1678 21.4145 37.2759 21.2803 37.3916 21.1134C37.7485 20.5989 38.494 20.5983 39.3822 20.5977C41.1065 20.5964 43.3689 20.5948 44.3713 16.8318C44.3734 16.8089 44.3755 16.7862 44.3776 16.7635C44.3792 16.747 44.3807 16.7304 44.3822 16.714C44.3865 16.6684 44.3907 16.6234 44.3949 16.5789L44.3953 16.5751C44.5844 14.5681 43.7958 13.0293 41.4473 11.4778C39.9836 10.5107 37.8642 11.3882 36.836 12.3745C35.8079 13.3608 34.6926 14.4306 33.0642 14.5137C31.1718 14.6103 30.2383 13.5084 29.3577 12.4691C28.4976 11.4538 26.9518 10.6893 25.3483 10.9687C19.4016 12.005 19.983 19.2657 22.818 20.5953C23.2792 20.8115 23.7032 21.0027 24.092 21.1781C27.1821 22.5715 28.0552 22.9652 27.7806 27.0125C27.7631 27.2715 27.7448 27.5407 27.7317 27.8221C27.5921 30.822 27.1454 31.7765 25.6936 33.6309C25.373 34.0404 24.7965 34.4911 24.1538 34.9937C21.8857 36.7668 19.9897 40.1409 23.2088 42.7123C24.5917 43.8169 27.7749 43.5328 29.26 42.1574C30.6502 40.8699 31.9058 39.7071 33.9576 41.9487C36.0094 44.1902 39.4888 44.8618 41.702 42.6054L41.7026 42.6048C41.8086 42.4967 41.9164 42.3869 42.0261 42.2759C44.4271 39.8488 41.4398 36.3035 38.6759 35.0763ZM32.8749 26.9824C33.3954 27.1046 33.9564 26.6386 34.1281 25.9416C34.2998 25.2446 34.017 24.5806 33.4965 24.4585C32.976 24.3363 32.4149 24.8023 32.2432 25.4993C32.0716 26.1963 32.3544 26.8603 32.8749 26.9824ZM34.0893 28.4989C33.6959 28.2142 33.6698 27.598 34.0309 27.1225C34.3921 26.647 35.0037 26.4923 35.397 26.7769C35.7904 27.0615 35.8165 27.6778 35.4554 28.1533C35.0942 28.6288 34.4826 28.7835 34.0893 28.4989ZM31.9872 27.1965C32.1788 27.1965 32.646 27.2958 32.982 27.6929C33.1279 27.8652 33.2125 28.0194 33.295 28.1698C33.45 28.4525 33.5977 28.7218 34.1316 29.074C34.9496 29.6135 34.419 30.5414 34.1979 30.714L34.1851 30.7241C33.9639 30.8972 33.6274 31.1606 32.7168 30.8219C31.9895 30.5515 31.8047 30.6253 31.3552 30.8047L31.3551 30.8048L31.3549 30.8048C31.2305 30.8545 31.0859 30.9122 30.9039 30.973C30.2319 31.1974 29.7691 30.7932 29.6217 30.563C29.4007 30.304 29.1575 29.6437 29.9533 29.074C30.3673 28.7777 30.6013 28.4029 30.8116 28.0662C31.1066 27.5938 31.3547 27.1965 31.9872 27.1965ZM29.9627 27.1296C30.3238 27.6051 30.2977 28.2213 29.9044 28.5059C29.511 28.7906 28.8994 28.6359 28.5383 28.1604C28.1771 27.6848 28.2032 27.0686 28.5966 26.784C28.9899 26.4993 29.6015 26.6541 29.9627 27.1296ZM29.8358 25.9444C30.0074 26.6414 30.5685 27.1074 31.089 26.9852C31.6095 26.8631 31.8923 26.1991 31.7206 25.5021C31.549 24.8051 30.9879 24.3391 30.4674 24.4613C29.9469 24.5834 29.6641 25.2474 29.8358 25.9444ZM18.3125 21.374C17.3571 21.374 16.478 21.482 15.6766 21.7001C14.8742 21.9073 14.1741 22.2253 13.5802 22.6575C12.9833 23.0918 12.5162 23.6396 12.1818 24.2993L12.181 24.3011L12.1801 24.3028C11.8576 24.9669 11.6997 25.7313 11.6997 26.5896C11.6997 27.0823 11.7335 27.5748 11.8012 28.0672L11.8017 28.0703L11.8022 28.0734C11.8817 28.5555 11.9613 29.0321 12.0409 29.503L12.041 29.5039C12.2042 30.4468 12.5 31.2045 12.9419 31.759L12.943 31.7603L12.9441 31.7617C13.3922 32.3063 13.9517 32.7136 14.6186 32.9838L14.62 32.9843L14.6215 32.9849C15.28 33.2401 16.0227 33.3949 16.8475 33.452C17.6611 33.5084 18.5338 33.5366 19.4654 33.5366C19.7506 33.5366 20.1336 33.5194 20.6125 33.4856C21.0956 33.4516 21.5916 33.3949 22.1004 33.3156C22.6095 33.2363 23.0864 33.1398 23.5308 33.026C23.9755 32.912 24.3245 32.7753 24.556 32.6056L24.562 32.6012L24.5677 32.5964C24.7705 32.4249 24.9216 32.2308 24.9778 32.0091C25.0235 31.8286 25.0446 31.6235 25.0446 31.3968C25.0446 31.1922 25.0235 30.9833 24.982 30.7704C24.9514 30.5441 24.8835 30.3339 24.7774 30.1416C24.6649 29.9377 24.505 29.7764 24.3036 29.6575C24.0867 29.518 23.8129 29.4588 23.5004 29.4588C23.4271 29.4588 23.3493 29.4646 23.2675 29.4757C23.1851 29.4763 23.1066 29.4824 23.0326 29.4947C22.4642 29.5729 21.9025 29.6512 21.3473 29.7294C20.7998 29.7955 20.2387 29.8286 19.6641 29.8286C19.5368 29.8286 19.3431 29.8232 19.0811 29.8121C18.8397 29.7905 18.5912 29.7527 18.3356 29.6987C18.0973 29.6456 17.8875 29.5776 17.705 29.4957C17.536 29.409 17.5312 29.3447 17.5312 29.3294C17.5312 29.3231 17.5316 29.3189 17.532 29.3164L17.533 29.3158C17.5743 29.2878 17.6291 29.2632 17.7014 29.2454C17.7929 29.2263 17.8839 29.2168 17.9746 29.2168H17.9853L17.9958 29.2157C18.0985 29.2048 18.1768 29.2 18.233 29.2H21.3537C22.0018 29.2 22.5209 29.1099 22.8852 28.9046L22.8876 28.9032L22.8899 28.9018C23.3033 28.6542 23.4743 28.1738 23.4743 27.5645C23.4743 27.3129 23.3979 27.09 23.2245 26.9271C23.0781 26.7896 22.9023 26.696 22.7027 26.6431C22.5125 26.5819 22.3045 26.5463 22.0802 26.5344C21.8784 26.5231 21.6892 26.5173 21.5127 26.5173C21.0046 26.5173 20.4901 26.5343 19.9691 26.5682C19.4565 26.6015 18.9507 26.6182 18.4517 26.6182C18.3812 26.6182 18.2958 26.6132 18.1946 26.6025C18.104 26.5929 18.0128 26.5738 17.9207 26.5449C17.8499 26.5189 17.7845 26.4851 17.7242 26.4437C17.7147 26.4348 17.7117 26.4292 17.7111 26.4279C17.7108 26.4274 17.7107 26.4271 17.7106 26.4268L17.7105 26.4265L17.7104 26.4262C17.7104 26.4259 17.7101 26.4245 17.7101 26.4215C17.7101 26.4039 17.7139 26.3913 17.7274 26.3751C17.7445 26.3545 17.7813 26.324 17.8551 26.2928L17.8573 26.2919L17.8596 26.2909C18.0404 26.2093 18.249 26.1465 18.4871 26.1041L18.4914 26.1034L18.4956 26.1024C18.7361 26.0489 18.9762 26.0169 19.216 26.0062L19.2204 26.006L19.2249 26.0056C19.4757 25.9833 19.6538 25.9728 19.7635 25.9728C20.1804 25.9728 20.5905 25.9948 20.9938 26.0388L20.9945 26.0389C21.4256 26.0845 21.8567 26.1073 22.2879 26.1073C22.7186 26.1073 23.0949 26.0371 23.4085 25.886C23.722 25.7411 23.9856 25.5508 24.1937 25.312L24.1955 25.3099L24.1973 25.3078C24.4016 25.0609 24.5487 24.7819 24.6372 24.4721C24.7364 24.1593 24.7862 23.8396 24.7862 23.5137C24.7862 23.0385 24.5717 22.6542 24.178 22.3719C23.8242 22.1089 23.3982 21.9037 22.9044 21.7528C22.4265 21.6028 21.9227 21.505 21.3935 21.459C20.8866 21.4026 20.4554 21.374 20.1014 21.374H18.3125ZM37.155 23.8475C37.1774 24.0526 37.2168 24.2821 37.2731 24.5358C37.3217 24.7546 37.3847 24.9345 37.4621 25.0755C37.545 25.2155 37.6388 25.3264 37.7434 25.4082C37.8499 25.4987 37.9627 25.5653 38.0817 25.6082C38.2007 25.6511 38.3223 25.6799 38.4466 25.6946C38.7881 25.7532 39.1256 25.7807 39.459 25.7772C39.7925 25.7736 40.1241 25.7748 40.4539 25.781C40.7893 25.7861 41.1275 25.7908 41.4684 25.795C41.8113 25.808 42.1436 25.7864 42.4654 25.7303C42.815 25.6694 43.0279 25.4733 43.1042 25.1419C43.1879 24.8183 43.1715 24.394 43.055 23.869C42.9599 23.4402 42.8439 23.0605 42.7071 22.7299C42.5779 22.4071 42.4232 22.1387 42.2432 21.9247C42.0687 21.7097 41.867 21.554 41.6381 21.4576C41.4112 21.3699 41.1535 21.3512 40.865 21.4014L40.2741 21.5044C40.0522 21.5431 39.8173 21.5886 39.5696 21.6408C39.3238 21.7018 39.0744 21.7726 38.8215 21.853C38.5704 21.9422 38.3371 22.0465 38.1216 22.1659C37.908 22.294 37.7196 22.4449 37.5565 22.6188C37.3989 22.7917 37.287 22.9884 37.2207 23.209C37.1544 23.4296 37.1325 23.6424 37.155 23.8475ZM40.4437 33.5366C40.0934 33.5366 39.7794 33.5222 39.5016 33.4934C39.2237 33.4646 38.9459 33.3782 38.6681 33.2342C38.3903 33.0902 38.1548 32.8958 37.9615 32.651C37.7682 32.399 37.6112 32.1218 37.4904 31.8194C37.3817 31.517 37.2971 31.1966 37.2368 30.8582C37.1884 30.5198 37.1522 30.1886 37.128 29.8646C37.116 29.5406 37.1099 29.2346 37.1099 28.9466V28.1799C37.1099 27.8055 37.1945 27.4887 37.3636 27.2295C37.5448 26.9703 37.7984 26.7615 38.1246 26.6031C38.4507 26.4375 38.8433 26.3187 39.3023 26.2467C39.7733 26.1675 40.3048 26.1279 40.8967 26.1279C41.6214 26.1279 42.1891 26.2251 42.5998 26.4195C43.0226 26.6067 43.234 26.9271 43.234 27.3807C43.234 27.7983 43.1857 28.2195 43.089 28.6442C43.0045 29.069 42.9199 29.4902 42.8354 29.9078C42.7508 30.3182 42.6723 30.7322 42.5998 31.1498C42.5273 31.5674 42.4126 31.9814 42.2556 32.3918C42.2073 32.543 42.1408 32.687 42.0563 32.8238C41.9717 32.9606 41.857 33.083 41.712 33.191C41.5792 33.299 41.41 33.3854 41.2047 33.4502C40.9994 33.5078 40.7457 33.5366 40.4437 33.5366Z" fill="#F5EDF0"/>
</svg>
