<svg width="314" height="376" viewBox="0 0 314 376" fill="none" xmlns="http://www.w3.org/2000/svg">
<path d="M152.728 152.923L145.126 129.107L134.546 136.739L123.548 125.321L117.677 141.044L108.837 138.042L115.127 160.763C132.43 162.483 147.404 156.253 152.728 152.923Z" fill="#CF8C3D"/>
<path d="M152.728 152.923L145.126 129.107L134.546 136.739L123.548 125.321L117.677 141.044L108.837 138.042L115.127 160.763M152.728 152.923C148.742 150.308 119.376 153.852 115.127 160.763M152.728 152.923C147.404 156.253 132.43 162.483 115.127 160.763" stroke="#252525" stroke-width="3" stroke-linecap="round"/>
<path d="M151.738 170.4C164.621 172.419 190.447 185.537 199.485 194.532C212.395 186.887 240.293 174.438 248.61 185.808C259.006 200.02 231.577 251.348 224.169 251.268C223.893 253.851 223.025 259.643 221.76 262.146C224.672 270.395 228.226 290.758 219.15 306.212C207.805 325.53 170 344.885 139.449 335.958C134.478 339.68 125.809 343.877 109.065 340.417C97.5405 338.035 85.6947 328.491 81.7321 324.532C69.2805 325.048 43.6651 305.975 38.5936 291.377C27.8385 260.42 44.1675 242.531 46.3629 241.078C45.9304 234.414 46.4527 221.128 50.8428 211.966C46.4556 194.006 45.468 155.846 63.0523 146.378C71.779 141.68 93.4641 163.624 99.375 178.228C108.556 171.531 128.638 166.781 151.738 170.4Z" fill="#F5EDF0"/>
<path d="M248.61 185.808C240.293 174.438 212.395 186.887 199.485 194.532C190.447 185.537 164.621 172.419 151.738 170.4C128.638 166.781 108.556 171.531 99.375 178.228C93.4641 163.624 71.779 141.68 63.0523 146.378M248.61 185.808C259.006 200.02 231.577 251.348 224.169 251.268M248.61 185.808C247.547 184.582 213.243 204.522 209.834 212.546C206.424 220.571 223.386 219.264 224.169 251.268M224.169 251.268C223.893 253.851 223.025 259.643 221.76 262.146C224.672 270.395 228.226 290.758 219.15 306.212C207.805 325.53 170 344.885 139.449 335.958C134.478 339.68 125.809 343.877 109.065 340.417C97.5405 338.035 85.6947 328.491 81.7321 324.532C69.2805 325.048 43.6651 305.975 38.5936 291.377C27.8385 260.42 44.1675 242.531 46.3629 241.078C45.9304 234.414 46.4527 221.128 50.8428 211.966M50.8428 211.966C51.9387 209.679 53.2757 207.649 54.8989 206.043C57.8372 203.113 75.4998 193.28 79.2863 187.564C86.4839 176.697 74.0938 154.633 63.0523 146.378M50.8428 211.966C46.4556 194.006 45.468 155.846 63.0523 146.378M120.294 295.955C122.538 296.586 123.938 293.39 127.311 291.55C130.684 289.71 136.128 295.049 137.321 289.089C138.274 284.321 129.25 279.533 124.618 277.735C119.359 275.771 108.808 279.683 108.291 282.176C107.773 284.668 111.581 286.09 115.299 288.305C119.018 290.52 118.051 295.324 120.294 295.955ZM120.294 295.955C118.897 300.805 109.906 297.057 100.687 299.34C91.5678 301.598 89.3506 306.115 90.4585 304.327M120.294 295.955C119.159 299.732 130.29 301.56 138.215 308.508C144.339 313.877 144.218 319.556 144.218 319.556M74.939 231.5C75.1461 233.712 78.5615 239.506 90.5671 244.98C105.574 251.823 111.899 254.804 108.76 262.103M199.028 255.518C198.11 257.241 193.576 260.714 182.793 260.82C169.314 260.952 148.497 262.477 147.962 268.889" stroke="#252525" stroke-width="3" stroke-linecap="round"/>
<path d="M137.321 289.088C138.274 284.32 129.25 279.532 124.618 277.733C119.359 275.77 108.808 279.682 108.29 282.174C107.773 284.667 111.581 286.089 115.299 288.304C119.018 290.518 118.051 295.322 120.294 295.954C122.538 296.585 123.938 293.388 127.311 291.549C130.684 289.709 136.128 295.047 137.321 289.088Z" fill="#DB755F" stroke="#252525" stroke-width="3" stroke-linecap="round"/>
<path d="M224.169 251.268C231.577 251.348 259.006 200.019 248.61 185.807C247.547 184.582 213.243 204.521 209.833 212.546C206.424 220.57 223.386 219.263 224.169 251.268Z" fill="#DB755F"/>
<path d="M54.8988 206.042C53.2756 207.648 51.9386 209.678 50.8427 211.966C46.4555 194.005 45.4679 155.845 63.0522 146.378C74.0937 154.633 86.4838 176.697 79.2862 187.563C75.4997 193.28 57.8371 203.112 54.8988 206.042Z" fill="#DB755F"/>
<path d="M224.169 251.268C231.577 251.348 259.006 200.019 248.61 185.807C247.547 184.582 213.243 204.521 209.833 212.546C206.424 220.57 223.386 219.263 224.169 251.268Z" stroke="#252525" stroke-width="3" stroke-linecap="round"/>
<path d="M54.8988 206.042C53.2756 207.648 51.9386 209.678 50.8427 211.966C46.4555 194.005 45.4679 155.845 63.0522 146.378C74.0937 154.633 86.4838 176.697 79.2862 187.563C75.4997 193.28 57.8371 203.112 54.8988 206.042Z" stroke="#252525" stroke-width="3" stroke-linecap="round"/>
<path d="M211.363 140.511C204.378 136.821 201.33 134.136 202.217 132.456L204.88 127.416C206.982 123.437 212.984 120.105 222.886 117.419C226.576 116.429 230.209 115.012 233.784 113.168C237.448 111.372 239.91 109.28 241.171 106.893C243.507 102.472 242.111 98.9066 236.983 96.197C231.943 93.5342 225.972 92.5279 219.068 93.1782C217.484 88.0431 217.149 83.0032 218.065 78.0585C218.282 76.3635 218.671 74.9855 219.232 73.9245C219.839 72.7751 220.621 71.8309 221.577 71.0919C223.499 69.1667 227.915 68.729 234.825 69.7787C241.823 70.8751 248.594 73.1518 255.137 76.6089C265.039 81.8411 271.345 87.8873 274.054 94.7474C276.763 101.608 276.179 108.707 272.301 116.046C270.526 119.405 267.934 122.277 264.526 124.661C261.253 127.003 257.768 128.781 254.073 129.996C250.513 131.168 247.023 132.208 243.603 133.116C235.229 135.478 230.319 138.029 228.87 140.77L226.768 144.749C226.208 145.81 224.151 145.741 220.6 144.543C217.095 143.257 214.016 141.913 211.363 140.511ZM210.206 174.169C209.925 174.7 206.116 173.026 198.777 169.149C191.527 165.318 188.019 163.181 188.252 162.739L199.254 141.917C199.628 141.21 203.44 142.772 210.69 146.602C218.029 150.48 221.581 152.64 221.347 153.082L210.206 174.169Z" fill="#C54432"/>
</svg>
