<svg width="320" height="330" viewBox="0 0 320 330" fill="none" xmlns="http://www.w3.org/2000/svg">
<path d="M217.035 104.697C210.05 101.006 207.002 98.3211 207.889 96.6412L210.552 91.6014C212.654 87.6226 218.656 84.2905 228.558 81.605C232.248 80.6142 235.881 79.1972 239.456 77.3539C243.12 75.5574 245.582 73.4654 246.843 71.0782C249.179 66.6573 247.783 63.0921 242.655 60.3826C237.615 57.7197 231.643 56.7135 224.74 57.3638C223.155 52.2287 222.821 47.1888 223.737 42.244C223.954 40.549 224.343 39.171 224.904 38.11C225.511 36.9606 226.293 36.0164 227.249 35.2774C229.171 33.3523 233.586 32.9146 240.496 33.9643C247.495 35.0607 254.266 37.3374 260.808 40.7944C270.711 46.0266 277.017 52.0728 279.726 58.933C282.435 65.7931 281.851 72.8925 277.973 80.2311C276.198 83.5909 273.606 86.4628 270.198 88.8466C266.924 91.1887 263.44 92.9669 259.745 94.1813C256.185 95.3539 252.694 96.3939 249.274 97.3013C240.901 99.6632 235.99 102.215 234.542 104.956L232.44 108.934C231.879 109.995 229.823 109.927 226.272 108.729C222.767 107.442 219.688 106.098 217.035 104.697ZM215.877 138.355C215.597 138.885 211.788 137.212 204.449 133.334C197.199 129.503 193.691 127.367 193.924 126.925L204.926 106.103C205.3 105.395 209.112 106.957 216.362 110.788C223.7 114.665 227.253 116.825 227.019 117.267L215.877 138.355Z" fill="#C54432"/>
<path d="M60.4049 293.071C19.7004 284.445 24.2254 248.399 29.0575 234.605C29.353 233.762 33.6605 225.164 33.9922 224.455C28.988 222.536 26.0183 211.358 25.2517 199.125C24.2935 183.834 42.0737 121.668 75.5578 134.518C80.4369 136.695 84.4426 132.696 86.1531 139.901C104.063 132.835 124.138 132.078 136.73 133.455C155.276 135.187 166.109 142.8 167.923 146.491C172.351 141.601 182.915 135.836 200.018 151.081C221.397 170.137 243.961 189.074 232.127 219.33C220.292 249.586 209.216 270.344 199.524 266.61C203.346 286.677 177.638 315.081 148.775 309.662C145.992 309.139 143.281 308.495 140.655 307.755C133.827 311.424 79.7159 313.317 70.094 293.906C67.1306 293.734 63.8525 293.802 60.4049 293.071Z" fill="#F5EDF0"/>
<path d="M136.73 133.455C155.276 135.187 166.109 142.8 167.923 146.491C172.351 141.601 182.915 135.836 200.018 151.081C221.397 170.137 243.961 189.074 232.127 219.33C220.292 249.586 209.216 270.344 199.524 266.61M136.73 133.455C124.138 132.078 104.063 132.835 86.1531 139.901M136.73 133.455C152.873 177.853 123.582 235.532 84.8669 245.083C53.8944 252.725 38.5427 233.423 34.7384 222.818M199.524 266.61C203.346 286.677 177.638 315.081 148.775 309.662C145.992 309.139 143.281 308.495 140.655 307.755M199.524 266.61C192.2 262.522 178.321 248.585 181.391 225.531C185.228 196.713 187.604 154.562 174.831 157.77M140.655 307.755C135.251 306.232 130.207 304.305 125.628 302.209C113.976 296.874 105.337 290.44 101.452 286.761C101.439 286.943 101.404 287.132 101.346 287.326M140.655 307.755C133.827 311.424 79.7159 313.317 70.094 293.906M70.094 293.906C67.1306 293.734 63.8525 293.802 60.4049 293.071C19.7004 284.445 24.2254 248.399 29.0575 234.605C29.353 233.762 33.6605 225.164 33.9922 224.455M70.094 293.906C79.7515 294.467 86.65 293.959 91.4714 292.941C96.5181 291.876 99.2889 290.252 100.566 288.714C100.962 288.237 101.214 287.768 101.346 287.326M33.9922 224.455C28.988 222.536 26.0183 211.358 25.2517 199.125C24.2935 183.834 42.0737 121.668 75.5578 134.518C80.4369 136.695 84.4426 132.696 86.1531 139.901M33.9922 224.455C35.1047 222.078 32.5019 227.844 34.7384 222.818M86.1531 139.901C70.1395 146.219 55.8571 157.581 50.2029 176.97C42.4935 203.406 37.8202 215.892 34.7384 222.818M101.346 287.326C95.7361 280.423 89.6618 270.53 90.6042 265.511C91.2888 262.471 92.5555 257.084 103.902 259.871C118.086 263.354 120.327 264.926 119.731 269.885C118.759 277.976 105.636 278.315 101.346 287.326Z" stroke="#252525" stroke-width="4" stroke-linecap="round"/>
<path d="M91.4734 292.942C96.5202 291.877 99.291 290.254 100.568 288.715C100.964 288.238 101.216 287.769 101.348 287.327C101.406 287.133 101.441 286.944 101.454 286.762C105.339 290.441 113.978 296.875 125.63 302.21M149.621 200.732C147.888 206.409 153.227 217.336 169.018 216.779" stroke="#252525" stroke-width="4" stroke-linecap="round"/>
<path d="M90.6086 265.512C89.6662 270.532 95.7404 280.424 101.35 287.327C105.64 278.317 118.763 277.977 119.736 269.887C120.331 264.927 118.09 263.355 103.907 259.872C92.5599 257.085 91.2932 262.473 90.6086 265.512Z" fill="#252525"/>
<path d="M101.456 286.762C101.443 286.944 101.408 287.133 101.35 287.327M101.35 287.327C95.7404 280.424 89.6662 270.532 90.6086 265.512C91.2932 262.473 92.5599 257.085 103.907 259.872C118.09 263.355 120.331 264.927 119.736 269.887C118.763 277.977 105.64 278.317 101.35 287.327Z" stroke="#252525" stroke-width="4" stroke-linecap="round"/>
<path d="M199.526 266.611C192.202 262.524 178.322 248.586 181.393 225.532C185.23 196.714 187.606 154.563 174.833 157.772C169.594 159.088 165.789 150.946 167.524 146.075C165.71 142.384 155.278 135.188 136.732 133.456C152.875 177.854 123.584 235.533 84.8687 245.085C53.8962 252.726 38.5445 233.425 34.7402 222.819C32.5037 227.845 33.6331 225.085 32.5206 227.462C27.5164 225.542 17.3163 218.645 16.5497 206.412C15.5915 191.122 34.7375 133.452 69.3486 130.104C77.5839 129.308 84.4445 132.697 86.1549 139.902C104.065 132.836 124.14 132.079 136.732 133.456C155.278 135.188 165.71 142.384 167.524 146.075C171.952 141.186 182.916 135.837 200.02 151.082C221.399 170.138 243.963 189.075 232.129 219.331C220.294 249.587 209.218 270.345 199.526 266.611Z" fill="#73482F"/>
<path d="M136.732 133.456C155.278 135.188 165.71 142.384 167.524 146.075M136.732 133.456C124.14 132.079 104.065 132.836 86.1549 139.902M136.732 133.456C152.875 177.854 123.584 235.533 84.8687 245.085C53.8962 252.726 38.5445 233.425 34.7402 222.819M29.0593 234.607C29.3548 233.763 32.1889 228.171 32.5206 227.462M167.524 146.075C171.952 141.186 182.916 135.837 200.02 151.082C221.399 170.138 243.963 189.075 232.129 219.331C220.294 249.587 209.218 270.345 199.526 266.611C192.202 262.524 178.322 248.586 181.393 225.532C185.23 196.714 187.606 154.563 174.833 157.772C169.594 159.088 165.789 150.946 167.524 146.075ZM32.5206 227.462C27.5164 225.542 17.3163 218.645 16.5497 206.412C15.5915 191.122 34.7375 133.452 69.3486 130.104C77.5839 129.308 84.4445 132.697 86.1549 139.902M32.5206 227.462C33.6331 225.085 32.5037 227.845 34.7402 222.819M86.1549 139.902C70.1413 146.22 55.8589 157.582 50.2047 176.971C42.4954 203.407 37.8221 215.893 34.7402 222.819" stroke="#252525" stroke-width="4" stroke-linecap="round"/>
<path d="M92.1954 215.487C92.967 215.632 93.4795 216.376 93.2868 217.137C92.2532 221.22 90.1244 224.855 87.2647 227.374C84.0845 230.174 80.2608 231.366 76.6349 230.685C73.0089 230.004 69.8777 227.507 67.93 223.744C66.1785 220.359 65.5132 216.199 66.0306 212.02C66.127 211.241 66.8747 210.733 67.6463 210.878V210.878C68.4179 211.023 68.92 211.766 68.8361 212.546C68.4892 215.774 69.0275 218.97 70.3807 221.585C71.9303 224.579 74.4216 226.566 77.3065 227.108C80.1913 227.649 83.2335 226.702 85.7637 224.473C87.9731 222.527 89.6342 219.744 90.4815 216.61C90.6864 215.852 91.4238 215.342 92.1954 215.487V215.487Z" fill="#252525"/>
<path d="M164.392 226.169C165.117 226.305 165.598 227.004 165.419 227.719C164.964 229.548 164.285 231.303 163.406 232.918C162.32 234.912 160.951 236.653 159.376 238.04C157.801 239.426 156.052 240.433 154.228 241.001C152.404 241.569 150.542 241.688 148.746 241.351C146.951 241.014 145.258 240.227 143.764 239.036C142.271 237.845 141.006 236.273 140.041 234.41C139.077 232.546 138.432 230.427 138.144 228.175C137.91 226.352 137.914 224.47 138.153 222.6C138.246 221.869 138.948 221.392 139.672 221.528V221.528C140.396 221.664 140.868 222.361 140.785 223.093C140.623 224.521 140.63 225.954 140.808 227.345C141.041 229.165 141.562 230.877 142.342 232.383C143.121 233.889 144.144 235.16 145.351 236.123C146.558 237.085 147.926 237.721 149.377 237.993C150.828 238.265 152.333 238.169 153.807 237.71C155.281 237.251 156.695 236.438 157.967 235.317C159.24 234.196 160.346 232.79 161.224 231.178C161.894 229.946 162.421 228.613 162.787 227.224C162.976 226.512 163.668 226.033 164.392 226.169V226.169Z" fill="#252525"/>
<path d="M144.963 110.968L135.63 79.9641L121.766 89.6196L107.769 74.5981L99.8284 94.8316L88.4461 90.7547L96.1022 120.312C118.472 122.912 137.997 115.166 144.963 110.968Z" fill="#CF8C3D"/>
<path d="M144.963 110.968L135.63 79.9641L121.766 89.6196L107.769 74.5981L99.8284 94.8316L88.4461 90.7547L96.1022 120.312M144.963 110.968C139.857 107.495 101.753 111.455 96.1022 120.312M144.963 110.968C137.997 115.166 118.472 122.912 96.1022 120.312" stroke="#252525" stroke-width="4" stroke-linecap="round"/>
<path d="M89.1518 191.778C88.4332 197.67 79.1217 205.493 64.9127 198.579" stroke="#252525" stroke-width="4" stroke-linecap="round"/>
</svg>
