<svg width="30" height="30" viewBox="0 0 30 30" fill="none" xmlns="http://www.w3.org/2000/svg">
<mask id="mask0_959_924" style="mask-type:alpha" maskUnits="userSpaceOnUse" x="0" y="0" width="30" height="30">
<rect width="30" height="30" fill="#D9D9D9"/>
</mask>
<g mask="url(#mask0_959_924)">
<path d="M13.75 26.25V16.2813C12.4167 16.2813 11.1354 16.026 9.90625 15.5156C8.67708 15.0052 7.59375 14.2812 6.65625 13.3438C5.71875 12.4062 5 11.3229 4.5 10.0938C4 8.86458 3.75 7.58333 3.75 6.25V3.75H6.25C7.5625 3.75 8.83333 4.00521 10.0625 4.51562C11.2917 5.02604 12.375 5.75 13.3125 6.6875C13.9583 7.33333 14.4948 8.04167 14.9219 8.8125C15.349 9.58333 15.6771 10.4062 15.9062 11.2812C16.0104 11.1354 16.125 10.9948 16.25 10.8594C16.375 10.724 16.5104 10.5833 16.6562 10.4375C17.5938 9.5 18.6771 8.77604 19.9062 8.26562C21.1354 7.75521 22.4167 7.5 23.75 7.5H26.25V10C26.25 11.3333 25.9948 12.6146 25.4844 13.8438C24.974 15.0729 24.25 16.1562 23.3125 17.0938C22.375 18.0312 21.2969 18.75 20.0781 19.25C18.8594 19.75 17.5833 20 16.25 20V26.25H13.75ZM13.75 13.75C13.75 12.75 13.5573 11.7969 13.1719 10.8906C12.7865 9.98438 12.2396 9.17708 11.5312 8.46875C10.8229 7.76042 10.0156 7.21354 9.10938 6.82812C8.20312 6.44271 7.25 6.25 6.25 6.25C6.25 7.25 6.4375 8.20833 6.8125 9.125C7.1875 10.0417 7.72917 10.8542 8.4375 11.5625C9.14583 12.2708 9.95833 12.8125 10.875 13.1875C11.7917 13.5625 12.75 13.75 13.75 13.75ZM16.25 17.5C17.25 17.5 18.2031 17.3125 19.1094 16.9375C20.0156 16.5625 20.8229 16.0208 21.5312 15.3125C22.2396 14.6042 22.7865 13.7917 23.1719 12.875C23.5573 11.9583 23.75 11 23.75 10C22.75 10 21.7917 10.1927 20.875 10.5781C19.9583 10.9635 19.1458 11.5104 18.4375 12.2188C17.7292 12.9271 17.1875 13.7344 16.8125 14.6406C16.4375 15.5469 16.25 16.5 16.25 17.5Z" fill="#F5EDF0"/>
</g>
</svg>
