<svg width="24" height="24" viewBox="0 0 24 24" fill="none" xmlns="http://www.w3.org/2000/svg">
<mask id="mask0_1230_1103" style="mask-type:alpha" maskUnits="userSpaceOnUse" x="0" y="0" width="24" height="24">
<rect width="24" height="24" fill="#D9D9D9"/>
</mask>
<g mask="url(#mask0_1230_1103)">
<path d="M14.8004 11.9758L13.3754 10.5508L16.9504 6.00078H8.82539L6.82539 4.00078H19.0004C19.4171 4.00078 19.7171 4.18411 19.9004 4.55078C20.0837 4.91745 20.0504 5.26745 19.8004 5.60078L14.8004 11.9758ZM19.7754 22.6008L14.0004 16.8258V19.0008C14.0004 19.2841 13.9046 19.5216 13.7129 19.7133C13.5212 19.905 13.2837 20.0008 13.0004 20.0008H11.0004C10.7171 20.0008 10.4796 19.905 10.2879 19.7133C10.0962 19.5216 10.0004 19.2841 10.0004 19.0008V12.8258L1.40039 4.22578L2.80039 2.80078L21.2004 21.2008L19.7754 22.6008Z" fill="#F5EDF0"/>
</g>
</svg>
