<svg width="563" height="702" viewBox="0 0 563 702" fill="none" xmlns="http://www.w3.org/2000/svg">
<path d="M62.4982 382.754C89.3615 349.473 130.748 335.787 165.318 312.803C197.533 291.385 217.834 256.966 249.777 235.724C289.714 209.164 341.744 214.538 384.046 232.139C397.209 237.616 409.754 244.35 421.218 251.894C432.73 259.469 443.649 268.108 453.628 277.618C486.706 309.138 507.544 347.587 514.2 392.831C519.866 431.332 515.63 471.085 499.966 506.857C474.158 565.793 421.331 611.368 360.468 632.1C299.604 652.834 231.606 649.442 171.517 626.61C122.951 608.157 77.8926 575.812 53.6866 529.811C29.4833 483.81 29.8403 423.212 62.4982 382.754Z" fill="#F5EDF0"/>
<path d="M393.378 117.053C384.064 112.133 380 108.552 381.183 106.312L384.733 99.5926C387.536 94.2876 395.539 89.8448 408.741 86.2641C413.661 84.9431 418.505 83.0537 423.272 80.596C428.157 78.2006 431.44 75.4114 433.122 72.2283C436.236 66.3339 434.375 61.5803 427.537 57.9675C420.817 54.4171 412.855 53.0754 403.651 53.9424C401.538 47.0957 401.092 40.3758 402.314 33.7828C402.603 31.5228 403.121 29.6855 403.869 28.2708C404.679 26.7383 405.721 25.4793 406.995 24.494C409.558 21.9272 415.446 21.3435 424.659 22.7431C433.991 24.205 443.018 27.2406 451.742 31.85C464.946 38.8263 473.353 46.8879 476.965 56.0347C480.577 65.1816 479.798 74.6474 474.628 84.4322C472.261 88.912 468.806 92.7411 464.261 95.9196C459.897 99.0424 455.251 101.413 450.324 103.032C445.577 104.596 440.923 105.983 436.363 107.193C425.199 110.342 418.651 113.744 416.72 117.398L413.917 122.703C413.17 124.118 410.428 124.027 405.693 122.429C401.019 120.714 396.914 118.922 393.378 117.053ZM391.834 161.93C391.46 162.638 386.381 160.406 376.596 155.236C366.929 150.129 362.252 147.28 362.563 146.691L377.232 118.928C377.73 117.985 382.813 120.067 392.48 125.175C402.265 130.344 407.001 133.224 406.69 133.814L391.834 161.93Z" fill="#C54432"/>
<path d="M226.682 101.655L235.409 72.6375L248.386 81.6701L261.481 67.6085L268.918 86.5421L279.569 82.7238L272.411 110.387C251.477 112.826 233.203 105.582 226.682 101.655Z" fill="#CF8C3D"/>
<path d="M226.682 101.655L235.409 72.6375L248.386 81.6701L261.481 67.6085L268.918 86.5421L279.569 82.7238L272.411 110.387M226.682 101.655C231.46 98.404 267.12 102.099 272.411 110.387M226.682 101.655C233.203 105.582 251.477 112.826 272.411 110.387" stroke="#252525" stroke-width="5" stroke-linecap="round"/>
<path d="M153.613 344.022C163.935 302.451 212.695 294.322 235.785 295.455C256.611 287.869 304.307 282.209 328.483 320.248C336.8 333.333 337.736 353.44 335.495 375.947C342.326 375.494 356.394 369.426 358.024 348.776C360.061 322.965 351.233 296.134 358.024 265.907C364.815 235.68 397.752 190.509 416.088 201.377C434.424 212.245 395.715 248.586 392.998 268.624C390.282 288.662 394.356 371.528 388.244 384.438C382.132 397.347 358.024 432.379 358.024 432.379C375.114 448.497 396.221 484.899 365.633 553.234C366.067 556.973 365.749 560.367 365.155 563.083C363.344 565.687 358.839 570.351 355.308 568.177C354.176 570.781 349.399 575.446 339.349 573.272C338.217 574.064 334.374 576.652 328.483 575.649C312.524 572.932 282.643 562.064 280.945 559.007C279.078 555.645 276.845 555.001 276.813 551.536C265.358 548.275 251.047 552.894 245.323 555.611C246.651 566.819 229.673 571.234 225.259 572.932C216.046 576.476 192.322 587.876 185.871 588.216C180.709 588.487 174.439 584.819 173.647 582.442C162.238 586.789 157.801 582.895 157.008 580.404C149.131 581.763 145.35 577.8 144.445 575.649C142.08 569.079 142.381 564.361 144.445 560.541C134.032 557.426 112.731 546.373 110.829 527.082C105.396 471.965 151.236 437.766 157.008 397.347C152.27 377.323 150.001 358.57 153.613 344.022Z" fill="#F5EDF0"/>
<path d="M157.008 580.404C149.131 581.763 145.35 577.8 144.445 575.649C142.08 569.079 142.381 564.361 144.445 560.541M157.008 580.404C155.537 574.63 154.36 562.268 161.423 559.007M157.008 580.404C157.801 582.895 162.238 586.789 173.647 582.442M173.647 582.442C172.741 575.876 172.356 562.472 178.061 561.385M173.647 582.442C174.439 584.819 180.709 588.487 185.871 588.216C192.322 587.876 216.046 576.476 225.259 572.932C229.673 571.234 246.651 566.819 245.323 555.611M229.333 401.419C226.599 414.79 239.631 524.41 245.323 555.611M355.308 568.177C358.839 570.351 363.344 565.687 365.155 563.083C365.749 560.367 366.067 556.973 365.633 553.234M355.308 568.177C356.666 562.064 357.685 548.751 350.893 544.403M355.308 568.177C354.176 570.781 349.399 575.446 339.349 573.272M339.349 573.272C339.575 566.592 339.009 552.079 334.934 547.46M339.349 573.272C338.217 574.064 334.374 576.652 328.483 575.649C312.524 572.932 282.643 562.064 280.945 559.007C279.078 555.645 276.845 555.001 276.813 551.536M262.61 401.419C273.042 411.599 276.344 500.251 276.813 551.536M245.323 555.611C251.047 552.894 265.358 548.275 276.813 551.536M333.013 394.966C324.356 450.342 304.458 511.996 328.483 519.271C356.246 527.678 364.33 542.009 365.633 553.234M333.013 394.966C332.861 402.098 335.138 417.721 345.461 423.155C348.379 424.691 353.03 427.669 358.024 432.379M333.013 394.966C334.022 388.509 334.879 382.137 335.495 375.947M365.633 553.234C396.221 484.899 375.114 448.497 358.024 432.379M144.445 560.541C150.382 549.551 170.906 545.984 184.512 527.082C197.715 508.741 169.195 448.845 157.008 397.347M144.445 560.541C134.032 557.426 112.731 546.373 110.829 527.082C105.396 471.965 151.236 437.766 157.008 397.347M157.008 397.347C152.27 377.323 150.001 358.57 153.613 344.022C163.935 302.451 212.695 294.322 235.785 295.455C256.611 287.869 304.307 282.209 328.483 320.248C336.8 333.333 337.736 353.44 335.495 375.947M335.495 375.947C342.326 375.494 356.394 369.426 358.024 348.776C360.061 322.965 351.233 296.134 358.024 265.907C364.815 235.68 397.752 190.509 416.088 201.377C434.424 212.245 395.714 248.586 392.998 268.624C390.282 288.662 394.356 371.528 388.244 384.438C382.132 397.347 358.024 432.379 358.024 432.379" stroke="#252525" stroke-width="5"/>
<path d="M218.302 123.947C233.786 120.777 268.673 124.724 282.75 131.105C294.167 116.951 320.568 90.9876 334.832 100.372C352.662 112.102 343.278 182.014 334.832 185.064C335.614 188.114 337.084 195.058 336.709 198.436C343.512 206.569 356.181 228.184 352.427 249.58C347.735 276.325 313.014 314.331 274.539 317.146C270.472 323.481 262.408 331.921 241.928 335.091C227.832 337.273 210.335 331.457 204.157 328.642C190.237 334.507 153.065 323.71 141.117 309.285C115.78 278.692 126.738 251.457 128.614 248.876C125.298 241.492 120.258 226.185 121.359 213.92C108.763 195.387 91.4628 152.475 107.416 134.27C115.333 125.235 149.26 140.958 162.163 155.035C169.748 143.539 190.538 129.631 218.302 123.947Z" fill="#F5EDF0"/>
<path d="M334.832 100.372C320.568 90.9876 294.167 116.951 282.75 131.105C268.673 124.724 233.786 120.777 218.302 123.947C190.538 129.631 169.748 143.539 162.163 155.035C149.26 140.958 115.333 125.235 107.416 134.27M334.832 100.372C352.662 112.102 343.278 182.014 334.832 185.064M334.832 100.372C333.106 99.4307 302.607 136.616 302.138 147.173C301.669 157.73 320.374 149.055 334.832 185.064M334.832 185.064C335.614 188.114 337.084 195.058 336.709 198.436C343.512 206.569 356.181 228.184 352.427 249.58C347.735 276.325 313.014 314.331 274.539 317.146C270.472 323.481 262.408 331.921 241.928 335.091C227.832 337.273 210.335 331.457 204.157 328.642C190.237 334.507 153.065 323.71 141.117 309.285C115.78 278.692 126.738 251.457 128.614 248.876C125.298 241.492 120.258 226.185 121.359 213.92M121.359 213.92C121.634 210.859 122.291 207.987 123.453 205.475C125.547 200.902 141.434 182.249 143.31 174.152C146.876 158.762 123.453 138.962 107.416 134.27M121.359 213.92C108.763 195.387 91.4628 152.475 107.416 134.27M235.829 279.844C238.644 279.61 238.879 275.387 241.928 271.868C244.978 268.349 253.424 272.102 252.251 264.83C251.313 259.011 239.035 257.4 233.014 257.322C226.21 257.322 215.887 266.237 216.357 269.287C216.826 272.337 221.752 272.337 226.914 273.275C232.075 274.214 233.014 280.079 235.829 279.844ZM235.829 279.844C236.298 285.944 234.421 298.566 223.16 300.255C211.899 301.944 204.705 297.831 202.515 295.563M235.829 279.844C236.142 284.615 239.958 294.296 252.72 294.859C265.483 295.422 274.617 289.776 277.588 286.882M157.002 225.885C158.175 228.309 164.509 233.439 180.462 234.566C200.403 235.973 208.849 236.677 208.38 246.296M308.087 200.548C307.774 202.894 304.099 208.759 291.899 213.451C276.65 219.316 253.659 229.873 255.77 237.381" stroke="#252525" stroke-width="5" stroke-linecap="round"/>
<path d="M252.25 264.83C251.311 259.011 239.034 257.4 233.012 257.322C226.209 257.322 215.886 266.237 216.355 269.287C216.825 272.337 221.751 272.337 226.913 273.275C232.074 274.214 233.012 280.079 235.827 279.844C238.643 279.61 238.877 275.387 241.927 271.868C244.977 268.349 253.423 272.102 252.25 264.83Z" fill="#DB755F" stroke="#252525" stroke-width="5" stroke-linecap="round"/>
<path d="M334.832 185.063C343.278 182.013 352.662 112.101 334.832 100.371C333.106 99.43 302.607 136.615 302.138 147.172C301.668 157.729 320.374 149.054 334.832 185.063Z" fill="#DB755F"/>
<path d="M123.453 205.474C122.291 207.986 121.634 210.858 121.359 213.92C108.763 195.386 91.4628 152.474 107.416 134.269C123.453 138.961 146.876 158.762 143.31 174.152C141.434 182.248 125.547 200.902 123.453 205.474Z" fill="#DB755F"/>
<path d="M334.832 185.063C343.278 182.013 352.662 112.101 334.832 100.371C333.106 99.43 302.607 136.615 302.138 147.172C301.668 157.729 320.374 149.054 334.832 185.063Z" stroke="#252525" stroke-width="5" stroke-linecap="round"/>
<path d="M123.453 205.474C122.291 207.986 121.634 210.858 121.359 213.92C108.763 195.386 91.4628 152.474 107.416 134.269C123.453 138.961 146.876 158.762 143.31 174.152C141.434 182.248 125.547 200.902 123.453 205.474Z" stroke="#252525" stroke-width="5" stroke-linecap="round"/>
</svg>
