<svg width="30" height="30" viewBox="0 0 30 30" fill="none" xmlns="http://www.w3.org/2000/svg">
<mask id="mask0_959_936" style="mask-type:alpha" maskUnits="userSpaceOnUse" x="0" y="0" width="30" height="30">
<rect width="30" height="30" fill="#D9D9D9"/>
</mask>
<g mask="url(#mask0_959_936)">
<path d="M11.25 16.25H13.75V12.8125H16.25V16.25H18.75V10.3125L15 7.8125L11.25 10.3125V16.25ZM15 24.1875C17.5417 21.8542 19.4271 19.7344 20.6563 17.8281C21.8854 15.9219 22.5 14.2292 22.5 12.75C22.5 10.4792 21.776 8.61979 20.3281 7.17188C18.8802 5.72396 17.1042 5 15 5C12.8958 5 11.1198 5.72396 9.67188 7.17188C8.22396 8.61979 7.5 10.4792 7.5 12.75C7.5 14.2292 8.11458 15.9219 9.34375 17.8281C10.5729 19.7344 12.4583 21.8542 15 24.1875ZM15 27.5C11.6458 24.6458 9.14062 21.9948 7.48438 19.5469C5.82812 17.099 5 14.8333 5 12.75C5 9.625 6.00521 7.13542 8.01563 5.28125C10.026 3.42708 12.3542 2.5 15 2.5C17.6458 2.5 19.974 3.42708 21.9844 5.28125C23.9948 7.13542 25 9.625 25 12.75C25 14.8333 24.1719 17.099 22.5156 19.5469C20.8594 21.9948 18.3542 24.6458 15 27.5Z" fill="#F5EDF0"/>
</g>
</svg>
