<svg width="212" height="250" viewBox="0 0 212 250" fill="none" xmlns="http://www.w3.org/2000/svg">
<path fill-rule="evenodd" clip-rule="evenodd" d="M119.539 0L124.79 13.3461L133.432 10.2535L127.612 32.7107L126.516 32.8381C112.458 34.4729 100.158 29.6425 95.5894 26.8962L94.2447 26.0878L100.952 3.82553L110.063 10.1563L119.539 0ZM118.43 6.82594L110.933 14.862L103.225 9.50676L99.1632 22.9883C99.9304 22.9333 100.773 22.9098 101.664 22.9138C104.429 22.9265 107.813 23.2054 111.191 23.7203C114.562 24.2341 118.005 24.9945 120.868 25.9976C122.298 26.4989 123.639 27.0797 124.771 27.7531C124.804 27.7724 124.836 27.792 124.869 27.8117C124.893 27.826 124.916 27.8405 124.94 27.855L127.98 16.1281L122.817 17.9755L118.43 6.82594ZM120.902 29.6345C120.61 29.5195 120.304 29.4058 119.984 29.2937C117.453 28.4065 114.282 27.6955 111.06 27.2044C108.062 26.7474 105.086 26.4909 102.633 26.4491C107.173 28.1331 113.637 29.7267 120.902 29.6345ZM119.734 45.1883C118.583 43.8135 117.737 41.8735 117.729 39.9743C117.704 39.9546 117.678 39.9344 117.651 39.9138C117.431 39.7652 117.162 39.6007 116.836 39.4256C115.901 38.9236 114.624 38.4008 113.023 37.9565C110.393 37.2269 106.94 36.7233 102.787 36.8455C109.076 49.2007 109.616 64.1029 106.089 77.2663C102.323 91.3188 93.8091 103.774 82.1539 109.074C79.8461 110.123 77.6314 110.885 75.5145 111.4C73.4341 111.906 71.4483 112.173 69.5616 112.242C65.6888 112.384 62.2339 111.688 59.2373 110.493C55.1661 108.869 52.0009 106.351 49.8061 103.875C49.7815 103.962 49.7552 104.055 49.7276 104.152L49.6585 104.396L49.6575 104.399L49.6567 104.402C49.5534 104.766 49.4377 105.174 49.3267 105.569C49.2879 105.707 49.2494 105.844 49.2116 105.98C49.1403 106.239 49.0733 106.484 49.013 106.707C48.9321 107.008 48.865 107.261 48.8164 107.453C48.7843 107.58 48.7672 107.653 48.7592 107.687L48.7557 107.702L48.7545 107.707L48.7537 107.71C48.7522 107.72 48.7506 107.729 48.7489 107.739C48.1199 111.9 48.1501 119.137 51.2377 125.325C52.7705 128.396 55.0487 131.198 58.3785 133.274C61.7102 135.351 66.1946 136.765 72.2336 136.905C73.6855 136.938 74.986 136.745 76.363 136.541L76.3633 136.541C76.8398 136.47 77.3256 136.398 77.8299 136.333C83.5497 135.601 87.4356 134.558 89.9997 133.495C92.1209 132.616 93.2133 131.775 93.7361 131.193C91.9239 129.574 90.0669 127.687 88.5699 125.813C87.677 124.695 86.8821 123.545 86.3025 122.429C85.7379 121.342 85.2962 120.134 85.2962 118.941V118.909L85.2974 118.876L85.3002 118.796C85.332 117.879 85.3978 115.978 86.7865 114.451C88.26 112.831 90.7505 112.087 94.5035 112.294C98.8423 112.534 101.76 112.826 103.603 113.57C104.609 113.977 105.447 114.572 106.009 115.478C106.547 116.344 106.71 117.3 106.767 118.171C106.883 119.914 106.27 121.341 105.4 122.515C104.569 123.637 103.444 124.605 102.433 125.455L102.263 125.598L102.263 125.598C100.607 126.99 99.1785 128.191 98.3253 129.682C101.27 131.328 106.299 133.562 112.529 135.109C115.413 135.825 118.542 136.39 121.83 136.684C123.428 136.826 125.062 136.904 126.723 136.904C134.924 136.904 141.915 132.349 146.354 126.317C150.625 120.514 152.259 113.748 150.728 108.828C145.192 106.596 135.698 99.3226 134.94 85.1079C134.473 76.3586 133.42 65.7473 131.604 57.7792C130.689 53.761 129.618 50.5986 128.437 48.6813C127.845 47.7205 127.33 47.2473 126.958 47.0545C126.789 46.9668 126.626 46.9198 126.426 46.9437C126.36 46.9515 126.29 46.967 126.215 46.9912C126.152 47.0113 126.086 47.0374 126.014 47.0701C123.426 48.2605 121.06 46.7711 119.734 45.1883ZM125.119 43.5437C124.912 43.6095 124.704 43.6898 124.498 43.7848L124.487 43.7897C124.098 43.9617 123.392 43.9163 122.515 42.8685C121.908 42.1437 121.523 41.2509 121.398 40.4705L121.42 40.4336C122.286 39.0256 123.853 37.4179 126.403 36.8669C128.963 36.314 132.874 36.7465 138.585 40.1825C138.959 40.4076 139.333 40.632 139.705 40.856L139.72 40.865C146.841 45.1427 153.709 49.2684 158.532 54.481C163.492 59.842 166.229 66.2956 164.517 75.3181C162.685 84.9668 160.725 93.0435 158.494 98.5356C157.374 101.295 156.244 103.249 155.14 104.424C154.506 105.099 153.951 105.453 153.449 105.6C153.269 105.652 153.097 105.679 152.931 105.684C152.817 105.687 152.705 105.681 152.596 105.667C148.244 104.146 139.253 97.9258 138.559 84.9155C138.088 76.0899 137.022 65.2411 135.139 56.9768C134.205 52.8788 133.031 49.2319 131.524 46.786C130.772 45.5653 129.831 44.4683 128.63 43.8449C127.816 43.4225 126.951 43.2539 126.075 43.3435C125.757 43.3761 125.438 43.4428 125.119 43.5437ZM154.532 109.054C155.875 115.207 153.625 122.547 149.274 128.459C144.319 135.191 136.332 140.522 126.723 140.522C125.353 140.522 124.002 140.472 122.676 140.379C121.716 141.813 120.422 142.772 119.174 143.39C118.434 143.755 117.69 144.013 117 144.184C117.08 147.892 114.823 150.233 112.847 151.138L112.679 151.215L112.5 151.256C108.037 152.286 104.098 151.507 100.79 149.784C98.0819 149.868 93.9975 149.475 89.7257 148.072C85.4346 146.662 80.8485 144.197 77.304 140.061L77.1102 140.09L77.11 140.09H77.11C75.6734 140.304 73.9433 140.563 72.1494 140.521C65.5745 140.368 60.4313 138.819 56.4588 136.342C52.4844 133.864 49.7817 130.52 47.994 126.937C44.4499 119.835 44.4707 111.747 45.1724 107.155C45.1755 107.135 45.1794 107.112 45.1839 107.088C45.1861 107.076 45.1884 107.064 45.1908 107.051C45.2402 106.791 45.3388 106.413 45.4283 106.077C45.513 105.76 45.6138 105.393 45.7188 105.016C45.8022 104.713 45.8911 104.393 45.9816 104.068C42.1059 102.79 36.3478 99.3955 34.5959 92.4941C33.9471 89.9383 33.8545 85.7231 34.3205 80.8915C34.7921 76.003 35.8543 70.2944 37.6395 64.6777C41.1606 53.5992 47.721 42.2102 58.7802 39.0117C63.4417 37.6636 68.3328 38.467 71.0411 42.2002C77.1908 38.6328 83.9231 36.3166 89.9287 34.9411C91.7237 34.53 93.4537 34.2029 95.084 33.9515C96.7264 33.6982 98.2675 33.5218 99.6714 33.4138C105.486 32.8771 110.266 33.4082 113.836 34.3654C115.62 34.8439 117.122 35.4342 118.307 36.0655C118.661 36.2542 119 36.4532 119.317 36.662C120.7 35.1575 122.734 33.7691 125.529 33.2225C129.345 32.4763 134.265 33.3595 140.456 37.0844C140.883 37.341 141.311 37.5982 141.741 37.856L141.743 37.8573C148.718 42.0443 156.006 46.4197 161.194 52.0267C166.82 58.1076 170.033 65.6896 168.078 75.9914C166.241 85.6669 164.228 94.0464 161.853 99.8945C160.671 102.806 159.34 105.242 157.784 106.898C156.842 107.901 155.753 108.677 154.532 109.054ZM46.8003 100.531C43.721 99.4434 39.4086 96.7264 38.1087 91.6056C37.6163 89.666 37.4729 85.9531 37.9276 81.2382C38.3769 76.5803 39.3924 71.124 41.0936 65.7716C44.5452 54.912 50.592 45.1459 59.7887 42.4861C63.3812 41.4471 66.2804 42.1279 67.9138 44.0934L67.6941 44.2313C67.7418 44.2287 67.7816 44.2284 67.8148 44.2295C59.3841 49.9795 52.5101 58.4779 51.3145 70.5956C49.8394 85.5474 48.5721 93.4046 47.5788 97.9901C47.5521 97.9607 47.5253 97.9308 47.4984 97.9004C47.49 97.8908 47.4816 97.8812 47.4731 97.8716C47.4145 98.1214 47.2285 98.8656 46.8003 100.531ZM74.6824 107.879C76.5674 107.419 78.5574 106.734 80.6511 105.782C91.0041 101.074 98.9969 89.7297 102.587 76.3316C106.071 63.3321 105.305 48.7618 98.8288 37.1194C98.3743 37.1645 97.9069 37.2167 97.4278 37.2763C94.9604 37.5834 92.184 38.0869 89.2617 38.8215C83.4452 40.2838 77.0506 42.6621 71.3632 46.2322C62.8433 51.5805 56.0511 59.4989 54.9213 70.95C53.3661 86.7136 52.0285 94.7629 50.9649 99.4606C52.648 102.023 55.9056 105.269 60.582 107.134C63.0933 108.135 66.0463 108.751 69.4314 108.627C71.0797 108.567 72.8304 108.331 74.6824 107.879ZM118.053 139.88C117.296 139.77 116.549 139.647 115.814 139.513C115.99 139.893 116.145 140.267 116.281 140.633C116.684 140.523 117.125 140.366 117.565 140.148C117.731 140.066 117.894 139.977 118.053 139.88ZM111.008 138.455C109.151 137.975 107.396 137.438 105.763 136.873C106.246 137.543 106.65 138.324 106.757 139.18C106.881 140.171 106.177 141.075 105.184 141.199C104.191 141.323 103.285 140.62 103.161 139.629C103.15 139.539 103.022 139.167 102.433 138.509C101.888 137.901 101.117 137.234 100.208 136.557C98.8873 135.572 97.3854 134.647 96.1183 133.939C95.3615 134.687 94.3431 135.402 93.0519 136.068C94.6955 139.538 97.7961 143.982 102.093 146.376C104.749 147.856 107.868 148.561 111.486 147.776C112.472 147.252 113.83 145.817 113.224 143.045C112.96 141.836 112.313 140.311 111.008 138.455ZM89.7087 137.47C87.5908 138.199 84.9564 138.865 81.704 139.417C84.4284 141.934 87.6748 143.59 90.8586 144.636C92.4449 145.157 93.9977 145.52 95.4357 145.763C92.8167 143.114 90.9029 140.026 89.7087 137.47ZM95.2902 127.708C96.5026 125.691 98.2799 124.207 99.7093 123.014C99.8421 122.903 99.9718 122.795 100.098 122.689C101.142 121.81 101.944 121.096 102.486 120.365C102.989 119.686 103.196 119.086 103.151 118.41C103.109 117.772 103.008 117.511 102.929 117.384C102.876 117.298 102.746 117.126 102.243 116.923C101.069 116.449 98.8086 116.154 94.3034 115.906C90.9812 115.722 89.8579 116.456 89.4695 116.883C89.0436 117.351 88.9571 117.988 88.9203 118.967C88.9274 119.324 89.0801 119.918 89.5197 120.764C89.9553 121.603 90.5995 122.552 91.4031 123.558C92.5213 124.957 93.8897 126.395 95.2902 127.708ZM83.318 88.9987C83.318 94.9528 79.5409 99.7796 74.8815 99.7796C70.2222 99.7796 66.445 94.9528 66.445 88.9987C66.445 83.0446 70.2222 78.2178 74.8815 78.2178C79.5409 78.2178 83.318 83.0446 83.318 88.9987ZM119.061 98.071C123.72 98.071 127.497 93.2442 127.497 87.2901C127.497 81.336 123.72 76.5092 119.061 76.5092C114.402 76.5092 110.624 81.336 110.624 87.2901C110.624 93.2442 114.402 98.071 119.061 98.071ZM0.0749097 167.877C0.0749097 163.321 0.408571 159.154 1.07589 155.376C1.79883 151.542 3.07786 148.264 4.913 145.541C6.80375 142.763 9.38962 140.596 12.6706 139.04C15.9516 137.485 20.178 136.707 25.3498 136.707C29.02 136.707 32.6069 137.207 36.1103 138.207C39.6694 139.207 42.8113 140.735 45.5362 142.791C48.3167 144.791 50.5412 147.319 52.2095 150.375C53.8778 153.376 54.7119 156.932 54.7119 161.043C54.7119 163.655 54.4339 166.21 53.8778 168.711C53.3217 171.211 52.4597 173.517 51.2919 175.628C50.1241 177.74 48.5948 179.629 46.7041 181.296C44.8689 182.907 42.6445 184.185 40.0308 185.13C38.0845 185.796 36.1381 186.296 34.1918 186.63C32.2454 186.908 30.2713 187.158 28.2693 187.38C27.9912 187.435 27.602 187.491 27.1015 187.547C26.601 187.602 26.2951 187.769 26.1839 188.047C26.01 188.464 25.7705 196.257 25.5882 202.187L25.5882 202.187C25.479 205.74 25.3904 208.624 25.3487 208.853C25.2375 209.464 25.0985 210.076 24.9316 210.687C24.8204 211.242 24.6258 211.826 24.3477 212.437C24.1253 213.048 23.736 213.659 23.1799 214.271C22.2345 215.271 21.1502 215.965 19.9267 216.354C18.7033 216.743 17.4243 216.938 16.0896 216.938C13.8096 216.938 11.8076 216.438 10.0837 215.437C8.41541 214.382 6.96955 213.048 5.74612 211.437C4.57831 209.77 3.60513 207.881 2.82659 205.77C2.04804 203.603 1.43633 201.408 0.991449 199.185C0.546568 196.907 0.240712 194.713 0.0738812 192.601C-0.0607104 190.853 0.0225327 176.955 0.0597311 170.744C0.0686413 169.257 0.0749097 168.21 0.0749097 167.877ZM25.9337 167.961C25.9337 168.461 26.0171 168.989 26.1839 169.544C26.4063 170.044 26.7122 170.517 27.1015 170.961C27.4907 171.406 27.9634 171.795 28.5195 172.128C29.1312 172.406 29.8264 172.545 30.6049 172.545C31.6615 172.545 32.5234 172.267 33.1908 171.711C33.8581 171.156 34.3864 170.461 34.7757 169.628C35.1649 168.794 35.443 167.905 35.6098 166.961C35.7766 165.96 35.8601 165.044 35.8601 164.21C35.8601 163.599 35.8044 162.988 35.6932 162.377C35.582 161.71 35.3596 161.099 35.0259 160.543C34.7479 159.987 34.3586 159.543 33.8581 159.21C33.4132 158.821 32.8293 158.626 32.1064 158.626C30.7717 158.626 29.6874 158.932 28.8532 159.543C28.019 160.099 27.3795 160.821 26.9346 161.71C26.5454 162.599 26.2673 163.599 26.1005 164.71C25.9893 165.822 25.9337 166.905 25.9337 167.961ZM200.929 173.239C200.681 171.231 201.54 166.509 206.963 163.693C212.386 160.876 213.13 154.552 210.623 150.49C206.963 144.56 197.829 142.598 188.389 147.985C177.948 153.943 177.475 167.078 178.966 174.864C179.376 177.003 180.062 179.013 180.779 181.116C182.674 186.67 184.79 192.872 182.627 203.803C181.817 207.896 178.148 210.989 174.66 213.929L174.66 213.93C171.127 216.908 167.781 219.73 167.781 223.274C167.781 234.242 188.389 238.624 200.929 221.107C211.295 206.629 207.07 193.741 203.598 183.15C202.426 179.576 201.34 176.263 200.929 173.239ZM157.546 213.123L157.542 213.121C155.584 212.074 153.879 210.596 152.423 208.715L152.419 208.71L152.416 208.705C150.982 206.815 149.871 204.563 149.064 201.973C148.25 199.359 147.851 196.49 147.851 193.378C147.851 190.241 148.207 187.281 148.927 184.504L148.929 184.498L148.93 184.492C149.675 181.725 150.72 179.295 152.081 177.221C153.446 175.105 155.104 173.42 157.065 172.202C159.085 170.927 161.321 170.289 163.742 170.289C166.142 170.289 168.36 170.808 170.371 171.867C172.373 172.922 174.065 174.435 175.45 176.377C176.829 178.312 177.869 180.625 178.591 183.288C179.344 185.969 179.712 188.957 179.712 192.24C179.712 195.171 179.311 197.993 178.505 200.702C177.729 203.359 176.642 205.728 175.23 207.792C173.844 209.858 172.196 211.529 170.28 212.777C168.324 214.05 166.203 214.703 163.94 214.703C161.682 214.703 159.545 214.176 157.55 213.125L157.546 213.123ZM164.141 199.307C164.476 199.038 164.778 198.692 165.044 198.254L165.055 198.234L165.068 198.216C165.359 197.768 165.598 197.246 165.777 196.638C165.956 196.029 166.04 195.456 166.04 194.914C166.04 194.419 165.959 194.004 165.818 193.651L165.812 193.637L165.807 193.622C165.644 193.185 165.448 192.868 165.239 192.637L165.218 192.614L165.197 192.589C164.951 192.29 164.7 192.088 164.45 191.953L164.41 191.932L164.371 191.908C164.108 191.743 163.945 191.716 163.861 191.716C163.366 191.716 162.899 191.916 162.417 192.58C161.947 193.227 161.643 194.188 161.643 195.597C161.643 197.015 161.912 198.028 162.341 198.734C162.786 199.388 163.181 199.534 163.543 199.534C163.711 199.534 163.902 199.485 164.141 199.307ZM140.255 192.379C141.991 192.379 143.311 191.468 144.199 190.424C144.987 189.529 145.608 188.482 146.097 187.339L146.11 187.308L146.123 187.276C146.6 186.085 146.956 184.813 147.2 183.47C147.444 182.127 147.567 180.78 147.567 179.429C147.567 176.179 147.052 173.211 145.918 170.604C144.896 168.127 143.573 165.982 141.901 164.251C140.31 162.603 138.542 161.312 136.586 160.455C134.832 159.674 133.058 159.185 131.325 159.185C129.279 159.185 127.309 159.739 125.446 160.741L125.434 160.747L125.423 160.753C123.631 161.737 121.972 163.093 120.431 164.758L120.42 164.77L120.409 164.783C118.894 166.456 117.524 168.433 116.282 170.681C115.026 172.895 113.952 175.344 113.051 178.017C112.146 180.704 111.441 183.566 110.932 186.599C110.416 189.666 110.161 192.847 110.161 196.14C110.161 201.002 110.619 205.504 111.557 209.632L111.558 209.637L111.559 209.642C112.486 213.658 113.755 217.191 115.405 220.193L115.418 220.217L115.432 220.241C117.111 223.167 119.13 225.571 121.534 227.343C123.986 229.149 126.706 230.14 129.639 230.14C133.164 230.14 136.455 228.871 139.459 226.581C140.422 225.858 141.422 224.959 142.455 223.914C143.632 222.754 144.69 221.41 145.64 219.901C146.665 218.322 147.491 216.565 148.134 214.649C148.86 212.58 149.207 210.372 149.207 208.05C149.207 205.443 148.807 203.047 147.817 201.03C146.859 199.021 145.118 197.038 142.306 197.038C140.096 197.038 138.386 198.216 137.2 199.78C136.367 200.862 135.536 202.087 134.705 203.446C134.043 204.52 133.305 205.507 132.494 206.41C132.141 206.786 131.826 206.912 131.396 206.917C131.119 206.597 130.832 206.163 130.557 205.58C130.271 204.849 130.028 203.949 129.848 202.858C129.665 201.744 129.569 200.522 129.569 199.187C129.569 197.394 129.72 195.747 130.011 194.238C130.337 192.704 130.751 191.483 131.22 190.532C131.73 189.5 132.254 188.834 132.735 188.417C133.057 188.137 133.274 188.063 133.419 188.045C133.423 188.048 133.427 188.051 133.431 188.055C133.435 188.058 133.439 188.061 133.443 188.064L133.544 188.151L133.653 188.228C134.112 188.554 134.557 188.932 134.987 189.368L135.049 189.43L135.114 189.489C135.641 189.963 136.151 190.436 136.647 190.909L136.718 190.977L136.794 191.04C137.682 191.781 138.852 192.379 140.255 192.379ZM91.7621 199.708C91.3863 207.759 92.0298 224.495 97.6104 227.023C104.586 230.183 112.126 239.311 106.066 245.561C105.79 245.845 105.519 246.127 105.253 246.404L105.252 246.404L105.249 246.407L105.249 246.408L105.248 246.409C99.6621 252.219 90.8807 250.49 85.7024 244.718C80.524 238.947 77.3552 241.941 73.8466 245.256C70.0985 248.797 62.0647 249.528 58.5746 246.684C50.45 240.063 55.2353 231.376 60.9594 226.81C62.5816 225.516 64.0366 224.356 64.8457 223.301C68.5097 218.526 69.6372 216.069 69.9895 208.345C70.0226 207.62 70.0686 206.927 70.113 206.26C70.8058 195.839 68.6022 194.825 60.8034 191.237L60.8024 191.237C59.8214 190.785 58.7517 190.293 57.5882 189.736C50.4331 186.313 48.9657 167.618 63.9741 164.95C68.0211 164.23 71.9225 166.198 74.0932 168.813C76.3155 171.489 78.6715 174.326 83.4477 174.077C87.5573 173.863 90.3721 171.109 92.967 168.569C95.5619 166.03 100.911 163.77 104.605 166.26C110.532 170.255 112.523 174.217 112.045 179.385L112.044 179.395C112.025 179.607 112.005 179.824 111.985 180.046C109.455 189.735 103.745 189.739 99.3931 189.743C97.1513 189.744 95.2699 189.746 94.3693 191.071C94.0772 191.5 93.8047 191.845 93.5543 192.163L93.554 192.163L93.5539 192.163C92.4381 193.576 91.7621 194.433 91.7621 199.708ZM86.1327 203.502C85.6995 205.297 84.2834 206.497 82.9698 206.182C81.6561 205.868 80.9425 204.158 81.3757 202.363C81.8089 200.569 83.225 199.369 84.5386 199.684C85.8523 199.998 86.566 201.708 86.1327 203.502ZM85.8875 206.543C84.9761 207.767 85.042 209.354 86.0347 210.087C87.0274 210.82 88.571 210.421 89.4825 209.197C90.3939 207.973 90.328 206.386 89.3353 205.653C88.3426 204.92 86.799 205.319 85.8875 206.543ZM83.2403 208.012C82.3922 206.989 81.2131 206.734 80.7295 206.734C79.1332 206.734 78.5069 207.757 77.7624 208.973C77.2318 209.84 76.6411 210.805 75.5964 211.568C73.5878 213.035 74.2016 214.735 74.7595 215.402C75.1315 215.994 76.2994 217.035 77.9956 216.457C78.4548 216.301 78.8199 216.152 79.1337 216.025L79.1342 216.024L79.1344 216.024C80.269 215.562 80.7353 215.372 82.5708 216.069C84.8692 216.94 85.7184 216.262 86.2766 215.817L86.309 215.791C86.8669 215.346 88.206 212.957 86.1416 211.568C84.7942 210.661 84.4213 209.967 84.03 209.24C83.8218 208.852 83.6085 208.455 83.2403 208.012ZM75.4728 210.105C76.4655 209.372 76.5314 207.786 75.62 206.561C74.7085 205.337 73.1649 204.939 72.1722 205.671C71.1795 206.404 71.1136 207.991 72.025 209.215C72.9365 210.44 74.4801 210.838 75.4728 210.105ZM78.4626 206.19C77.149 206.504 75.7329 205.304 75.2997 203.51C74.8664 201.715 75.5801 200.005 76.8938 199.691C78.2074 199.376 79.6235 200.576 80.0567 202.371C80.49 204.165 79.7762 205.875 78.4626 206.19ZM39.5646 192.581C41.5873 192.02 43.8059 191.741 46.2171 191.741H50.732C51.6255 191.741 52.7138 191.815 53.9929 191.96C55.3286 192.079 56.6001 192.331 57.8063 192.717C59.0525 193.105 60.1275 193.634 61.0206 194.311C62.0142 195.038 62.5555 196.027 62.5555 197.251C62.5555 198.09 62.4298 198.913 62.1794 199.719C61.9562 200.516 61.5848 201.235 61.0692 201.87L61.0647 201.876L61.0601 201.881C60.535 202.496 59.8698 202.986 59.0784 203.359C58.2871 203.748 57.3373 203.929 56.2502 203.929C55.162 203.929 54.074 203.87 52.986 203.753L52.9843 203.753C51.9664 203.639 50.9314 203.583 49.8792 203.583C49.6022 203.583 49.1529 203.61 48.5198 203.667L48.5085 203.668L48.4973 203.669C47.8921 203.696 47.2863 203.779 46.6793 203.916L46.6686 203.919L46.6578 203.921C46.0569 204.03 45.5303 204.192 45.074 204.402L45.0684 204.404L45.0627 204.407C44.8766 204.487 44.7835 204.565 44.7404 204.619C44.7065 204.66 44.6967 204.693 44.6967 204.738C44.6967 204.743 44.697 204.746 44.6972 204.748C44.6974 204.749 44.6975 204.75 44.6976 204.75L44.6978 204.751L44.698 204.752C44.6983 204.752 44.6986 204.753 44.6992 204.755C44.7008 204.758 44.7083 204.772 44.7323 204.795C44.8846 204.902 45.0495 204.989 45.2283 205.056C45.4607 205.13 45.691 205.179 45.9196 205.204C46.1749 205.232 46.3904 205.244 46.5683 205.244C47.8278 205.244 49.1044 205.202 50.3979 205.116C51.713 205.028 53.0116 204.985 54.2938 204.985C54.7392 204.985 55.2167 205 55.7261 205.029C56.2922 205.059 56.817 205.151 57.2971 205.309C57.8009 205.445 58.2447 205.686 58.6141 206.04C59.0516 206.459 59.2446 207.033 59.2446 207.681C59.2446 209.25 58.8129 210.487 57.7697 211.124L57.7637 211.128L57.7577 211.132C56.8384 211.66 55.5281 211.892 53.8925 211.892H46.0165C45.8746 211.892 45.677 211.905 45.418 211.933L45.3912 211.936H45.3643C45.1354 211.936 44.9057 211.96 44.6748 212.009C44.4923 212.055 44.354 212.118 44.2498 212.19L44.2474 212.192C44.2464 212.198 44.2452 212.209 44.2452 212.225C44.2452 212.265 44.2574 212.43 44.6839 212.654C45.1445 212.864 45.674 213.04 46.2754 213.176C46.9205 213.315 47.5477 213.413 48.1569 213.468C48.8181 213.497 49.3071 213.511 49.6284 213.511C51.0785 213.511 52.4945 213.426 53.8764 213.255C55.2776 213.054 56.6953 212.853 58.1297 212.651C58.3165 212.619 58.5146 212.604 58.7226 212.602C58.9291 212.574 59.1254 212.559 59.3103 212.559C60.0991 212.559 60.7902 212.711 61.3374 213.07C61.8457 213.376 62.2493 213.792 62.5332 214.317C62.801 214.812 62.9724 215.353 63.0496 215.936C63.1544 216.484 63.2077 217.022 63.2077 217.549C63.2077 218.132 63.1545 218.661 63.0391 219.125C62.8973 219.696 62.516 220.196 62.0041 220.637L61.9897 220.65L61.9746 220.661C61.3902 221.098 60.5095 221.45 59.3871 221.744C58.2655 222.037 57.062 222.285 55.777 222.489C54.4928 222.693 53.2411 222.839 52.022 222.927C50.8133 223.014 49.8465 223.058 49.1267 223.058C46.7756 223.058 44.5732 222.986 42.5198 222.841C40.4381 222.693 38.5635 222.295 36.9017 221.638L36.898 221.636L36.8943 221.635C35.2113 220.939 33.7991 219.891 32.6683 218.488L32.6656 218.485L32.6629 218.481C31.5475 217.053 30.8009 215.103 30.3891 212.675L30.3887 212.672C30.1879 211.46 29.9871 210.233 29.7863 208.991L29.785 208.983L29.784 208.975C29.6131 207.708 29.5276 206.439 29.5276 205.171C29.5276 202.961 29.9261 200.993 30.7401 199.283L30.7423 199.278L30.7445 199.274C31.5884 197.575 32.7672 196.165 34.2737 195.046C35.7727 193.934 37.5395 193.115 39.5646 192.581ZM94.0698 199.883C93.9277 199.229 93.8282 198.639 93.7715 198.11C93.7148 197.582 93.7701 197.034 93.9374 196.466C94.1047 195.898 94.3872 195.392 94.7849 194.947C95.1966 194.499 95.6719 194.11 96.211 193.78C96.755 193.473 97.3438 193.205 97.9774 192.975C98.616 192.768 99.2454 192.586 99.8657 192.429C100.491 192.294 101.084 192.177 101.644 192.077L103.135 191.812C103.863 191.683 104.513 191.731 105.086 191.957C105.664 192.205 106.173 192.606 106.613 193.159C107.068 193.71 107.458 194.402 107.784 195.233C108.129 196.084 108.422 197.062 108.662 198.166C108.956 199.517 108.998 200.61 108.786 201.443C108.594 202.296 108.056 202.802 107.174 202.958C106.362 203.103 105.523 203.158 104.658 203.125C103.797 203.114 102.944 203.102 102.098 203.089C101.265 203.073 100.428 203.07 99.5865 203.079C98.745 203.088 97.8933 203.017 97.0314 202.866C96.7177 202.829 96.4107 202.754 96.1104 202.644C95.81 202.534 95.5254 202.362 95.2566 202.129C94.9926 201.918 94.756 201.633 94.5466 201.272C94.3513 200.909 94.1923 200.446 94.0698 199.883ZM99.6939 222.947C100.395 223.021 101.188 223.058 102.072 223.058C102.834 223.058 103.474 222.984 103.992 222.836C104.511 222.669 104.937 222.446 105.273 222.168C105.638 221.89 105.928 221.575 106.141 221.223C106.355 220.871 106.523 220.5 106.644 220.111C107.041 219.054 107.33 217.988 107.513 216.913C107.696 215.837 107.894 214.772 108.108 213.715C108.321 212.64 108.535 211.555 108.748 210.461C108.992 209.368 109.114 208.283 109.114 207.208C109.114 206.04 108.58 205.215 107.513 204.733C106.477 204.232 105.044 203.982 103.215 203.982C101.721 203.982 100.38 204.084 99.1909 204.288C98.0325 204.473 97.0417 204.779 96.2186 205.206C95.3955 205.613 94.7553 206.151 94.2981 206.818C93.8713 207.486 93.6579 208.302 93.6579 209.266V211.24C93.6579 211.981 93.6731 212.769 93.7036 213.604C93.7646 214.438 93.856 215.291 93.978 216.162C94.1304 217.033 94.3438 217.858 94.6181 218.637C94.923 219.415 95.3193 220.129 95.8071 220.778C96.2948 221.408 96.8893 221.909 97.5904 222.28C98.2916 222.65 98.9927 222.873 99.6939 222.947Z" fill="#F5EDF0"/>
</svg>
