<svg width="34" height="34" viewBox="0 0 34 34" fill="none" xmlns="http://www.w3.org/2000/svg">
<mask id="mask0_1_279" style="mask-type:alpha" maskUnits="userSpaceOnUse" x="0" y="0" width="34" height="34">
<rect width="34" height="34" fill="#D9D9D9"/>
</mask>
<g mask="url(#mask0_1_279)">
<path d="M5.66659 28.3334C4.88742 28.3334 4.2204 28.056 3.66554 27.5011C3.11068 26.9463 2.83325 26.2792 2.83325 25.5001V8.50008C2.83325 7.72091 3.11068 7.0539 3.66554 6.49904C4.2204 5.94418 4.88742 5.66675 5.66659 5.66675H28.3333C29.1124 5.66675 29.7794 5.94418 30.3343 6.49904C30.8892 7.0539 31.1666 7.72091 31.1666 8.50008V25.5001C31.1666 26.2792 30.8892 26.9463 30.3343 27.5011C29.7794 28.056 29.1124 28.3334 28.3333 28.3334H5.66659ZM16.9999 18.4167L5.66659 11.3334V25.5001H28.3333V11.3334L16.9999 18.4167ZM16.9999 15.5834L28.3333 8.50008H5.66659L16.9999 15.5834ZM5.66659 11.3334V8.50008V25.5001V11.3334Z" fill="#F5EDF0"/>
</g>
</svg>
