<svg width="268" height="282" viewBox="0 0 268 282" fill="none" xmlns="http://www.w3.org/2000/svg">
<g filter="url(#filter0_f_763_324)">
<ellipse cx="134" cy="150.458" rx="103.224" ry="101.543" fill="#2D8580"/>
</g>
<path d="M86.3823 230.195C45.1702 229.259 42.9867 194.136 45.1702 180.141C45.3038 179.285 47.9263 170.331 48.1197 169.597C42.8961 168.664 37.9609 158.553 34.9782 147.046C31.2498 132.661 37.1981 70.3031 72.1518 76.5518C77.3005 77.7515 80.47 73.229 83.4527 79.7824C99.6 69.8549 119.009 65.546 131.522 64.6067C149.898 62.9404 161.838 68.2517 164.279 71.4411C167.697 65.9953 176.929 58.6185 196.37 70.0743C220.671 84.3941 246.104 98.3884 240.112 129.306C234.12 160.224 227.129 181.964 217.009 180.141C224.399 198.562 204.559 230.195 175.464 230.195C172.658 230.195 169.901 230.066 167.208 229.831C164.758 235.007 158.919 236.44 156.305 236.509C157.687 242.699 154.247 246.24 151.563 247.444C144.722 248.99 138.774 247.705 133.786 244.983C125.73 245.439 106.888 242.933 95.9695 229.259C93.0525 229.624 89.873 230.275 86.3823 230.195Z" fill="#F5EDF0"/>
<path d="M131.522 64.6067C149.898 62.9404 161.838 68.2517 164.279 71.4411C167.697 65.9953 176.929 58.6185 196.37 70.0743C220.671 84.3941 246.104 98.3884 240.112 129.306C234.12 160.224 227.129 181.964 217.009 180.141M131.522 64.6067C119.009 65.546 99.6 69.8549 83.4527 79.7824M131.522 64.6067C155.358 103.986 137.381 164.129 101.429 180.141C72.667 192.951 54.1901 177.321 48.5469 167.904M217.009 180.141C224.399 198.562 204.559 230.195 175.464 230.195C172.658 230.195 169.901 230.066 167.208 229.831M217.009 180.141C209.131 177.559 193.067 166.772 191.842 144.277C190.311 116.158 184.918 75.6069 173.067 80.9443M116.609 224.519C118.975 230.584 124.832 240.097 133.786 244.983M116.609 224.519C112.1 226.35 105.476 228.067 95.9695 229.259M116.609 224.519C121.328 222.603 123.73 220.563 124.691 218.87M151.563 227.237C139.241 224.241 129.653 219.66 125.197 216.852C125.218 217.028 125.218 217.214 125.197 217.409M151.563 227.237C154.281 230.815 155.722 233.898 156.305 236.509M151.563 227.237C156.404 228.414 161.668 229.347 167.208 229.831M156.305 236.509C157.687 242.699 154.247 246.24 151.563 247.444C144.722 248.99 138.774 247.705 133.786 244.983M156.305 236.509C158.919 236.44 164.758 235.007 167.208 229.831M133.786 244.983C125.73 245.439 106.888 242.933 95.9695 229.259M95.9695 229.259C93.0525 229.624 89.873 230.275 86.3823 230.195C45.1702 229.259 42.9867 194.136 45.1702 180.141C45.3038 179.285 47.9263 170.331 48.1197 169.597M124.691 218.87C129.543 221.278 139.379 227.136 139.911 231.302M124.691 218.87C124.99 218.345 125.15 217.853 125.197 217.409M48.1197 169.597C42.8961 168.664 37.9609 158.553 34.9782 147.046C31.2498 132.661 37.1981 70.3031 72.1518 76.5518C77.3005 77.7515 80.47 73.229 83.4527 79.7824M48.1197 169.597C48.7684 167.135 47.288 173.089 48.5469 167.904M83.4527 79.7824C69.0148 88.6589 57.1847 102.027 55.2236 121.495C52.5496 148.039 50.2816 160.76 48.5469 167.904M125.197 217.409C118.473 211.84 110.75 203.509 110.75 198.562C110.861 195.546 111.109 190.191 122.667 190.816C137.115 191.597 139.585 192.693 139.911 197.52C140.444 205.396 127.727 208.065 125.197 217.409Z" stroke="#252525" stroke-width="3.5408" stroke-linecap="round"/>
<path d="M125.198 216.853C129.653 219.661 139.241 224.242 151.563 227.238C156.405 228.415 161.668 229.347 167.209 229.831C164.759 235.007 158.919 236.44 156.305 236.51C157.687 242.699 154.247 246.241 151.563 247.445C144.722 248.991 138.774 247.705 133.786 244.984C125.73 245.44 106.889 242.934 95.9697 229.259C105.476 228.067 112.1 226.35 116.609 224.52C121.328 222.604 123.73 220.563 124.692 218.87C124.99 218.345 125.15 217.854 125.198 217.41C125.219 217.214 125.218 217.028 125.198 216.853Z" fill="#F5EDF0"/>
<path d="M116.609 224.52C118.975 230.584 124.833 240.098 133.786 244.984M116.609 224.52C112.1 226.35 105.476 228.067 95.9697 229.259C106.889 242.934 125.73 245.44 133.786 244.984M116.609 224.52C121.328 222.604 123.73 220.563 124.692 218.87M151.563 227.238C139.241 224.242 129.653 219.661 125.198 216.853C125.218 217.028 125.219 217.214 125.198 217.41C125.15 217.854 124.99 218.345 124.692 218.87M151.563 227.238C154.281 230.815 155.722 233.898 156.305 236.51M151.563 227.238C156.405 228.415 161.668 229.347 167.209 229.831C164.759 235.007 158.919 236.44 156.305 236.51M156.305 236.51C157.687 242.699 154.247 246.241 151.563 247.445C144.722 248.991 138.774 247.705 133.786 244.984M124.692 218.87C129.543 221.279 139.379 227.137 139.911 231.303" stroke="#252525" stroke-width="3.5408" stroke-linecap="round"/>
<path d="M151.563 227.238C139.242 224.242 129.654 219.661 125.198 216.853C125.218 217.028 125.219 217.214 125.198 217.41C125.15 217.854 124.99 218.345 124.692 218.87C123.73 220.563 121.329 222.604 116.609 224.52C118.975 230.584 124.833 240.098 133.787 244.984C138.774 247.705 145.243 250.279 151.563 247.445C154.866 245.964 157.687 242.699 156.306 236.51C155.723 233.898 154.281 230.815 151.563 227.238Z" fill="#C54432"/>
<path d="M124.692 218.87C123.73 220.563 121.329 222.604 116.609 224.52C118.975 230.584 124.833 240.098 133.787 244.984C138.774 247.705 145.243 250.279 151.563 247.445C154.866 245.964 157.687 242.699 156.306 236.51C155.723 233.898 154.281 230.815 151.563 227.238C139.242 224.242 129.654 219.661 125.198 216.853C125.218 217.028 125.219 217.214 125.198 217.41C125.15 217.854 124.99 218.345 124.692 218.87ZM124.692 218.87C129.543 221.279 139.379 227.137 139.912 231.303" stroke="#252525" stroke-width="3.5408" stroke-linecap="round"/>
<path d="M110.751 198.563C110.751 203.509 118.474 211.841 125.199 217.41C127.728 208.066 140.445 205.397 139.912 197.521C139.586 192.693 137.116 191.598 122.669 190.817C111.11 190.192 110.862 195.547 110.751 198.563Z" fill="#252525"/>
<path d="M125.199 216.853C125.219 217.028 125.22 217.215 125.199 217.41M125.199 217.41C118.474 211.841 110.751 203.509 110.751 198.563C110.862 195.547 111.11 190.192 122.669 190.817C137.116 191.598 139.586 192.693 139.912 197.521C140.445 205.397 127.728 208.066 125.199 217.41Z" stroke="#252525" stroke-width="3.5408" stroke-linecap="round"/>
<path d="M217.01 180.142C209.131 177.56 193.068 166.772 191.843 144.277C190.312 116.158 184.919 75.6074 173.068 80.9448C168.208 83.1338 163.015 76.0631 163.814 71.1163C161.372 67.9269 149.899 62.941 131.523 64.6073C155.358 103.987 137.382 164.13 101.43 180.142C72.6677 192.952 54.1908 177.321 48.5475 167.905C47.2887 173.089 47.8837 170.26 47.2351 172.722C42.0114 171.789 30.8184 167.046 27.8357 155.538C24.1073 141.153 32.2076 82.8325 65.2974 73.4595C73.1707 71.2293 80.4706 73.2296 83.4534 79.7829C99.6007 69.8554 119.01 65.5465 131.523 64.6073C149.899 62.941 161.372 67.9269 163.814 71.1163C167.231 65.6704 176.93 58.619 196.371 70.0748C220.672 84.3946 246.105 98.3889 240.113 129.307C234.12 160.224 227.13 181.964 217.01 180.142Z" fill="#73482F"/>
<path d="M131.523 64.6073C149.899 62.941 161.372 67.9269 163.814 71.1163M131.523 64.6073C119.01 65.5465 99.6007 69.8554 83.4534 79.7829M131.523 64.6073C155.358 103.987 137.382 164.13 101.43 180.142C72.6677 192.952 54.1908 177.321 48.5475 167.905M45.1709 180.142C45.3044 179.286 47.0417 173.456 47.2351 172.722M163.814 71.1163C167.231 65.6704 176.93 58.619 196.371 70.0748C220.672 84.3946 246.105 98.3889 240.113 129.307C234.12 160.224 227.13 181.964 217.01 180.142C209.131 177.56 193.068 166.772 191.843 144.277C190.312 116.158 184.919 75.6074 173.068 80.9448C168.208 83.1338 163.015 76.0631 163.814 71.1163ZM47.2351 172.722C42.0114 171.789 30.8184 167.046 27.8357 155.538C24.1073 141.153 32.2076 82.8325 65.2974 73.4595C73.1707 71.2293 80.4706 73.2296 83.4534 79.7829M47.2351 172.722C47.8837 170.26 47.2887 173.089 48.5475 167.905M83.4534 79.7829C69.0155 88.6594 57.1854 102.028 55.2242 121.496C52.5502 148.04 50.2823 160.761 48.5475 167.905" stroke="#252525" stroke-width="3.5408" stroke-linecap="round"/>
<ellipse cx="90.7769" cy="150.655" rx="13.7817" ry="17.2488" fill="#252525"/>
<ellipse cx="162.95" cy="147.922" rx="13.7817" ry="17.2488" fill="#252525"/>
<path d="M125.98 48.96L135.218 18.9274L148.956 28.2759L162.819 13.7225L170.692 33.3183L181.968 29.3665L174.391 57.9973C152.229 60.5214 132.883 53.0241 125.98 48.96Z" fill="#CF8C3D"/>
<path d="M125.98 48.96L135.218 18.9274L148.956 28.2759L162.819 13.7225L170.692 33.3183L181.968 29.3665L174.391 57.9973M125.98 48.96C131.038 45.595 168.789 49.4197 174.391 57.9973M125.98 48.96C132.883 53.0241 152.229 60.5214 174.391 57.9973" stroke="#252525" stroke-width="3.5408" stroke-linecap="round"/>
<defs>
<filter id="filter0_f_763_324" x="0.776367" y="18.915" width="266.447" height="263.086" filterUnits="userSpaceOnUse" color-interpolation-filters="sRGB">
<feFlood flood-opacity="0" result="BackgroundImageFix"/>
<feBlend mode="normal" in="SourceGraphic" in2="BackgroundImageFix" result="shape"/>
<feGaussianBlur stdDeviation="15" result="effect1_foregroundBlur_763_324"/>
</filter>
</defs>
</svg>
