<svg width="432" height="676" viewBox="0 0 432 676" fill="none" xmlns="http://www.w3.org/2000/svg">
<path d="M262.611 310.945C268.18 318.842 286.244 339.309 313.94 358.005C348.559 381.375 440.186 474.326 420.201 538.913C434.054 562.786 439.223 612.835 349.07 622.056C301.048 658.156 243.518 682.826 222.749 667.238C214.867 661.322 207.305 654.231 200.478 646.523C184.713 647.48 151.457 648.818 144.555 646.523C138.237 644.423 135.96 639.873 134.293 627.827C110.448 630.979 61.3807 635.114 55.8765 626.446C51.8152 620.05 50.3795 604.289 56.9606 591.072C55.8765 589.372 21.803 541.675 44.4095 524.785C67.0159 507.894 83.9744 537.001 87.2898 538.276C87.3903 519.574 87.064 491.925 86.0184 451.912C82.1961 305.634 167.817 272.703 262.611 310.945Z" fill="#F5EDF0"/>
<path d="M420.201 538.913C440.186 474.326 348.559 381.375 313.94 358.005C286.244 339.309 268.18 318.842 262.611 310.945C167.817 272.703 82.1961 305.634 86.0184 451.912M420.201 538.913C411.946 565.59 382.862 596.653 349.07 622.056M420.201 538.913C434.054 562.786 439.223 612.835 349.07 622.056M302.582 548.049C293.793 560.942 276.593 579.993 259.007 585.271M173.496 432.79L184.402 550.705M185.181 559.131C180.845 560.249 176.497 562.41 173.496 567.064C172.657 568.365 171.954 569.749 171.382 571.207M185.181 559.131C188.09 558.381 190.994 558.1 193.481 557.85C203.551 556.84 213.982 562.998 232.578 579.705C240.756 587.052 249.933 587.995 259.007 585.271M185.181 559.131L184.402 550.705M171.382 571.207C157.671 576.306 130.707 591.476 132.542 611.362C133.156 618.017 133.684 623.423 134.293 627.827M171.382 571.207C163.958 590.117 178.361 621.555 200.478 646.523M200.478 646.523C207.305 654.231 214.867 661.322 222.749 667.238C243.518 682.826 301.048 658.156 349.07 622.056M200.478 646.523C184.713 647.48 151.457 648.818 144.555 646.523C138.237 644.423 135.96 639.873 134.293 627.827M134.293 627.827C110.448 630.979 61.3807 635.114 55.8765 626.446C51.8152 620.05 50.3795 604.289 56.9606 591.072M86.0184 451.912C87.064 491.925 87.3903 519.574 87.2898 538.276M86.0184 451.912C86.216 459.666 110.561 537.532 184.402 550.705M56.9606 591.072C61.5284 581.898 69.9582 573.949 84.0527 571.207C85.3223 577.126 87.0965 574.27 87.2898 538.276M56.9606 591.072C55.8765 589.372 21.803 541.675 44.4095 524.785C67.0159 507.894 83.9744 537.001 87.2898 538.276M259.007 585.271L267.853 451.912" stroke="#252525" stroke-width="6.2848"/>
<path d="M84.0527 571.208C69.9582 573.95 61.5284 581.899 56.9606 591.073C55.8765 589.373 21.803 541.676 44.4095 524.786C67.0159 507.895 83.9744 537.002 87.2898 538.277C87.0965 574.271 85.3223 577.126 84.0527 571.208Z" fill="#73482F" stroke="#252525" stroke-width="6.2848"/>
<path d="M313.939 358.005C298.389 347.507 285.875 336.452 276.904 327.377C269.902 338.024 260.565 361.782 279.239 371.632C302.581 383.945 314.464 446.147 302.581 463.343C290.698 480.539 293.483 537.222 356.272 515.355C406.503 497.862 421.689 509.765 423.003 517.903C421.704 455.704 344.95 378.939 313.939 358.005Z" fill="#73482F"/>
<path d="M262.61 310.945C265.053 314.408 269.898 320.288 276.904 327.377M420.2 538.913C422.283 532.181 423.154 525.141 423.003 517.903M276.904 327.377C285.875 336.452 298.389 347.507 313.939 358.005C344.95 378.939 421.704 455.704 423.003 517.903M276.904 327.377C269.902 338.024 260.565 361.782 279.239 371.632C302.581 383.945 314.464 446.147 302.581 463.343C290.698 480.539 293.483 537.222 356.272 515.355C406.503 497.862 421.689 509.765 423.003 517.903" stroke="#252525" stroke-width="6.2848"/>
<path d="M420.2 538.914C411.945 565.591 382.861 596.653 349.069 622.056C439.222 612.836 434.054 562.786 420.2 538.914Z" fill="#73482F" stroke="#252525" stroke-width="6.2848"/>
<path d="M96.5695 352.959C32.3254 351.465 28.9216 295.439 32.3254 273.116C32.5336 271.751 36.6218 257.467 36.9233 256.296C28.7803 254.808 21.087 238.68 16.4373 220.324C10.6253 197.378 19.8979 97.9092 74.386 107.877C82.4122 109.79 87.3531 102.576 92.0027 113.03C117.174 97.1942 147.43 90.3209 166.937 88.8227C195.582 86.1647 214.195 94.6369 218 99.7244C223.328 91.0375 237.72 79.2706 268.025 97.5442C305.908 120.386 345.554 142.709 336.214 192.027C326.873 241.345 315.975 276.023 300.199 273.116C311.72 302.499 280.791 352.959 235.436 352.959C231.062 352.959 226.764 352.753 222.567 352.378C218.747 360.634 209.644 362.92 205.57 363.03C207.724 372.904 202.362 378.553 198.177 380.473C187.513 382.94 178.241 380.889 170.466 376.548C157.908 377.275 128.536 373.277 111.515 351.465C106.968 352.048 102.011 353.086 96.5695 352.959Z" fill="#F5EDF0"/>
<path d="M166.937 88.8227C195.582 86.1647 214.195 94.6369 218 99.7244C223.328 91.0375 237.72 79.2706 268.025 97.5442C305.908 120.386 345.554 142.709 336.213 192.027C326.873 241.345 315.975 276.023 300.199 273.116M166.937 88.8227C147.43 90.3209 117.174 97.1942 92.0027 113.03M166.937 88.8227C204.093 151.638 176.07 247.574 120.025 273.116C75.1892 293.549 46.3862 268.617 37.5892 253.596M300.199 273.116C311.72 302.499 280.791 352.959 235.436 352.959C231.062 352.959 226.764 352.753 222.567 352.378M300.199 273.116C287.918 268.997 262.878 251.79 260.968 215.907C258.581 171.054 250.174 106.369 231.7 114.883M143.689 343.905C147.377 353.579 156.508 368.754 170.466 376.548M143.689 343.905C136.66 346.825 126.334 349.564 111.515 351.465M143.689 343.905C151.046 340.848 154.789 337.593 156.289 334.893M198.177 348.24C178.97 343.461 164.023 336.154 157.077 331.675C157.109 331.955 157.11 332.252 157.077 332.563M198.177 348.24C202.414 353.947 204.661 358.865 205.57 363.03M198.177 348.24C205.725 350.118 213.93 351.606 222.567 352.378M205.57 363.03C207.724 372.904 202.362 378.553 198.177 380.473C187.513 382.94 178.241 380.889 170.466 376.548M205.57 363.03C209.644 362.92 218.747 360.634 222.567 352.378M170.466 376.548C157.908 377.275 128.536 373.277 111.515 351.465M111.515 351.465C106.968 352.048 102.011 353.086 96.5695 352.959C32.3254 351.465 28.9216 295.439 32.3254 273.116C32.5336 271.751 36.6218 257.467 36.9233 256.296M156.289 334.893C163.851 338.735 179.184 348.079 180.014 354.724M156.289 334.893C156.754 334.056 157.003 333.271 157.077 332.563M36.9233 256.296C28.7803 254.808 21.087 238.68 16.4373 220.324C10.6253 197.378 19.8979 97.9092 74.386 107.877C82.4122 109.79 87.3531 102.576 92.0027 113.03M36.9233 256.296C37.9344 252.369 35.6268 261.866 37.5892 253.596M92.0027 113.03C69.496 127.189 51.0544 148.514 47.9972 179.568C43.8289 221.909 40.2934 242.201 37.5892 253.596M157.077 332.563C146.595 323.68 134.555 310.39 134.555 302.499C134.728 297.688 135.116 289.147 153.133 290.144C175.655 291.39 179.505 293.137 180.014 300.838C180.844 313.401 161.021 317.658 157.077 332.563Z" stroke="#252525" stroke-width="7.59581" stroke-linecap="round"/>
<path d="M157.077 331.674C164.023 336.153 178.969 343.461 198.177 348.239C205.724 350.117 213.93 351.605 222.567 352.377C218.747 360.633 209.644 362.919 205.57 363.03C207.724 372.903 202.362 378.552 198.177 380.473C187.513 382.939 178.24 380.888 170.466 376.547C157.907 377.275 128.536 373.277 111.515 351.464C126.334 349.563 136.66 346.824 143.689 343.904C151.046 340.848 154.789 337.593 156.288 334.892C156.754 334.055 157.003 333.271 157.077 332.562C157.11 332.251 157.109 331.954 157.077 331.674Z" fill="#F5EDF0"/>
<path d="M143.689 343.904C147.377 353.578 156.508 368.753 170.466 376.547M143.689 343.904C136.66 346.824 126.334 349.563 111.515 351.464C128.536 373.277 157.907 377.275 170.466 376.547M143.689 343.904C151.046 340.848 154.789 337.593 156.288 334.892M198.177 348.239C178.969 343.461 164.023 336.153 157.077 331.674C157.109 331.954 157.11 332.251 157.077 332.562C157.003 333.271 156.754 334.055 156.288 334.892M198.177 348.239C202.414 353.946 204.661 358.864 205.57 363.03M198.177 348.239C205.724 350.117 213.93 351.605 222.567 352.377C218.747 360.633 209.644 362.919 205.57 363.03M205.57 363.03C207.724 372.903 202.362 378.552 198.177 380.473C187.513 382.939 178.24 380.888 170.466 376.547M156.288 334.892C163.851 338.734 179.184 348.079 180.014 354.724" stroke="#252525" stroke-width="7.59581" stroke-linecap="round"/>
<path d="M198.177 348.239C178.969 343.46 164.023 336.153 157.077 331.674C157.109 331.954 157.11 332.251 157.077 332.562C157.003 333.271 156.753 334.055 156.288 334.892C154.789 337.593 151.045 340.848 143.688 343.904C147.377 353.578 156.508 368.753 170.466 376.547C178.24 380.888 188.325 384.994 198.177 380.473C203.325 378.11 207.724 372.903 205.57 363.03C204.661 358.864 202.414 353.946 198.177 348.239Z" fill="#C54432"/>
<path d="M156.288 334.892C154.789 337.593 151.045 340.848 143.688 343.904C147.377 353.578 156.508 368.753 170.466 376.547C178.24 380.888 188.325 384.994 198.177 380.473C203.325 378.11 207.724 372.903 205.57 363.03C204.661 358.864 202.414 353.946 198.177 348.239C178.969 343.46 164.023 336.153 157.077 331.674C157.109 331.954 157.11 332.251 157.077 332.562C157.003 333.271 156.753 334.055 156.288 334.892ZM156.288 334.892C163.851 338.734 179.184 348.079 180.014 354.723" stroke="#252525" stroke-width="7.59581" stroke-linecap="round"/>
<path d="M134.556 302.498C134.556 310.389 146.595 323.679 157.078 332.562C161.021 317.657 180.845 313.4 180.014 300.837C179.506 293.136 175.655 291.389 153.134 290.143C135.116 289.146 134.729 297.687 134.556 302.498Z" fill="#252525"/>
<path d="M157.078 331.673C157.109 331.954 157.11 332.251 157.078 332.562M157.078 332.562C146.595 323.679 134.556 310.389 134.556 302.498C134.729 297.687 135.116 289.146 153.134 290.143C175.655 291.389 179.506 293.136 180.014 300.837C180.845 313.4 161.021 317.657 157.078 332.562Z" stroke="#252525" stroke-width="7.59581" stroke-linecap="round"/>
<path d="M300.2 273.116C287.919 268.997 262.878 251.789 260.969 215.907C258.582 171.053 250.175 106.369 231.701 114.883C224.124 118.374 216.029 107.096 217.274 99.205C213.469 94.1174 195.583 86.1642 166.938 88.8222C204.094 151.638 176.071 247.574 120.026 273.116C75.1898 293.549 46.3868 268.616 37.5898 253.596C35.6273 261.866 36.5549 257.352 35.5438 261.279C27.4008 259.791 9.95233 252.226 5.30268 233.869C-0.509394 210.923 12.118 117.894 63.7005 102.943C75.974 99.3852 87.3536 102.576 92.0033 113.029C117.175 97.1938 147.431 90.3205 166.938 88.8222C195.583 86.1642 213.469 94.1174 217.274 99.205C222.602 90.5181 237.72 79.2701 268.026 97.5437C305.908 120.386 345.555 142.709 336.214 192.026C326.873 241.344 315.976 276.023 300.2 273.116Z" fill="#73482F"/>
<path d="M166.938 88.8222C195.583 86.1642 213.469 94.1174 217.274 99.205M166.938 88.8222C147.431 90.3205 117.175 97.1938 92.0033 113.029M166.938 88.8222C204.094 151.638 176.071 247.574 120.026 273.116C75.1898 293.549 46.3868 268.616 37.5898 253.596M32.326 273.116C32.5341 271.75 35.2423 262.45 35.5438 261.279M217.274 99.205C222.602 90.5181 237.72 79.2701 268.026 97.5437C305.908 120.386 345.555 142.709 336.214 192.026C326.873 241.344 315.976 276.023 300.2 273.116C287.919 268.997 262.878 251.789 260.969 215.907C258.582 171.053 250.175 106.369 231.701 114.883C224.124 118.374 216.029 107.096 217.274 99.205ZM35.5438 261.279C27.4008 259.791 9.95233 252.226 5.30268 233.869C-0.509394 210.923 12.118 117.894 63.7005 102.943C75.974 99.3852 87.3536 102.576 92.0033 113.029M35.5438 261.279C36.5549 257.352 35.6273 261.866 37.5898 253.596M92.0033 113.029C69.4965 127.189 51.055 148.513 47.9978 179.567C43.8294 221.908 40.294 242.2 37.5898 253.596" stroke="#252525" stroke-width="7.59581" stroke-linecap="round"/>
<ellipse cx="103.419" cy="226.083" rx="21.4839" ry="27.5142" fill="#252525"/>
<ellipse cx="215.925" cy="221.721" rx="21.4839" ry="27.5142" fill="#252525"/>
<path d="M158.299 63.8659L172.7 15.9598L194.116 30.8719L215.726 7.65735L227.999 38.9153L245.577 32.6116L233.765 78.2817C199.217 82.3079 169.059 70.3487 158.299 63.8659Z" fill="#CF8C3D"/>
<path d="M158.299 63.8659L172.7 15.9598L194.116 30.8719L215.726 7.65735L227.999 38.9153L245.577 32.6116L233.765 78.2817M158.299 63.8659C166.183 58.4984 225.033 64.5992 233.765 78.2817M158.299 63.8659C169.059 70.3487 199.217 82.3079 233.765 78.2817" stroke="#252525" stroke-width="7.59581" stroke-linecap="round"/>
</svg>
