<svg width="563" height="702" viewBox="0 0 563 702" fill="none" xmlns="http://www.w3.org/2000/svg">
<path d="M62.4982 382.754C89.3615 349.473 130.748 335.787 165.318 312.803C197.533 291.385 217.834 256.966 249.777 235.724C289.714 209.164 341.744 214.538 384.046 232.139C397.209 237.616 409.754 244.35 421.218 251.894C432.73 259.469 443.649 268.108 453.628 277.618C486.706 309.138 507.544 347.587 514.2 392.831C519.866 431.332 515.63 471.085 499.966 506.857C474.158 565.793 421.331 611.368 360.468 632.1C299.604 652.834 231.606 649.442 171.517 626.61C122.951 608.157 77.8926 575.812 53.6866 529.811C29.4833 483.81 29.8403 423.212 62.4982 382.754Z" fill="#F5EDF0"/>
<path d="M393.378 117.053C384.064 112.133 380 108.552 381.183 106.312L384.733 99.5926C387.536 94.2876 395.539 89.8448 408.741 86.2641C413.661 84.9431 418.505 83.0537 423.272 80.596C428.157 78.2006 431.44 75.4114 433.122 72.2283C436.236 66.3339 434.375 61.5803 427.537 57.9675C420.817 54.4171 412.855 53.0754 403.651 53.9424C401.538 47.0957 401.092 40.3758 402.314 33.7828C402.603 31.5228 403.121 29.6855 403.869 28.2708C404.679 26.7383 405.721 25.4793 406.995 24.494C409.558 21.9272 415.446 21.3435 424.659 22.7431C433.991 24.205 443.018 27.2406 451.742 31.85C464.946 38.8263 473.353 46.8879 476.965 56.0347C480.577 65.1816 479.798 74.6474 474.628 84.4322C472.261 88.912 468.806 92.7411 464.261 95.9196C459.897 99.0424 455.251 101.413 450.324 103.032C445.577 104.596 440.923 105.983 436.363 107.193C425.199 110.342 418.651 113.744 416.72 117.398L413.917 122.703C413.17 124.118 410.428 124.027 405.693 122.429C401.019 120.714 396.914 118.922 393.378 117.053ZM391.834 161.93C391.46 162.638 386.381 160.406 376.596 155.236C366.929 150.129 362.252 147.28 362.563 146.691L377.232 118.928C377.73 117.985 382.813 120.067 392.48 125.175C402.265 130.344 407.001 133.224 406.69 133.814L391.834 161.93Z" fill="#C54432"/>
<path d="M270.266 293.498C275.118 300.377 290.852 318.204 314.977 334.49C345.133 354.847 424.946 435.813 407.537 492.073C419.605 512.867 424.107 556.464 345.578 564.495C303.748 595.941 253.636 617.43 235.544 603.852C228.679 598.699 222.092 592.522 216.145 585.808C202.412 586.641 173.444 587.807 167.432 585.808C161.929 583.979 159.946 580.016 158.494 569.523C137.723 572.268 94.9821 575.87 90.1876 568.32C86.6499 562.748 85.3994 549.02 91.1319 537.506C90.1876 536.026 60.5074 494.479 80.1991 479.766C99.8907 465.053 114.663 490.407 117.551 491.518C117.638 475.227 117.354 451.143 116.443 416.289C113.114 288.872 187.695 260.187 270.266 293.498Z" fill="#F5EDF0"/>
<path d="M407.537 492.073C424.946 435.813 345.133 354.847 314.977 334.49C290.852 318.204 275.118 300.377 270.266 293.498C187.695 260.187 113.114 288.872 116.443 416.289M407.537 492.073C400.347 515.31 375.013 542.368 345.578 564.495M407.537 492.073C419.605 512.867 424.107 556.464 345.578 564.495M305.084 500.031C297.428 511.262 282.446 527.856 267.127 532.454M192.641 399.633L202.141 502.344M202.82 509.684C199.043 510.658 195.256 512.54 192.641 516.594C191.911 517.727 191.299 518.932 190.8 520.203M202.82 509.684C205.354 509.03 207.884 508.786 210.05 508.568C218.822 507.688 227.908 513.052 244.106 527.605C251.229 534.005 259.223 534.826 267.127 532.454M202.82 509.684L202.141 502.344M190.8 520.203C178.857 524.644 155.37 537.858 156.968 555.18C157.503 560.977 157.963 565.686 158.494 569.523M190.8 520.203C184.333 536.674 196.88 564.059 216.145 585.808M216.145 585.808C222.092 592.522 228.679 598.699 235.544 603.852C253.636 617.43 303.748 595.941 345.578 564.495M216.145 585.808C202.412 586.641 173.444 587.807 167.432 585.808C161.929 583.979 159.946 580.016 158.494 569.523M158.494 569.523C137.723 572.268 94.9821 575.87 90.1876 568.32C86.6499 562.748 85.3994 549.02 91.1319 537.506M116.443 416.289C117.354 451.143 117.638 475.227 117.551 491.518M116.443 416.289C116.615 423.044 137.821 490.87 202.141 502.344M91.1319 537.506C95.1107 529.515 102.454 522.591 114.731 520.203C115.837 525.358 117.382 522.871 117.551 491.518M91.1319 537.506C90.1876 536.026 60.5074 494.479 80.1991 479.766C99.8907 465.053 114.663 490.407 117.551 491.518M267.127 532.454L274.833 416.289" stroke="#252525" stroke-width="6.2848"/>
<path d="M114.731 520.203C102.454 522.591 95.1107 529.515 91.1319 537.506C90.1876 536.026 60.5074 494.479 80.1991 479.766C99.8907 465.053 114.663 490.407 117.551 491.518C117.382 522.871 115.837 525.358 114.731 520.203Z" fill="#73482F" stroke="#252525" stroke-width="6.2848"/>
<path d="M314.976 334.49C301.431 325.346 290.531 315.716 282.717 307.811C276.617 317.085 268.484 337.78 284.75 346.36C305.083 357.086 315.434 411.268 305.083 426.246C294.732 441.225 297.158 490.599 351.851 471.552C395.605 456.315 408.833 466.683 409.978 473.771C408.846 419.593 341.989 352.725 314.976 334.49Z" fill="#73482F"/>
<path d="M270.266 293.498C272.393 296.514 276.614 301.636 282.717 307.811M407.537 492.073C409.351 486.208 410.109 480.076 409.978 473.771M282.717 307.811C290.531 315.716 301.431 325.346 314.976 334.49C341.989 352.725 408.846 419.593 409.978 473.771M282.717 307.811C276.617 317.085 268.484 337.78 284.75 346.36C305.083 357.086 315.434 411.268 305.083 426.246C294.732 441.225 297.158 490.599 351.851 471.552C395.605 456.315 408.833 466.683 409.978 473.771" stroke="#252525" stroke-width="6.2848"/>
<path d="M407.538 492.072C400.347 515.309 375.013 542.367 345.578 564.495C424.107 556.463 419.605 512.867 407.538 492.072Z" fill="#73482F" stroke="#252525" stroke-width="6.2848"/>
<path d="M125.635 330.095C69.674 328.793 66.7091 279.991 69.674 260.546C69.8554 259.357 73.4165 246.915 73.6791 245.895C66.586 244.599 59.8846 230.551 55.8345 214.561C50.7718 194.574 58.8489 107.93 106.312 116.612C113.303 118.279 117.607 111.995 121.657 121.101C143.583 107.307 169.938 101.32 186.929 100.015C211.881 97.6998 228.094 105.08 231.409 109.511C236.049 101.944 248.586 91.6946 274.984 107.612C307.982 127.509 342.517 146.953 334.38 189.913C326.244 232.872 316.751 263.079 303.009 260.546C313.045 286.141 286.104 330.095 246.597 330.095C242.786 330.095 239.042 329.915 235.386 329.588C232.06 336.78 224.13 338.771 220.581 338.868C222.457 347.468 217.787 352.389 214.141 354.062C204.853 356.21 196.776 354.423 190.003 350.642C179.064 351.276 153.479 347.793 138.653 328.793C134.692 329.301 130.375 330.205 125.635 330.095Z" fill="#F5EDF0"/>
<path d="M186.929 100.015C211.881 97.6998 228.094 105.08 231.409 109.511C236.049 101.944 248.586 91.6946 274.984 107.612C307.982 127.509 342.517 146.953 334.38 189.913C326.244 232.872 316.751 263.079 303.009 260.546M186.929 100.015C169.938 101.32 143.583 107.307 121.657 121.101M186.929 100.015C219.295 154.731 194.885 238.298 146.066 260.546C107.011 278.345 81.9219 256.627 74.2591 243.544M303.009 260.546C313.045 286.141 286.104 330.095 246.597 330.095C242.786 330.095 239.042 329.915 235.386 329.588M303.009 260.546C292.312 256.959 270.5 241.97 268.836 210.714C266.757 171.644 259.434 115.299 243.342 122.716M166.679 322.208C169.891 330.634 177.845 343.853 190.003 350.642M166.679 322.208C160.556 324.752 151.561 327.137 138.653 328.793M166.679 322.208C173.087 319.546 176.348 316.71 177.654 314.358M214.141 325.984C197.411 321.822 184.391 315.456 178.341 311.555C178.368 311.799 178.369 312.057 178.341 312.329M214.141 325.984C217.832 330.955 219.789 335.239 220.581 338.868M214.141 325.984C220.716 327.62 227.863 328.916 235.386 329.588M220.581 338.868C222.457 347.468 217.787 352.389 214.141 354.062C204.853 356.21 196.776 354.423 190.003 350.642M220.581 338.868C224.13 338.771 232.06 336.78 235.386 329.588M190.003 350.642C179.064 351.276 153.479 347.793 138.653 328.793M138.653 328.793C134.692 329.301 130.375 330.205 125.635 330.095C69.674 328.793 66.7091 279.991 69.674 260.546C69.8554 259.357 73.4165 246.915 73.6791 245.895M177.654 314.358C184.241 317.705 197.597 325.844 198.32 331.632M177.654 314.358C178.059 313.629 178.276 312.946 178.341 312.329M73.6791 245.895C66.586 244.599 59.8846 230.551 55.8345 214.561C50.7718 194.574 58.8489 107.93 106.312 116.612C113.303 118.279 117.607 111.995 121.657 121.101M73.6791 245.895C74.5598 242.474 72.5497 250.747 74.2591 243.544M121.657 121.101C102.052 133.435 85.9882 152.01 83.3252 179.06C79.6943 215.942 76.6147 233.617 74.2591 243.544M178.341 312.329C169.21 304.591 158.723 293.014 158.723 286.141C158.874 281.951 159.211 274.51 174.905 275.379C194.523 276.464 197.877 277.986 198.32 284.694C199.044 295.637 181.776 299.345 178.341 312.329Z" stroke="#252525" stroke-width="7.59581" stroke-linecap="round"/>
<path d="M178.34 311.555C184.39 315.456 197.41 321.822 214.141 325.984C220.715 327.62 227.863 328.916 235.386 329.588C232.059 336.78 224.129 338.771 220.58 338.868C222.457 347.468 217.786 352.389 214.141 354.062C204.852 356.21 196.775 354.424 190.002 350.642C179.063 351.276 153.479 347.793 138.652 328.793C151.561 327.137 160.556 324.752 166.678 322.208C173.086 319.546 176.347 316.71 177.653 314.358C178.058 313.629 178.275 312.946 178.34 312.329C178.369 312.057 178.368 311.799 178.34 311.555Z" fill="#F5EDF0"/>
<path d="M166.678 322.208C169.891 330.634 177.844 343.853 190.002 350.642M166.678 322.208C160.556 324.752 151.561 327.137 138.652 328.793C153.479 347.794 179.063 351.276 190.002 350.642M166.678 322.208C173.086 319.546 176.347 316.71 177.653 314.358M214.141 325.984C197.41 321.822 184.39 315.456 178.34 311.555C178.368 311.799 178.369 312.057 178.34 312.329C178.275 312.946 178.058 313.629 177.653 314.358M214.141 325.984C217.832 330.955 219.789 335.239 220.58 338.868M214.141 325.984C220.715 327.62 227.863 328.916 235.386 329.588C232.059 336.78 224.129 338.771 220.58 338.868M220.58 338.868C222.457 347.468 217.786 352.389 214.141 354.062C204.852 356.21 196.775 354.424 190.002 350.642M177.653 314.358C184.241 317.705 197.596 325.844 198.32 331.632" stroke="#252525" stroke-width="7.59581" stroke-linecap="round"/>
<path d="M214.14 325.984C197.41 321.822 184.39 315.456 178.34 311.555C178.367 311.799 178.368 312.057 178.34 312.329C178.275 312.946 178.058 313.629 177.653 314.358C176.347 316.71 173.086 319.546 166.678 322.208C169.891 330.634 177.844 343.853 190.002 350.642C196.775 354.424 205.559 358 214.14 354.062C218.625 352.003 222.456 347.468 220.58 338.868C219.789 335.239 217.832 330.955 214.14 325.984Z" fill="#C54432"/>
<path d="M177.653 314.358C176.347 316.71 173.086 319.546 166.678 322.208C169.891 330.634 177.844 343.853 190.002 350.642C196.775 354.424 205.559 358 214.14 354.062C218.625 352.003 222.456 347.468 220.58 338.868C219.789 335.239 217.832 330.955 214.14 325.984C197.41 321.822 184.39 315.456 178.34 311.555C178.367 311.799 178.368 312.057 178.34 312.329C178.275 312.946 178.058 313.629 177.653 314.358ZM177.653 314.358C184.24 317.705 197.596 325.844 198.32 331.632" stroke="#252525" stroke-width="7.59581" stroke-linecap="round"/>
<path d="M158.723 286.141C158.723 293.014 169.21 304.591 178.341 312.328C181.776 299.345 199.043 295.637 198.32 284.694C197.877 277.986 194.523 276.464 174.905 275.378C159.211 274.51 158.873 281.95 158.723 286.141Z" fill="#252525"/>
<path d="M178.341 311.554C178.368 311.799 178.369 312.057 178.341 312.328M178.341 312.328C169.21 304.591 158.723 293.014 158.723 286.141C158.873 281.95 159.211 274.51 174.905 275.378C194.523 276.464 197.877 277.986 198.32 284.694C199.043 295.637 181.776 299.345 178.341 312.328Z" stroke="#252525" stroke-width="7.59581" stroke-linecap="round"/>
<path d="M303.009 260.547C292.311 256.959 270.5 241.97 268.836 210.714C266.757 171.644 259.434 115.3 243.342 122.716C236.742 125.757 229.691 115.933 230.776 109.059C227.461 104.628 211.881 97.7002 186.929 100.015C219.294 154.732 194.885 238.298 146.066 260.547C107.011 278.345 81.9216 256.628 74.2588 243.544C72.5494 250.748 73.3574 246.816 72.4767 250.237C65.3836 248.94 50.1849 242.35 46.1347 226.36C41.072 206.373 52.0713 125.339 97.003 112.315C107.694 109.216 117.606 111.996 121.657 121.101C143.583 107.308 169.938 101.321 186.929 100.015C211.881 97.7002 227.461 104.628 230.776 109.059C235.416 101.493 248.585 91.6949 274.984 107.612C307.982 127.509 342.516 146.954 334.38 189.913C326.243 232.872 316.751 263.079 303.009 260.547Z" fill="#73482F"/>
<path d="M186.929 100.015C211.881 97.7002 227.461 104.628 230.776 109.059M186.929 100.015C169.938 101.321 143.583 107.308 121.657 121.101M186.929 100.015C219.294 154.732 194.885 238.298 146.066 260.547C107.011 278.345 81.9216 256.628 74.2588 243.544M69.6737 260.547C69.8551 259.358 72.214 251.257 72.4767 250.237M230.776 109.059C235.416 101.493 248.585 91.6949 274.984 107.612C307.982 127.509 342.516 146.954 334.38 189.913C326.243 232.872 316.751 263.079 303.009 260.547C292.311 256.959 270.5 241.97 268.836 210.714C266.757 171.644 259.434 115.3 243.342 122.716C236.742 125.757 229.691 115.933 230.776 109.059ZM72.4767 250.237C65.3836 248.94 50.1849 242.35 46.1347 226.36C41.072 206.373 52.0713 125.339 97.003 112.315C107.694 109.216 117.606 111.996 121.657 121.101M72.4767 250.237C73.3574 246.816 72.5494 250.748 74.2588 243.544M121.657 121.101C102.052 133.435 85.9879 152.01 83.3249 179.06C79.694 215.942 76.6144 233.618 74.2588 243.544" stroke="#252525" stroke-width="7.59581" stroke-linecap="round"/>
<ellipse cx="131.601" cy="219.578" rx="18.7139" ry="23.9666" fill="#252525"/>
<ellipse cx="229.601" cy="215.779" rx="18.7139" ry="23.9666" fill="#252525"/>
<path d="M179.405 78.2755L191.949 36.5462L210.604 49.5356L229.428 29.3142L240.118 56.5419L255.429 51.0509L245.141 90.8325C215.047 94.3396 188.778 83.9224 179.405 78.2755Z" fill="#CF8C3D"/>
<path d="M179.405 78.2755L191.949 36.5462L210.604 49.5356L229.428 29.3142L240.118 56.5419L255.429 51.0509L245.141 90.8325M179.405 78.2755C186.273 73.6 237.535 78.9142 245.141 90.8325M179.405 78.2755C188.778 83.9224 215.047 94.3396 245.141 90.8325" stroke="#252525" stroke-width="7.59581" stroke-linecap="round"/>
<path d="M236.389 162.892C234.329 171.839 243.747 188.12 268.052 185.554" stroke="#252525" stroke-width="4" stroke-linecap="round"/>
<path d="M132.752 167.248C134.426 174.669 126.386 188.125 105.937 185.91" stroke="#252525" stroke-width="4" stroke-linecap="round"/>
</svg>
