<svg width="50" height="46" viewBox="0 0 50 46" fill="none" xmlns="http://www.w3.org/2000/svg">
<path fill-rule="evenodd" clip-rule="evenodd" d="M14.0766 45.5665C13.8768 45.5527 13.6764 45.5417 13.4766 45.5235C12.357 45.4184 11.3305 45.0534 10.4189 44.3935C8.8463 43.2546 7.84064 41.7403 7.43992 39.8347C7.2902 39.1186 7.24837 38.3958 7.29405 37.6665C7.34579 36.8106 7.51643 35.9805 7.78835 35.1686C8.22265 33.8728 8.87768 32.6971 9.70664 31.6133C10.3314 30.7964 11.0387 30.0566 11.8181 29.3856C12.5475 28.757 13.2097 28.0629 13.83 27.3281C14.6105 26.4017 15.3168 25.4197 16.0142 24.4311C16.6307 23.557 17.2367 22.6774 17.8912 21.8325C18.3833 21.195 18.9023 20.5813 19.4809 20.0204C20.2047 19.3197 21.0034 18.7263 21.9446 18.3415C22.6509 18.0526 23.3846 17.8995 24.1481 17.8836C25.0112 17.8638 25.8638 17.9491 26.7032 18.1544C27.988 18.4698 29.101 19.0945 30.0593 20.0039C30.7149 20.6286 31.2697 21.3354 31.7855 22.0752C32.3326 22.8596 32.8352 23.6726 33.3537 24.4762C33.9383 25.3812 34.5415 26.2718 35.2158 27.114C35.8874 27.9534 36.6283 28.7279 37.4374 29.4363C38.4161 30.2933 39.2847 31.2472 40.0245 32.3184C40.6553 33.2371 41.1694 34.2141 41.5283 35.2699C41.8079 36.0922 41.9835 36.9333 42.0281 37.8025C42.0969 39.1224 41.869 40.3846 41.2702 41.5719C40.7159 42.6722 39.9133 43.5557 38.9054 44.2575C38.1646 44.7733 37.3653 45.1652 36.4851 45.3832C36.1736 45.4613 35.8571 45.5175 35.5373 45.5483C35.4927 45.5527 35.4498 45.561 35.4068 45.5676C35.365 45.5912 35.3188 45.5736 35.2747 45.5791C35.2384 45.5841 35.1999 45.5676 35.1652 45.5907C34.8922 45.5907 34.618 45.5907 34.345 45.5907C34.3125 45.567 34.2757 45.5835 34.241 45.5791C34.2091 45.5791 34.1788 45.5791 34.1474 45.5791C34.1215 45.5791 34.0935 45.5791 34.0682 45.5791C33.3685 45.5566 32.6893 45.4107 32.0122 45.2538C30.8651 44.9863 29.7406 44.6346 28.5995 44.3439C27.6753 44.1094 26.7434 43.919 25.795 43.8105C25.1378 43.7351 24.4789 43.7269 23.8217 43.7494C23.296 43.7671 22.7742 43.848 22.2573 43.9443C21.2368 44.1364 20.2366 44.4111 19.2359 44.6841C18.1774 44.9747 17.1189 45.2637 16.0351 45.441C15.5942 45.512 15.1527 45.5731 14.7047 45.5687C14.6127 45.5676 14.5214 45.5813 14.4283 45.5791C14.31 45.5725 14.1933 45.5934 14.0766 45.5665ZM34.2982 0.178019C35.7734 0.355262 36.9002 1.10497 37.7611 2.28732C38.3512 3.09812 38.7222 4.00745 38.9522 4.97953C39.1487 5.81676 39.2231 6.66664 39.195 7.52643C39.1432 9.10621 38.7722 10.6067 38.0864 12.0302C37.6114 13.0166 36.9982 13.9061 36.2165 14.6734C35.5202 15.3554 34.7325 15.9003 33.8133 16.24C33.1676 16.4783 32.5038 16.5961 31.8157 16.5554C30.6246 16.4865 29.6134 16.0132 28.7635 15.1864C28.0392 14.4807 27.5454 13.6275 27.2036 12.683C26.9647 12.0225 26.8155 11.3416 26.7379 10.6452C26.684 10.168 26.6625 9.69023 26.6779 9.21244C26.7131 8.08458 26.9157 6.98645 27.2823 5.92024C27.6715 4.78523 28.223 3.73884 28.976 2.80308C29.6096 2.01595 30.3499 1.35046 31.2383 0.858917C31.8912 0.497276 32.5864 0.263338 33.3306 0.17912C33.3531 0.16646 33.3779 0.171964 33.401 0.170313H33.4715C33.5056 0.165909 33.5419 0.182423 33.5722 0.158203H34.0555C34.0869 0.182973 34.1221 0.16646 34.1562 0.170313H34.2272C34.2498 0.170863 34.2751 0.164808 34.2982 0.178019ZM0.367828 17.5968C0.390947 17.1465 0.471862 16.7045 0.590207 16.2697C0.819191 15.4247 1.19404 14.6547 1.77806 13.9952C2.43089 13.2593 3.23784 12.7832 4.20442 12.5911C4.98935 12.4358 5.76382 12.5024 6.52508 12.7369C7.40029 13.0072 8.17421 13.4668 8.86227 14.0651C9.93123 14.9915 10.6974 16.1315 11.2281 17.4361C11.5055 18.1192 11.6976 18.8265 11.8038 19.5558C11.8556 19.9098 11.8803 20.2659 11.8875 20.6237C11.9002 21.3029 11.8319 21.9712 11.6635 22.6284C11.4389 23.5052 11.0607 24.3034 10.458 24.9865C9.76609 25.7703 8.90355 26.258 7.86982 26.4259C7.11131 26.5492 6.36546 26.4661 5.63557 26.2305C4.65413 25.9118 3.81305 25.3646 3.07215 24.6562C2.34942 23.9671 1.77531 23.1667 1.3278 22.2767C0.889098 21.4037 0.586354 20.4833 0.440487 19.5151C0.415166 19.3439 0.394249 19.1727 0.371131 19.0021C0.352966 18.9239 0.360122 18.8441 0.341407 18.7665C0.3326 18.734 0.337554 18.7032 0.335902 18.6696C0.329848 18.6283 0.348563 18.5843 0.323242 18.543C0.323242 18.3338 0.323242 18.1252 0.323242 17.9155C0.362324 17.8583 0.343058 17.7944 0.347462 17.7333C0.350764 17.6876 0.339205 17.6392 0.367828 17.5968ZM10.725 7.53139C10.7299 6.28574 10.9072 5.16228 11.3238 4.08121C11.6381 3.2638 12.0697 2.5163 12.6708 1.87283C13.3181 1.17817 14.0871 0.680023 15.0146 0.445534C15.9421 0.209945 16.8536 0.277099 17.7497 0.60131C18.5391 0.88754 19.2277 1.3389 19.8392 1.90861C20.8157 2.81684 21.5148 3.91333 22.0129 5.14247C22.3294 5.9241 22.5474 6.73215 22.6718 7.56497C22.7422 8.03725 22.783 8.51338 22.7929 8.99282C22.8033 9.5961 22.7654 10.1972 22.6657 10.7928C22.4588 12.0373 22.0366 13.1965 21.2836 14.2215C20.8151 14.8572 20.2465 15.3829 19.5486 15.7616C18.7686 16.1844 17.9336 16.361 17.0501 16.2928C16.2514 16.2317 15.5149 15.9708 14.828 15.5635C13.9318 15.0328 13.2064 14.3173 12.6025 13.4751C11.8864 12.4749 11.3943 11.3691 11.0828 10.1807C10.9121 9.5306 10.8031 8.86952 10.7536 8.19908C10.7338 7.94752 10.7167 7.69432 10.725 7.53139ZM49.862 18.3267V18.4714C49.807 19.6725 49.4855 20.8031 48.9664 21.8814C48.558 22.7264 48.0367 23.4964 47.3916 24.179C46.5638 25.0564 45.6032 25.7406 44.4611 26.1512C43.7769 26.3973 43.0723 26.5184 42.3441 26.4782C41.269 26.4176 40.3305 26.0279 39.5412 25.2947C38.8895 24.6887 38.4596 23.9434 38.1888 23.1045C37.9449 22.3526 37.8464 21.5776 37.8712 20.7883C37.9246 19.0527 38.4734 17.4751 39.424 16.0313C39.7449 15.5425 40.1131 15.0912 40.526 14.6783C41.3753 13.8323 42.3463 13.1817 43.4961 12.8129C44.1501 12.6048 44.8183 12.5096 45.5031 12.563C46.5489 12.6439 47.461 13.0397 48.2261 13.7613C48.9164 14.4125 49.3518 15.2167 49.6149 16.1194C49.7602 16.6181 49.845 17.1284 49.862 17.6485V17.7944C49.8565 17.9716 49.8571 18.1489 49.862 18.3267Z" fill="#F5EDF0"/>
</svg>
