<svg width="143" height="173" viewBox="0 0 143 173" fill="none" xmlns="http://www.w3.org/2000/svg">
<path fill-rule="evenodd" clip-rule="evenodd" d="M0.724224 109.077C0.275024 111.629 0.0504245 114.444 0.0504245 117.522C0.0504245 117.747 0.046205 118.454 0.0402072 119.459C0.0151676 123.654 -0.0408664 133.043 0.0497322 134.224C0.162032 135.65 0.367915 137.133 0.667381 138.672C0.966848 140.173 1.37861 141.656 1.90268 143.12C2.42675 144.546 3.08183 145.822 3.86793 146.948C4.69146 148.037 5.66473 148.938 6.78773 149.651C7.94816 150.327 9.29576 150.664 10.8305 150.664C11.7289 150.664 12.5899 150.533 13.4134 150.27C14.237 150.008 14.9669 149.538 15.6033 148.863C15.9776 148.45 16.2396 148.037 16.3894 147.624C16.5765 147.211 16.7075 146.817 16.7824 146.442C16.8947 146.029 16.9883 145.616 17.0632 145.203C17.0912 145.048 17.1509 143.1 17.2244 140.7C17.3471 136.694 17.5083 131.429 17.6254 131.147C17.7002 130.959 17.9061 130.847 18.243 130.809C18.5799 130.772 18.8419 130.734 19.0291 130.697C20.3767 130.547 21.7056 130.378 23.0157 130.19C24.3259 129.965 25.6361 129.627 26.9462 129.177C28.7056 128.538 30.2029 127.675 31.4382 126.587C32.711 125.461 33.7404 124.184 34.5265 122.758C35.3126 121.332 35.8928 119.774 36.2671 118.085C36.6415 116.396 36.8286 114.669 36.8286 112.905C36.8286 110.128 36.2671 107.725 35.1441 105.698C34.0211 103.634 32.5238 101.926 30.6521 100.575C28.8179 99.1861 26.7029 98.1539 24.3072 97.4783C21.9489 96.8027 19.5345 96.4648 17.0639 96.4648C13.5826 96.4648 10.7376 96.9903 8.52907 98.0413C6.3205 99.0923 4.57985 100.556 3.30712 102.433C2.07182 104.272 1.21086 106.487 0.724224 109.077ZM17.6254 118.648C17.5131 118.273 17.4569 117.916 17.4569 117.578C17.4569 116.865 17.4943 116.133 17.5692 115.382C17.6815 114.632 17.8687 113.956 18.1307 113.356C18.4302 112.755 18.8607 112.267 19.4222 111.892C19.9837 111.479 20.7136 111.272 21.612 111.272C22.0986 111.272 22.4917 111.404 22.7911 111.667C23.128 111.892 23.3901 112.192 23.5772 112.567C23.8018 112.943 23.9516 113.356 24.0264 113.806C24.1013 114.219 24.1387 114.632 24.1387 115.045C24.1387 115.608 24.0826 116.227 23.9703 116.903C23.858 117.541 23.6708 118.141 23.4088 118.704C23.1468 119.267 22.7911 119.737 22.3419 120.112C21.8927 120.487 21.3125 120.675 20.6013 120.675C20.0772 120.675 19.6093 120.581 19.1976 120.393C18.8232 120.168 18.505 119.905 18.243 119.605C17.981 119.305 17.7751 118.986 17.6254 118.648ZM139.314 114.695C135.664 116.598 135.086 119.787 135.253 121.144C135.529 123.187 136.26 125.425 137.049 127.839L137.049 127.839C139.386 134.994 142.23 143.701 135.253 153.481C126.811 165.314 112.94 162.354 112.94 154.945C112.94 152.551 115.192 150.644 117.57 148.632C119.918 146.646 122.387 144.556 122.933 141.791C124.389 134.407 122.965 130.217 121.689 126.465C121.206 125.045 120.744 123.687 120.469 122.242C119.465 116.982 119.784 108.109 126.811 104.084C133.166 100.445 139.314 101.77 141.778 105.776C143.466 108.52 142.965 112.793 139.314 114.695ZM106.048 148.086L106.05 148.087L106.053 148.088C107.396 148.799 108.834 149.155 110.354 149.155C111.877 149.155 113.305 148.714 114.622 147.853C115.912 147.011 117.021 145.882 117.954 144.486C118.904 143.092 119.636 141.492 120.158 139.696C120.701 137.866 120.971 135.96 120.971 133.98C120.971 131.762 120.723 129.744 120.216 127.933C119.73 126.134 119.03 124.571 118.102 123.264C117.17 121.952 116.03 120.93 114.683 120.217C113.33 119.502 111.836 119.151 110.221 119.151C108.591 119.151 107.086 119.582 105.726 120.444C104.406 121.266 103.29 122.404 102.372 123.834C101.455 125.235 100.752 126.877 100.251 128.746L100.25 128.75L100.248 128.754C99.7638 130.63 99.5243 132.629 99.5243 134.749C99.5243 136.851 99.7926 138.789 100.341 140.555C100.883 142.305 101.631 143.826 102.597 145.103L102.599 145.106L102.602 145.11C103.582 146.38 104.73 147.379 106.048 148.086ZM111.097 138.043C110.918 138.339 110.715 138.572 110.489 138.754C110.328 138.875 110.2 138.908 110.087 138.908C109.843 138.908 109.577 138.809 109.278 138.367C108.989 137.89 108.808 137.206 108.808 136.248C108.808 135.296 109.013 134.646 109.329 134.209C109.653 133.761 109.967 133.626 110.301 133.626C110.357 133.626 110.467 133.644 110.644 133.755L110.67 133.772L110.697 133.786C110.866 133.877 111.035 134.014 111.2 134.216L111.214 134.232L111.229 134.248C111.369 134.404 111.501 134.619 111.611 134.914L111.614 134.924L111.618 134.934C111.713 135.172 111.767 135.452 111.767 135.787C111.767 136.152 111.711 136.54 111.591 136.951C111.47 137.362 111.309 137.714 111.113 138.017L111.105 138.03L111.097 138.043ZM97.0657 132.753C96.4683 133.458 95.5797 134.074 94.4112 134.074C93.4662 134.074 92.6788 133.67 92.0812 133.169L92.0301 133.127L91.9819 133.081C91.6485 132.761 91.3047 132.442 90.9503 132.122L90.9065 132.082L90.865 132.04C90.5756 131.746 90.276 131.49 89.9669 131.27L89.8936 131.218L89.8253 131.159C89.8226 131.157 89.8201 131.155 89.8176 131.153C89.8148 131.15 89.8121 131.148 89.8095 131.146C89.7117 131.158 89.5658 131.208 89.3487 131.397C89.0253 131.679 88.6725 132.129 88.3293 132.827C88.0135 133.469 87.7344 134.294 87.5149 135.33C87.3192 136.349 87.2174 137.462 87.2174 138.673C87.2174 139.575 87.2821 140.4 87.4055 141.153C87.5264 141.89 87.6904 142.498 87.8829 142.992C88.0681 143.386 88.2609 143.679 88.4475 143.895C88.7371 143.892 88.9493 143.807 89.1867 143.552C89.7327 142.942 90.229 142.275 90.6753 141.55C91.2342 140.632 91.7936 139.805 92.3547 139.074C93.1524 138.017 94.3035 137.222 95.7914 137.222C97.6843 137.222 98.8564 138.561 99.501 139.918C100.168 141.281 100.437 142.899 100.437 144.66C100.437 146.229 100.204 147.721 99.7148 149.118C99.2816 150.413 98.7253 151.6 98.0358 152.666C97.3965 153.686 96.684 154.594 95.8917 155.377C95.1961 156.083 94.5234 156.69 93.8754 157.179C91.8526 158.726 89.6373 159.583 87.2646 159.583C85.2906 159.583 83.4595 158.914 81.8094 157.693C80.191 156.497 78.8318 154.873 77.7014 152.896L77.6922 152.88L77.6833 152.864C76.5725 150.835 75.7185 148.449 75.0945 145.736L75.0937 145.733L75.093 145.729C74.4617 142.941 74.1537 139.899 74.1537 136.615C74.1537 134.39 74.3253 132.241 74.6721 130.169C75.0151 128.12 75.4893 126.187 76.099 124.372C76.7053 122.566 77.428 120.911 78.2737 119.416C79.1095 117.897 80.0322 116.562 81.0516 115.432L81.0591 115.423L81.0667 115.415C82.1038 114.29 83.2208 113.374 84.4268 112.709L84.4345 112.705L84.4421 112.701C85.6964 112.024 87.0226 111.65 88.3995 111.65C89.5665 111.65 90.7602 111.98 91.941 112.508C93.2578 113.086 94.448 113.959 95.5189 115.072C96.6443 116.242 97.5349 117.691 98.2231 119.364C98.9859 121.125 99.3327 123.13 99.3327 125.326C99.3327 126.238 99.25 127.148 99.0857 128.055C98.9213 128.963 98.6822 129.822 98.3607 130.627L98.3521 130.648L98.3432 130.669C98.0142 131.441 97.5962 132.149 97.0657 132.753ZM65.7052 157.477C61.9488 155.77 61.5156 144.464 61.7685 139.025C61.7685 135.461 62.2236 134.883 62.9747 133.928C63.1433 133.714 63.3269 133.48 63.5235 133.19C64.1298 132.295 65.3962 132.294 66.9052 132.293C69.8346 132.291 73.6782 132.288 75.3811 125.742C75.3847 125.703 75.3883 125.663 75.3918 125.624C75.3944 125.595 75.397 125.566 75.3997 125.538C75.4069 125.458 75.4141 125.38 75.4212 125.302L75.4218 125.296C75.7432 121.805 74.4034 119.128 70.4136 116.429C67.9269 114.747 64.3263 116.274 62.5796 117.989C60.8329 119.705 58.9382 121.566 56.1718 121.71C52.9568 121.878 51.3709 119.962 49.875 118.154C48.4137 116.388 45.7876 115.058 43.0634 115.544C32.9607 117.347 33.9484 129.976 38.7648 132.289C39.5483 132.665 40.2686 132.997 40.9292 133.302C46.1788 135.726 47.6621 136.411 47.1957 143.451C47.1659 143.901 47.1348 144.37 47.1126 144.859C46.8754 150.077 46.1165 151.738 43.6501 154.963C43.1055 155.676 42.1261 156.459 41.0341 157.334C37.181 160.418 33.9598 166.287 39.4288 170.76C41.7781 172.681 47.186 172.187 49.709 169.794C52.0708 167.555 54.2038 165.532 57.6895 169.431C61.1752 173.33 67.0863 174.498 70.8463 170.574L70.8473 170.573C71.0274 170.385 71.2104 170.194 71.3969 170.001C75.4759 165.779 70.4009 159.612 65.7052 157.477ZM55.8501 143.399C56.7344 143.611 57.6876 142.801 57.9792 141.588C58.2708 140.376 57.7904 139.221 56.9062 139.008C56.0219 138.796 55.0687 139.607 54.7771 140.819C54.4854 142.031 54.9659 143.186 55.8501 143.399ZM57.9132 146.036C57.245 145.541 57.2006 144.469 57.8141 143.642C58.4277 142.815 59.4667 142.546 60.135 143.041C60.8032 143.536 60.8476 144.608 60.234 145.435C59.6205 146.262 58.5815 146.532 57.9132 146.036ZM54.3421 143.771C54.6676 143.771 55.4613 143.944 56.0322 144.634C56.28 144.934 56.4237 145.202 56.5638 145.464C56.8272 145.956 57.0782 146.424 57.9852 147.037C59.3748 147.975 58.4734 149.589 58.0978 149.889L58.076 149.907C57.7003 150.208 57.1287 150.666 55.5815 150.077C54.346 149.607 54.0321 149.735 53.2684 150.047L53.2682 150.047L53.2679 150.047C53.0566 150.134 52.8109 150.234 52.5018 150.34C51.36 150.73 50.5738 150.027 50.3235 149.627C49.9479 149.176 49.5348 148.028 50.8868 147.037C51.5901 146.521 51.9877 145.869 52.3448 145.284C52.846 144.462 53.2675 143.771 54.3421 143.771ZM50.9027 143.655C51.5162 144.482 51.4718 145.554 50.8036 146.049C50.1354 146.544 49.0963 146.275 48.4828 145.448C47.8693 144.62 47.9136 143.549 48.5819 143.053C49.2501 142.558 50.2892 142.828 50.9027 143.655ZM50.6871 141.593C50.9787 142.805 51.9319 143.616 52.8162 143.404C53.7004 143.191 54.1808 142.036 53.8892 140.824C53.5976 139.611 52.6444 138.801 51.7601 139.013C50.8759 139.226 50.3955 140.381 50.6871 141.593ZM31.1106 133.643C29.4875 133.643 27.994 133.831 26.6325 134.21C25.2693 134.571 24.08 135.124 23.071 135.876C22.0569 136.631 21.2634 137.584 20.6953 138.732L20.6939 138.735L20.6924 138.738C20.1444 139.893 19.8762 141.222 19.8762 142.715C19.8762 143.572 19.9338 144.429 20.0488 145.285L20.0495 145.291L20.0504 145.296C20.1855 146.135 20.3207 146.964 20.4558 147.783L20.4561 147.785C20.7333 149.425 21.2359 150.743 21.9867 151.707L21.9885 151.709L21.9904 151.712C22.7515 152.659 23.7021 153.368 24.835 153.838L24.8375 153.839L24.84 153.84C25.9586 154.283 27.2205 154.553 28.6218 154.652C30.0039 154.75 31.4865 154.799 33.0691 154.799C33.5536 154.799 34.2044 154.769 35.018 154.71C35.8387 154.651 36.6812 154.553 37.5456 154.415C38.4106 154.277 39.2208 154.109 39.9757 153.911C40.7313 153.713 41.3241 153.475 41.7175 153.18L41.7277 153.172L41.7373 153.164C42.0819 152.865 42.3386 152.528 42.4341 152.142C42.5117 151.828 42.5475 151.471 42.5475 151.077C42.5475 150.721 42.5117 150.358 42.4411 149.987C42.3891 149.594 42.2738 149.228 42.0935 148.894C41.9024 148.539 41.6307 148.259 41.2886 148.052C40.9202 147.809 40.455 147.706 39.9241 147.706C39.7996 147.706 39.6675 147.716 39.5284 147.735C39.3885 147.737 39.2551 147.747 39.1294 147.769C38.1638 147.905 37.2095 148.041 36.2663 148.177C35.3361 148.292 34.383 148.349 33.4068 148.349C33.1905 148.349 32.8614 148.34 32.4163 148.321C32.0062 148.283 31.584 148.217 31.1497 148.123C30.745 148.031 30.3886 147.913 30.0785 147.77C29.7914 147.619 29.7832 147.508 29.7832 147.481C29.7832 147.47 29.784 147.463 29.7846 147.458L29.7863 147.457C29.8564 147.409 29.9495 147.366 30.0723 147.335C30.2278 147.302 30.3824 147.285 30.5365 147.285H30.5546L30.5726 147.283C30.747 147.264 30.88 147.256 30.9755 147.256H36.2771C37.3781 147.256 38.2601 147.099 38.8789 146.742L38.883 146.74L38.887 146.737C39.5893 146.307 39.8799 145.471 39.8799 144.411C39.8799 143.974 39.7499 143.586 39.4554 143.302C39.2067 143.063 38.9081 142.9 38.5689 142.808C38.2457 142.702 37.8924 142.64 37.5114 142.619C37.1685 142.6 36.847 142.59 36.5472 142.59C35.6842 142.59 34.81 142.619 33.9248 142.678C33.0541 142.736 32.1948 142.765 31.347 142.765C31.2272 142.765 31.0821 142.756 30.9103 142.738C30.7564 142.721 30.6014 142.688 30.4449 142.638C30.3246 142.592 30.2136 142.534 30.1111 142.462C30.0949 142.446 30.0898 142.436 30.0888 142.434C30.0884 142.433 30.0881 142.433 30.088 142.432L30.0878 142.432L30.0877 142.431C30.0876 142.431 30.0871 142.428 30.0871 142.423C30.0871 142.392 30.0937 142.37 30.1165 142.342C30.1455 142.306 30.2082 142.253 30.3335 142.199L30.3373 142.198L30.3411 142.196C30.6482 142.054 31.0027 141.945 31.4072 141.871L31.4144 141.87L31.4217 141.868C31.8302 141.775 32.2381 141.719 32.6454 141.701L32.653 141.7L32.6606 141.7C33.0868 141.661 33.3892 141.642 33.5756 141.642C34.2839 141.642 34.9806 141.681 35.6658 141.757L35.667 141.757C36.3993 141.837 37.1317 141.876 37.8642 141.876C38.5959 141.876 39.2353 141.754 39.768 141.491C40.3007 141.239 40.7485 140.908 41.1019 140.493L41.105 140.489L41.108 140.486C41.4551 140.056 41.7051 139.571 41.8553 139.032C42.0239 138.488 42.1085 137.932 42.1085 137.365C42.1085 136.538 41.7441 135.87 41.0754 135.379C40.4742 134.922 39.7505 134.565 38.9116 134.302C38.0997 134.041 37.2438 133.871 36.3447 133.791C35.4837 133.693 34.7511 133.643 34.1497 133.643H31.1106ZM63.1214 137.946C63.1596 138.303 63.2265 138.702 63.3222 139.143C63.4047 139.523 63.5117 139.836 63.6432 140.082C63.7841 140.325 63.9434 140.518 64.1211 140.66C64.302 140.818 64.4936 140.934 64.6958 141.008C64.898 141.083 65.1047 141.133 65.3158 141.159C65.8959 141.261 66.4692 141.308 67.0357 141.302C67.6022 141.296 68.1656 141.298 68.726 141.309C69.2958 141.318 69.8703 141.326 70.4495 141.333C71.032 141.356 71.5966 141.318 72.1432 141.221C72.7371 141.115 73.0988 140.774 73.2283 140.197C73.3707 139.634 73.3428 138.896 73.1449 137.983C72.9832 137.237 72.7862 136.577 72.5539 136.002C72.3342 135.44 72.0715 134.973 71.7656 134.601C71.4692 134.227 71.1266 133.956 70.7377 133.789C70.3522 133.636 69.9144 133.604 69.4243 133.691L68.4204 133.87C68.0434 133.937 67.6445 134.016 67.2236 134.107C66.8061 134.214 66.3824 134.337 65.9526 134.476C65.5261 134.632 65.1297 134.813 64.7636 135.021C64.4007 135.243 64.0807 135.506 63.8036 135.808C63.5359 136.109 63.3457 136.451 63.2331 136.835C63.1205 137.219 63.0833 137.589 63.1214 137.946ZM68.7086 154.799C68.1135 154.799 67.58 154.774 67.108 154.724C66.636 154.674 66.1641 154.524 65.6921 154.273C65.2201 154.023 64.82 153.684 64.4916 153.259C64.1633 152.82 63.8965 152.338 63.6913 151.812C63.5066 151.286 63.363 150.729 63.2604 150.14C63.1783 149.552 63.1168 148.976 63.0757 148.412C63.0552 147.848 63.0449 147.316 63.0449 146.815V145.482C63.0449 144.83 63.1886 144.279 63.4759 143.828C63.7837 143.378 64.2146 143.014 64.7687 142.739C65.3227 142.451 65.9896 142.244 66.7694 142.119C67.5697 141.981 68.4726 141.912 69.4781 141.912C70.7094 141.912 71.6739 142.081 72.3716 142.419C73.0898 142.745 73.4489 143.302 73.4489 144.091C73.4489 144.818 73.3668 145.55 73.2026 146.289C73.059 147.028 72.9153 147.761 72.7717 148.487C72.6281 149.201 72.4947 149.921 72.3716 150.647C72.2484 151.374 72.0535 152.094 71.7867 152.808C71.7046 153.071 71.5918 153.321 71.4481 153.559C71.3045 153.797 71.1095 154.01 70.8633 154.198C70.6376 154.386 70.3503 154.536 70.0014 154.649C69.6526 154.749 69.2216 154.799 68.7086 154.799Z" fill="#F5EDF0"/>
<path d="M47.5412 100.499C30.0386 100.09 29.1113 84.7558 30.0386 78.6461C30.0953 78.2725 31.2091 74.363 31.2913 74.0425C29.0728 73.6352 26.9768 69.2213 25.7101 64.1971C24.1267 57.917 26.6529 30.6928 41.4976 33.4209C43.6842 33.9447 45.0303 31.9702 46.297 34.8313C53.1547 30.4972 61.3977 28.616 66.712 28.2059C74.5161 27.4784 79.5868 29.7972 80.6236 31.1897C82.075 28.8121 85.9959 25.5915 94.2524 30.5929C104.573 36.8447 115.374 42.9543 112.829 56.4524C110.285 69.9505 107.316 79.4418 103.018 78.6461C106.156 86.6882 97.7303 100.499 85.3739 100.499C84.1822 100.499 83.0111 100.442 81.8677 100.34C80.8272 102.599 78.3471 103.225 77.2371 103.255C77.8239 105.958 76.3631 107.504 75.223 108.029C72.3177 108.704 69.7916 108.143 67.6734 106.955C64.252 107.154 56.2501 106.06 51.6129 100.09C50.374 100.249 49.0237 100.533 47.5412 100.499Z" fill="#F5EDF0"/>
<path d="M66.712 28.2059C74.5161 27.4784 79.5868 29.7972 80.6236 31.1897C82.075 28.8121 85.9959 25.5915 94.2524 30.5929C104.573 36.8447 115.374 42.9543 112.829 56.4524C110.285 69.9505 107.316 79.4418 103.018 78.6461M66.712 28.2059C61.3977 28.616 53.1547 30.4972 46.297 34.8313M66.712 28.2059C76.8347 45.3982 69.2002 71.6555 53.9314 78.6461C41.7164 84.2386 33.8693 77.4147 31.4727 73.3037M103.018 78.6461C106.156 86.6882 97.7303 100.499 85.3739 100.499C84.1822 100.499 83.0111 100.442 81.8677 100.34M103.018 78.6461C99.6719 77.5189 92.8499 72.8093 92.3297 62.9883C91.6793 50.7122 89.389 33.0084 84.356 35.3386M60.3783 98.0208C61.3831 100.668 63.8708 104.822 67.6734 106.955M60.3783 98.0208C58.4635 98.8199 55.6502 99.5696 51.6129 100.09M60.3783 98.0208C62.3826 97.1842 63.4024 96.2933 63.811 95.5543M75.223 99.2073C69.9901 97.8993 65.9181 95.8993 64.0258 94.6733C64.0344 94.75 64.0347 94.8313 64.0258 94.9165M75.223 99.2073C76.3774 100.769 76.9895 102.115 77.2371 103.255M75.223 99.2073C77.2792 99.7213 79.5148 100.128 81.8677 100.34M77.2371 103.255C77.8239 105.958 76.3631 107.504 75.223 108.029C72.3177 108.704 69.7916 108.143 67.6734 106.955M77.2371 103.255C78.3471 103.225 80.8272 102.599 81.8677 100.34M67.6734 106.955C64.252 107.154 56.2501 106.06 51.6129 100.09M51.6129 100.09C50.374 100.249 49.0237 100.533 47.5412 100.499C30.0386 100.09 29.1113 84.7558 30.0386 78.6461C30.0953 78.2725 31.2091 74.363 31.2913 74.0425M63.811 95.5543C65.8713 96.6057 70.0485 99.1632 70.2747 100.982M63.811 95.5543C63.9377 95.325 64.0056 95.1104 64.0258 94.9165M31.2913 74.0425C29.0728 73.6352 26.9768 69.2213 25.7101 64.1971C24.1267 57.917 26.6529 30.6928 41.4976 33.4209C43.6842 33.9447 45.0303 31.9702 46.297 34.8313M31.2913 74.0425C31.5667 72.9677 30.938 75.5671 31.4727 73.3037M46.297 34.8313C40.1653 38.7066 35.1411 44.543 34.3082 53.0424C33.1726 64.631 32.2094 70.1848 31.4727 73.3037M64.0258 94.9165C61.17 92.4852 57.89 88.8478 57.89 86.6882C57.9371 85.3715 58.0427 83.0337 62.9513 83.3065C69.0871 83.6475 70.1361 84.1258 70.2747 86.2335C70.5009 89.6719 65.1003 90.837 64.0258 94.9165Z" stroke="#252525" stroke-width="3.5408" stroke-linecap="round"/>
<path d="M64.0263 94.6719C65.9185 95.8978 69.9906 97.8978 75.2234 99.2058C77.2797 99.7198 79.5152 100.127 81.8681 100.338C80.8276 102.598 78.3475 103.224 77.2375 103.254C77.8243 105.956 76.3635 107.502 75.2234 108.028C72.3182 108.703 69.792 108.142 67.6738 106.953C64.2525 107.153 56.2505 106.058 51.6133 100.088C55.6506 99.5681 58.4639 98.8185 60.3787 98.0193C62.383 97.1827 63.4028 96.2919 63.8114 95.5528C63.9381 95.3236 64.006 95.1089 64.0263 94.9151C64.0352 94.8298 64.0348 94.7486 64.0263 94.6719Z" fill="#F5EDF0"/>
<path d="M60.3787 98.0193C61.3836 100.667 63.8712 104.82 67.6738 106.953M60.3787 98.0193C58.4639 98.8185 55.6506 99.5681 51.6133 100.088C56.2505 106.058 64.2525 107.153 67.6738 106.953M60.3787 98.0193C62.383 97.1827 63.4028 96.2919 63.8114 95.5528M75.2234 99.2058C69.9906 97.8978 65.9185 95.8978 64.0263 94.6719C64.0348 94.7486 64.0352 94.8298 64.0263 94.9151C64.006 95.1089 63.9381 95.3236 63.8114 95.5528M75.2234 99.2058C76.3778 100.768 76.9899 102.114 77.2375 103.254M75.2234 99.2058C77.2797 99.7198 79.5152 100.127 81.8681 100.338C80.8276 102.598 78.3475 103.224 77.2375 103.254M77.2375 103.254C77.8243 105.956 76.3635 107.502 75.2234 108.028C72.3182 108.703 69.792 108.142 67.6738 106.953M63.8114 95.5528C65.8717 96.6042 70.049 99.1618 70.2752 100.98" stroke="#252525" stroke-width="3.5408" stroke-linecap="round"/>
<path d="M75.2236 99.2058C69.9908 97.8978 65.9187 95.8978 64.0265 94.6719C64.035 94.7486 64.0354 94.8298 64.0265 94.9151C64.0062 95.1089 63.9383 95.3236 63.8116 95.5528C63.403 96.2919 62.3832 97.1827 60.3789 98.0193C61.3838 100.667 63.8714 104.82 67.674 106.953C69.7922 108.142 72.5395 109.265 75.2236 108.028C76.6263 107.381 77.8245 105.956 77.2377 103.254C76.9901 102.114 76.378 100.768 75.2236 99.2058Z" fill="#C54432"/>
<path d="M63.8116 95.5528C63.403 96.2919 62.3832 97.1827 60.3789 98.0193C61.3838 100.667 63.8714 104.82 67.674 106.953C69.7922 108.142 72.5395 109.265 75.2236 108.028C76.6263 107.381 77.8245 105.956 77.2377 103.254C76.9901 102.114 76.378 100.768 75.2236 99.2058C69.9908 97.8978 65.9187 95.8978 64.0265 94.6719C64.035 94.7486 64.0354 94.8298 64.0265 94.9151C64.0062 95.1089 63.9383 95.3236 63.8116 95.5528ZM63.8116 95.5528C65.8719 96.6042 70.0492 99.1618 70.2754 100.98" stroke="#252525" stroke-width="3.5408" stroke-linecap="round"/>
<path d="M57.8906 86.6868C57.8906 88.8465 61.1706 92.4838 64.0264 94.9151C65.1009 90.8356 70.5015 89.6705 70.2754 86.2321C70.1367 84.1244 69.0878 83.6461 62.952 83.3051C58.0433 83.0323 57.9378 85.3701 57.8906 86.6868Z" fill="#252525"/>
<path d="M64.0264 94.6719C64.035 94.7486 64.0354 94.8299 64.0264 94.9151M64.0264 94.9151C61.1706 92.4838 57.8906 88.8465 57.8906 86.6868C57.9378 85.3701 58.0433 83.0323 62.952 83.3051C69.0878 83.6461 70.1367 84.1244 70.2754 86.2321C70.5015 89.6705 65.1009 90.8356 64.0264 94.9151Z" stroke="#252525" stroke-width="3.5408" stroke-linecap="round"/>
<path d="M103.019 78.6453C99.6727 77.5181 92.8507 72.8084 92.3304 62.9875C91.6801 50.7113 89.3898 33.0075 84.3567 35.3377C82.2926 36.2934 80.0871 33.2065 80.4264 31.0468C79.3896 29.6543 74.5169 27.4776 66.7128 28.2051C76.8355 45.3974 69.201 71.6547 53.9322 78.6453C41.7171 84.2378 33.8701 77.4139 31.4734 73.3029C30.9388 75.5663 31.1915 74.331 30.916 75.4058C28.6975 74.9985 23.9439 72.9278 22.6772 67.9037C21.0937 61.6235 24.5339 36.1618 38.587 32.0698C41.9308 31.0961 45.031 31.9694 46.2978 34.8304C53.1554 30.4963 61.3984 28.6151 66.7128 28.2051C74.5169 27.4776 79.3896 29.6543 80.4264 31.0468C81.8779 28.6692 85.9967 25.5907 94.2532 30.5921C104.574 36.8438 115.375 42.9535 112.83 56.4516C110.285 69.9497 107.316 79.441 103.019 78.6453Z" fill="#73482F"/>
<path d="M66.7128 28.2051C74.5169 27.4776 79.3896 29.6543 80.4264 31.0468M66.7128 28.2051C61.3984 28.6151 53.1554 30.4963 46.2978 34.8304M66.7128 28.2051C76.8355 45.3974 69.201 71.6547 53.9322 78.6453C41.7171 84.2378 33.8701 77.4139 31.4734 73.3029M30.0394 78.6453C30.0961 78.2716 30.8339 75.7263 30.916 75.4058M80.4264 31.0468C81.8779 28.6692 85.9967 25.5907 94.2532 30.5921C104.574 36.8438 115.375 42.9535 112.83 56.4516C110.285 69.9497 107.316 79.441 103.019 78.6453C99.6727 77.5181 92.8507 72.8084 92.3304 62.9875C91.6801 50.7113 89.3898 33.0075 84.3567 35.3377C82.2926 36.2934 80.0871 33.2065 80.4264 31.0468ZM30.916 75.4058C28.6975 74.9985 23.9439 72.9278 22.6772 67.9037C21.0937 61.6235 24.5339 36.1618 38.587 32.0698C41.9308 31.0961 45.031 31.9694 46.2978 34.8304M30.916 75.4058C31.1915 74.331 30.9388 75.5663 31.4734 73.3029M46.2978 34.8304C40.166 38.7058 35.1419 44.5422 34.309 53.0415C33.1733 64.6302 32.2101 70.1839 31.4734 73.3029" stroke="#252525" stroke-width="3.5408" stroke-linecap="round"/>
<ellipse cx="49.4077" cy="65.7727" rx="5.85304" ry="7.53051" fill="#252525"/>
<ellipse cx="80.0601" cy="64.5793" rx="5.85304" ry="7.53051" fill="#252525"/>
<path d="M64.3586 21.3754L68.282 8.26372L74.1166 12.3451L80.0041 5.99137L83.3476 14.5465L88.1364 12.8212L84.9184 25.3209C75.5064 26.4229 67.2902 23.1497 64.3586 21.3754Z" fill="#CF8C3D"/>
<path d="M64.3586 21.3754L68.282 8.26372L74.1166 12.3451L80.0041 5.99137L83.3476 14.5465L88.1364 12.8212L84.9184 25.3209M64.3586 21.3754C66.5066 19.9063 82.5396 21.5761 84.9184 25.3209M64.3586 21.3754C67.2902 23.1497 75.5064 26.4229 84.9184 25.3209" stroke="#252525" stroke-width="3.5408" stroke-linecap="round"/>
</svg>
